<?xml version="1.0" encoding="UTF-8"?>
<svg viewBox="0 0 20 20">
    <path
        d="M10,18.1818182 C5.48863637,18.1818182 1.81818182,14.5113636 1.81818182,10 C1.81818182,5.48863637 5.48863637,1.81818182 10,1.81818182 C14.5113636,1.81818182 18.1818182,5.48863637 18.1818182,10 C18.1818182,14.5113636 14.5113636,18.1818182 10,18.1818182 M13.6363636,9.31818182 L10.6818182,9.31818182 L10.6818182,6.36363637 C10.6818182,5.98707858 10.3765578,5.68181818 10,5.68181818 C9.62344222,5.68181818 9.31818182,5.98707858 9.31818182,6.36363637 L9.31818182,9.31818182 L6.36363637,9.31818182 C5.98707858,9.31818182 5.68181818,9.62344222 5.68181818,10 C5.68181818,10.3765578 5.98707858,10.6818182 6.36363637,10.6818182 L9.31818182,10.6818182 L9.31818182,13.6363636 C9.31818182,14.0129214 9.62344222,14.3181818 10,14.3181818 C10.3765578,14.3181818 10.6818182,14.0129214 10.6818182,13.6363636 L10.6818182,10.6818182 L13.6363636,10.6818182 C14.0129214,10.6818182 14.3181818,10.3765578 14.3181818,10 C14.3181818,9.62344222 14.0129214,9.31818182 13.6363636,9.31818182"></path>
</svg>
