<?xml version="1.0" encoding="UTF-8"?>
<svg viewBox="0 0 16 16" version="1.1" xmlns="http://www.w3.org/2000/svg">
    <!-- Generator: Sketch 52.6 (67491) - http://www.bohemiancoding.com/sketch -->
    <title>app</title>
    <desc>Created with Sketch.</desc>
    <g id="app" stroke="none" stroke-width="1" fill="none" fill-rule="evenodd">
        <g fill-rule="nonzero">
            <rect id="Rectangle" x="0" y="0" width="16" height="16"></rect>
            <rect id="Rectangle-Copy-3" fill-opacity="0.25" fill="#1890FF" x="2" y="0" width="12" height="16"
                  rx="1"></rect>
            <path
                d="M13,10 L3,10 L3,12 L13,12 L13,10 Z M13,4 L13,1 L3,1 L3,4 L13,4 Z M14,4 L16,4 L16,10 L14,10 L14,15 C14,15.5522847 13.5522847,16 13,16 L3,16 C2.44771525,16 2,15.5522847 2,15 L2,10 L0,10 L0,4 L2,4 L2,1 C2,0.44771525 2.44771525,1.01453063e-16 3,0 L13,0 C13.5522847,-1.01453063e-16 14,0.44771525 14,1 L14,4 Z M8,15 C8.55228475,15 9,14.5522847 9,14 C9,13.4477153 8.55228475,13 8,13 C7.44771525,13 7,13.4477153 7,14 C7,14.5522847 7.44771525,15 8,15 Z M6.45947266,9 L5.01904297,5.21826172 L4.49658203,5.21826172 L3.05615234,9 L3.59570312,9 L3.95947266,7.96484375 L5.53417969,7.96484375 L5.91992188,9 L6.45947266,9 Z M5.3828125,7.53759766 L4.11328125,7.53759766 L4.6796875,5.96533203 C4.70247407,5.90348276 4.72281892,5.81559302 4.74072266,5.70166016 L4.75292969,5.70166016 C4.77408865,5.8269863 4.7936197,5.91487605 4.81152344,5.96533203 L5.3828125,7.53759766 Z M7.49462891,7.58642578 L7.98535156,7.58642578 C8.38086135,7.59944668 8.7104479,7.49080519 8.97412109,7.26049805 C9.23779429,7.03019091 9.36962891,6.72949404 9.36962891,6.35839844 C9.36962891,5.99218567 9.25691844,5.71061296 9.03149414,5.51367188 C8.80606984,5.31673079 8.48909709,5.21826172 8.08056641,5.21826172 L7.00634766,5.21826172 L7.00634766,9 L7.49462891,9 L7.49462891,7.58642578 Z M7.49462891,5.64794922 L7.99267578,5.64794922 C8.56885054,5.64794922 8.85693359,5.89127361 8.85693359,6.37792969 C8.85693359,6.62858198 8.77962317,6.82104425 8.625,6.95532227 C8.47037683,7.08960028 8.24414211,7.15673828 7.94628906,7.15673828 L7.49462891,7.15673828 L7.49462891,5.64794922 Z M10.5537109,7.58642578 L11.0444336,7.58642578 C11.4399434,7.59944668 11.7695299,7.49080519 12.0332031,7.26049805 C12.2968763,7.03019091 12.4287109,6.72949404 12.4287109,6.35839844 C12.4287109,5.99218567 12.3160005,5.71061296 12.0905762,5.51367188 C11.8651519,5.31673079 11.5481791,5.21826172 11.1396484,5.21826172 L10.0654297,5.21826172 L10.0654297,9 L10.5537109,9 L10.5537109,7.58642578 Z M10.5537109,5.64794922 L11.0517578,5.64794922 C11.6279326,5.64794922 11.9160156,5.89127361 11.9160156,6.37792969 C11.9160156,6.62858198 11.8387052,6.82104425 11.684082,6.95532227 C11.5294589,7.08960028 11.3032241,7.15673828 11.0053711,7.15673828 L10.5537109,7.15673828 L10.5537109,5.64794922 Z"
                id="Combined-Shape" fill="#333333"></path>
        </g>
    </g>
</svg>
