<?xml version="1.0" encoding="UTF-8"?>
<svg viewBox="0 0 20 20" version="1.1">
    <path
        d="M18.06,2.48 C18.54,2.96 18.8966667,3.49666667 19.13,4.09 C19.3633333,4.68333333 19.48,5.29333333 19.48,5.92 C19.48,6.54666667 19.3633333,7.15666667 19.13,7.75 C18.8966667,8.34333333 18.54,8.88 18.06,9.36 L10.4,16.96 C9.92,17.44 9.33,17.84 8.63,18.16 C7.93,18.48 7.19,18.6666667 6.41,18.72 C5.63,18.7733333 4.83333333,18.6666667 4.02,18.4 C3.20666667,18.1333333 2.45333333,17.6533333 1.76,16.96 C1.08,16.28 0.606666667,15.5433333 0.34,14.75 C0.0733333333,13.9566667 -0.0333333333,13.1666667 0.02,12.38 C0.0733333333,11.5933333 0.256666667,10.8533333 0.57,10.16 C0.883333333,9.46666667 1.28,8.88 1.76,8.4 L8.56,1.66 C8.68,1.54 8.85666667,1.51 9.09,1.57 C9.32333333,1.63 9.5,1.72 9.62,1.84 C9.72666667,1.96 9.81333333,2.13666667 9.88,2.37 C9.94666667,2.60333333 9.92,2.78 9.8,2.9 L3.02,9.62 C2.66,9.98 2.36,10.4 2.12,10.88 C1.88,11.36 1.74,11.8733333 1.7,12.42 C1.66,12.9666667 1.74,13.52 1.94,14.08 C2.14,14.64 2.5,15.18 3.02,15.7 C3.48666667,16.1666667 4.00333333,16.4966667 4.57,16.69 C5.13666667,16.8833333 5.7,16.9633333 6.26,16.93 C6.82,16.8966667 7.35333333,16.7733333 7.86,16.56 C8.36666667,16.3466667 8.8,16.06 9.16,15.7 L16.8,8.12 C17.16,7.76 17.4166667,7.38666667 17.57,7 C17.7233333,6.61333333 17.7966667,6.23 17.79,5.85 C17.7833333,5.47 17.6933333,5.1 17.52,4.74 C17.3466667,4.38 17.1066667,4.04666667 16.8,3.74 C16.2266667,3.18 15.5833333,2.91666667 14.87,2.95 C14.1566667,2.98333333 13.44,3.36 12.72,4.08 L5.82,10.94 C5.51333333,11.2466667 5.36333333,11.5866667 5.37,11.96 C5.37666667,12.3333333 5.5,12.64 5.74,12.88 C6.03333333,13.1733333 6.37,13.2933333 6.75,13.24 C7.13,13.1866667 7.44,13.04 7.68,12.8 L13.94,6.58 C14.06,6.46 14.2366667,6.43 14.47,6.49 C14.7033333,6.55 14.88,6.64 15,6.76 C15.12,6.88 15.2133333,7.05666667 15.28,7.29 C15.3466667,7.52333333 15.32,7.7 15.2,7.82 L8.92,14.04 C8.44,14.52 7.98,14.8533333 7.54,15.04 C7.1,15.2266667 6.68666667,15.31 6.3,15.29 C5.91333333,15.27 5.55333333,15.1666667 5.22,14.98 C4.88666667,14.7933333 4.58,14.5666667 4.3,14.3 C4.07333333,14.0866667 3.87,13.8133333 3.69,13.48 C3.51,13.1466667 3.40666667,12.78 3.38,12.38 C3.35333333,11.98 3.42333333,11.5533333 3.59,11.1 C3.75666667,10.6466667 4.08,10.1866667 4.56,9.72 C4.8,9.48 5.01333333,9.26 5.2,9.06 C5.36,8.88666667 5.51,8.73333333 5.65,8.6 C5.79,8.46666667 5.86666667,8.39333333 5.88,8.38 L11.46,2.82 C11.94,2.34 12.4633333,1.96333333 13.03,1.69 C13.5966667,1.41666667 14.1733333,1.26 14.76,1.22 C15.3466667,1.18 15.9233333,1.26 16.49,1.46 C17.0566667,1.66 17.58,2 18.06,2.48 Z"></path>
</svg>
