<?xml version="1.0" encoding="UTF-8"?>
<svg viewBox="0 0 16 16">
    <path
        d="M14.5876197,14.9352819 L12.6917234,14.9352819 C12.5170666,14.9352819 12.3757487,14.7933461 12.3757487,14.6193201 C12.3757487,14.4446545 12.5170666,14.3033423 12.6917234,14.3033423 L14.271629,14.3033423 L14.271629,12.7235015 C14.271629,12.5488519 14.4129629,12.4075397 14.5876197,12.4075397 C14.7616528,12.4075397 14.9035944,12.5488519 14.9035944,12.7235015 L14.9035944,14.6193041 C14.9035784,14.7933461 14.7616368,14.9352819 14.5876197,14.9352819 Z M14.5876197,11.1436766 C14.4129629,11.1436766 14.271629,11.0017248 14.271629,10.8276988 L14.271629,8.93191216 C14.271629,8.75726256 14.4129629,8.61593439 14.5876197,8.61593439 C14.7616528,8.61593439 14.9035944,8.75726256 14.9035944,8.93191216 L14.9035944,10.8276988 C14.9035784,11.0017248 14.7616368,11.1436766 14.5876197,11.1436766 Z M14.5876197,7.3520713 C14.4129629,7.3520713 14.271629,7.21013553 14.271629,7.03610952 L14.271629,5.14030688 C14.271629,4.96567328 14.4129629,4.82434509 14.5876197,4.82434509 C14.7616528,4.82434509 14.9035944,4.96567327 14.9035944,5.14030688 L14.9035944,7.03610952 C14.9035784,7.21013553 14.7616368,7.3520713 14.5876197,7.3520713 Z M14.5876197,3.560482 C14.4129629,3.560482 14.271629,3.41854623 14.271629,3.24450423 L14.271629,1.66467936 L12.6917234,1.66467936 C12.5170666,1.66467936 12.3757487,1.52274359 12.3757487,1.34871758 C12.3757487,1.17406798 12.5170666,1.0327558 12.6917234,1.0327558 L14.5876037,1.0327558 C14.7616368,1.0327558 14.9035784,1.17406798 14.9035784,1.34871758 L14.9035784,3.24450423 C14.9035784,3.41854622 14.7616368,3.560482 14.5876197,3.560482 Z M10.795843,14.9352819 L8.89997872,14.9352819 C8.72532197,14.9352819 8.583988,14.7933461 8.583988,14.6193201 C8.583988,14.4446545 8.72532197,14.3033423 8.89997872,14.3033423 L10.795843,14.3033423 C10.9698762,14.3033423 11.1118338,14.4446545 11.1118338,14.6193201 C11.1118338,14.7933461 10.9698762,14.9352819 10.795843,14.9352819 Z M10.795843,1.66467934 L8.89997872,1.66467934 C8.72532197,1.66467934 8.583988,1.52274358 8.583988,1.34871756 C8.583988,1.17406797 8.72532197,1.03275578 8.89997872,1.03275578 L10.795843,1.0327558 C10.9698762,1.0327558 11.1118338,1.17406798 11.1118338,1.34871758 C11.1118338,1.52274358 10.9698762,1.66467934 10.795843,1.66467934 Z M7.00409839,1.66467934 L5.10821806,1.66467934 C4.93357731,1.66467934 4.79224334,1.52274358 4.79224334,1.34871756 C4.79224334,1.17406797 4.93357731,1.03275578 5.10821806,1.03275578 L7.00409839,1.03275578 C7.17813153,1.03275578 7.32007311,1.17406797 7.32007311,1.34871756 C7.32007311,1.52274358 7.17811555,1.66467934 7.00409839,1.66467934 Z M3.21233773,14.9352819 L1.31647341,14.9352819 C1.14181666,14.9352819 1.00049869,14.7933461 1.00049869,14.6193201 L1.00049869,12.7235175 C1.00049869,12.5488679 1.14181667,12.4075557 1.31647341,12.4075557 C1.49081036,12.4075557 1.63244812,12.5488679 1.63244812,12.7235175 L1.63244812,14.3033583 L3.21235372,14.3033583 C3.38669067,14.3033583 3.52832844,14.4446705 3.52832844,14.6193361 C3.52832845,14.7933461 3.38669067,14.9352819 3.21233773,14.9352819 Z M3.21233773,1.66467934 L1.63243214,1.66467934 L1.63243214,3.24450422 C1.63243214,3.41853023 1.49079436,3.56048198 1.31645742,3.56048198 C1.14180067,3.56048198 1.0004827,3.41854622 1.0004827,3.24450422 L1.00048269,1.34871756 C1.00048269,1.17406797 1.14180067,1.03275578 1.31645741,1.03275578 L3.21233773,1.03275578 C3.38667469,1.03275578 3.52831245,1.17406797 3.52831245,1.34871756 C3.52832845,1.52274358 3.38669067,1.66467934 3.21233773,1.66467934 Z M1.31647341,4.82434509 C1.49081036,4.82434509 1.63244813,4.96567327 1.63244813,5.14030688 L1.63244813,7.03610952 C1.63244813,7.21013553 1.49081034,7.3520713 1.31647341,7.3520713 C1.14181666,7.3520713 1.00049869,7.21013553 1.00049869,7.03610952 L1.00049869,5.14030688 C1.00048269,4.96567328 1.14181666,4.82434509 1.31647341,4.82434509 Z M1.31647341,8.61593439 C1.49081036,8.61593439 1.63244813,8.75726256 1.63244813,8.93191216 L1.63244813,10.8276988 C1.63244813,11.0017248 1.49081034,11.1436766 1.31647341,11.1436766 C1.14181666,11.1436766 1.00049869,11.0017248 1.00049869,10.8276988 L1.00049869,8.93191216 C1.00048269,8.75726258 1.14181666,8.61593439 1.31647341,8.61593439 Z M10.9452039,10.3364799 L10.304604,10.9770535 C10.1873507,11.0942861 9.99603253,11.0942861 9.87817161,10.9770535 L8.06435102,9.16333925 L6.25056239,10.9770536 C6.13268548,11.0942861 5.94136734,11.0942861 5.82411403,10.9770536 L5.18351409,10.3364799 C5.06626078,10.2192314 5.06626078,10.0279211 5.18351409,9.91006498 L6.99792631,8.0963187 L5.18351409,6.28321198 C5.06626078,6.16473231 5.06626078,5.97404559 5.18351409,5.85617352 L5.82411403,5.21622341 C5.94136734,5.09835133 6.13268547,5.09835133 6.25056239,5.21622341 L8.064351,7.0299377 L9.87817159,5.21622341 C9.99603252,5.09835133 10.1873506,5.09835133 10.304604,5.21622341 L10.9452039,5.85617352 C11.0624572,5.97404559 11.0624572,6.16473231 10.9452039,6.28321198 L9.1307757,8.0963187 L10.9452039,9.91006498 C11.0624572,10.0279211 11.0624572,10.2192314 10.9452039,10.3364799 Z M5.10821806,14.3033423 L7.00409839,14.3033423 C7.17813153,14.3033423 7.32007311,14.4446545 7.32007311,14.6193201 C7.32007311,14.7933461 7.17813153,14.9352819 7.00409839,14.9352819 L5.10821806,14.9352819 C4.93357731,14.9352819 4.79224334,14.7933461 4.79224334,14.6193201 C4.79224334,14.4446545 4.93356133,14.3033423 5.10821806,14.3033423 Z"></path>
</svg>
