<?xml version="1.0" encoding="UTF-8"?>
<svg viewBox="0 0 20 20">
    <path
        d="M15.5008604,4.6098925 L13.0765441,4.6098925 L11.6042023,3.13089525 L8.35446566,3.13089525 L6.88212391,4.6098925 L4.45778762,4.6098925 C4.26054135,4.62987895 4.06789197,4.88830373 4.08787842,5.13305779 L4.08787842,6.06890328 L15.859897,6.06890328 L15.859897,5.13305779 C15.859877,4.93069498 15.7827293,4.62987895 15.5008604,4.6098925 Z M8.65949887,3.87039387 L11.2996688,3.87039387 L12.0358297,4.6098925 L7.92331799,4.6098925 L8.65949887,3.87039387 Z M4.82735705,17.6485123 C4.82735705,17.8508951 4.9583882,17.8609083 5.1939485,17.8609083 L14.7646795,17.8609083 C14.9832713,17.8609083 15.1403648,17.8508951 15.1403648,17.6485123 L15.1403648,6.80840189 L4.82735705,6.80840189 L4.82735705,17.6485123 Z M10.7233596,9.02689775 L11.4428717,9.02689775 L11.4428717,14.9029138 L10.7233596,14.9029138 L10.7233596,9.02689775 Z M8.50486371,9.02689775 L9.24436232,9.02689775 L9.24436232,14.9029138 L8.50486371,14.9029138 L8.50486371,9.02689775 Z"></path>
</svg>
