<?xml version="1.0" encoding="UTF-8"?>
<svg viewBox="0 0 20 20">
    <path
        d="M17.8125,13.3046875 L17.8125,16.3085938 C17.8125,16.5585938 17.7265625,16.7734375 17.5507812,16.9472656 C17.375,17.1230469 17.1621094,17.2089844 16.9121094,17.2089844 L3.08789062,17.2089844 C2.83789062,17.2089844 2.62304688,17.1230469 2.44921875,16.9472656 C2.2734375,16.7714844 2.1875,16.5585938 2.1875,16.3085938 L2.1875,13.3046875 C2.1875,13.0546875 2.2734375,12.8398438 2.44921875,12.6660156 C2.625,12.4902344 2.83789062,12.4042969 3.08789062,12.4042969 L7.45507812,12.4042969 L8.72265625,13.6816406 C9.0859375,14.0332031 9.50976562,14.2070312 10,14.2070312 C10.4902344,14.2070312 10.9140625,14.03125 11.2773438,13.6816406 L12.5546875,12.4042969 L16.9140625,12.4042969 C17.1640625,12.4042969 17.3789062,12.4902344 17.5527344,12.6660156 C17.7226562,12.84375 17.8125,13.0566406 17.8125,13.3046875 Z M14.7617188,7.96289062 C14.8691406,8.21875 14.8242188,8.43945312 14.6289062,8.62109375 L10.421875,12.828125 C10.3085938,12.9472656 10.1699219,13.0058594 10,13.0058594 C9.83007812,13.0058594 9.68945312,12.9472656 9.578125,12.828125 L5.36914062,8.62109375 C5.17578125,8.43945312 5.13085938,8.22070312 5.23632812,7.96289062 C5.34375,7.71875 5.52734375,7.59765625 5.79101562,7.59765625 L8.1953125,7.59765625 L8.1953125,3.390625 C8.1953125,3.22851562 8.25390625,3.0859375 8.37304688,2.96875 C8.4921875,2.8515625 8.63085937,2.79101562 8.79492188,2.79101562 L11.1992188,2.79101562 C11.3613281,2.79101562 11.5039062,2.84960938 11.6210938,2.96875 C11.7382812,3.08789062 11.7988281,3.22851562 11.7988281,3.390625 L11.7988281,7.59765625 L14.2050781,7.59765625 C14.46875,7.59765625 14.6542969,7.71875 14.7617188,7.96289062 Z M14.0273438,15.8320313 C14.1464844,15.7128906 14.2050781,15.5722656 14.2050781,15.4101563 C14.2050781,15.2480469 14.1464844,15.1054688 14.0273438,14.9882812 C13.9082031,14.8710938 13.7675781,14.8105469 13.6054688,14.8105469 C13.4433594,14.8105469 13.3007813,14.8691406 13.1835938,14.9882812 C13.0664062,15.1074219 13.0058594,15.2480469 13.0058594,15.4101563 C13.0058594,15.5722656 13.0644531,15.7148438 13.1835938,15.8320313 C13.3027344,15.9492188 13.4414063,16.0097656 13.6054688,16.0097656 C13.7675781,16.0117188 13.9101563,15.9511719 14.0273438,15.8320313 Z M16.4316406,15.8320313 C16.5507812,15.7128906 16.609375,15.5722656 16.609375,15.4101563 C16.609375,15.2480469 16.5507812,15.1054688 16.4316406,14.9882812 C16.3125,14.8710938 16.171875,14.8105469 16.0097656,14.8105469 C15.8476562,14.8105469 15.7050781,14.8691406 15.5878906,14.9882812 C15.4707031,15.1074219 15.4101562,15.2480469 15.4101562,15.4101563 C15.4101562,15.5722656 15.46875,15.7148438 15.5878906,15.8320313 C15.7070313,15.9492188 15.8457031,16.0097656 16.0097656,16.0097656 C16.171875,16.0117188 16.3125,15.9511719 16.4316406,15.8320313 Z"></path>
</svg>
