<?xml version="1.0" encoding="UTF-8"?>
<svg viewBox="0 0 20 20">
    <path
        d="M18.3409766,1.64083984 C18.1191016,1.41931641 17.8280469,1.30839844 17.5373828,1.30839844 C17.2463672,1.30839844 16.9556836,1.41931641 16.7341602,1.64083984 L14.0016602,4.37294922 L13.624082,4.75052734 L13.2672461,5.10740234 L11.090918,7.28408203 L7.33257812,11.0420898 L7.33257812,12.6810547 L8.90869141,12.6810547 L10.7618164,10.8275977 L14.9062305,6.68314453 L14.9672266,6.62212891 L14.9668555,6.62212891 L15.1606641,6.42835937 L18.3409766,3.24765625 C18.7851367,2.80460938 18.7851367,2.08462891 18.3409766,1.64083984 Z M15.4417187,7.21826172 L11.2972656,11.3630469 L9.44419922,13.216543 L9.22228516,13.438418 L6.57521484,13.438418 L6.57521484,10.7284961 L6.79708984,10.506582 L10.5554297,6.74861328 L12.7317578,4.57191406 L12.9536133,4.35003906 L1.27367188,4.35003906 L1.27367188,18.7399609 L15.6635742,18.7399609 L15.6635742,6.99677734 L15.5012305,7.15910156 L15.4417187,7.21826172 Z"></path>
</svg>
