<?xml version="1.0" encoding="UTF-8"?>
<svg viewBox="0 0 16 16" version="1.1" xmlns="http://www.w3.org/2000/svg">
    <!-- Generator: Sketch 52.6 (67491) - http://www.bohemiancoding.com/sketch -->
    <title>exit</title>
    <desc>Created with Sketch.</desc>
    <g id="exit" stroke="none" stroke-width="1" fill="none" fill-rule="evenodd">
        <g>
            <rect id="Rectangle" fill-rule="nonzero" x="0" y="0" width="16" height="16"></rect>
            <g transform="translate(2.000000, 1.000000)" id="Combined-Shape">
                <path
                    d="M10,4 L4.99703014,4 C4.45303631,4 4,4.44358641 4,4.99077797 L4,9.00922203 C4,9.54902482 4.4463856,10 4.99703014,10 L10,10 L10,11.9941413 C10,13.1019465 9.11256671,14 8.00038502,14 L1.99961498,14 C0.895258123,14 0,13.1029399 0,11.9941413 L0,2.00585866 C0,0.898053512 0.88743329,0 1.99961498,0 L8.00038502,0 C9.10474188,0 10,0.897060126 10,2.00585866 L10,4 Z"
                    fill-opacity="0.25" fill="#1890FF"></path>
                <path
                    d="M9,3 L9,2.00585866 C9,1.44906762 8.55217701,1 8.00038502,1 L1.99961498,1 C1.4437285,1 1,1.44632042 1,2.00585866 L1,11.9941413 C1,12.5509324 1.44782299,13 1.99961498,13 L8.00038502,13 C8.5562715,13 9,12.5536796 9,11.9941413 L9,11 L4.99703014,11 C3.8969135,11 3,10.1041196 3,9.00922203 L3,4.99077797 C3,3.89112192 3.90087708,3 4.99703014,3 L9,3 Z M10,4 L4.99703014,4 C4.45303631,4 4,4.44358641 4,4.99077797 L4,9.00922203 C4,9.54902482 4.4463856,10 4.99703014,10 L10,10 L10,11.9941413 C10,13.1019465 9.11256671,14 8.00038502,14 L1.99961498,14 C0.895258123,14 0,13.1029399 0,11.9941413 L0,2.00585866 C0,0.898053512 0.88743329,0 1.99961498,0 L8.00038502,0 C9.10474188,0 10,0.897060126 10,2.00585866 L10,4 Z M9.5,6 L9.5,5.05831088 C9.5,4.50807825 9.87162424,4.30233508 10.3329233,4.60063129 L13.2082618,6.45995109 C13.6682726,6.75741427 13.6695609,7.23886433 13.2082618,7.53716055 L10.3329233,9.39648035 C9.87291248,9.69394353 9.5,9.49365114 9.5,8.93880076 L9.5,8 L5.99077797,8 C5.44358641,8 5,7.55613518 5,7 C5,6.44771525 5.45097518,6 5.99077797,6 L9.5,6 Z"
                    fill="#333333" fill-rule="nonzero"></path>
            </g>
        </g>
    </g>
</svg>
