<?xml version="1.0" encoding="UTF-8"?>
<svg viewBox="0 0 20 20">
    <path
        d="M17.4726562,10.3964844 C17.1308594,10.3964844 16.8535156,10.6738281 16.8535156,11.015625 L16.8535156,15.9179687 C16.8535156,16.3730469 16.4824219,16.7441406 16.0273438,16.7441406 L3.97851562,16.7441406 C3.5234375,16.7441406 3.15234375,16.3730469 3.15234375,15.9179687 L3.15234375,4.56445312 C3.15234375,4.109375 3.5234375,3.73828125 3.97851562,3.73828125 L9.265625,3.73828125 C9.60742188,3.73828125 9.88476562,3.4609375 9.88476562,3.11914062 C9.88476562,2.77734375 9.609375,2.5 9.265625,2.5 L3.97851562,2.5 C2.83984375,2.5 1.9140625,3.42578125 1.9140625,4.56445312 L1.9140625,15.9179687 C1.9140625,17.0566406 2.83984375,17.9824219 3.97851562,17.9824219 L16.0273438,17.9824219 C17.1660156,17.9824219 18.0917969,17.0566406 18.0917969,15.9179687 L18.0917969,11.015625 C18.0917969,10.6738281 17.8144531,10.3964844 17.4726562,10.3964844 Z M4.94335938,13.4550781 C6.8671875,11.6347656 8.80859375,8.8203125 12.2421875,9.00195312 C12.484375,9.015625 12.6738281,9.20507812 12.6738281,9.44921875 L12.6738281,10.640625 C12.671875,11.015625 13.1074219,11.2246094 13.3984375,10.9882812 L17.8496094,7.38867187 C18.0703125,7.2109375 18.0703125,6.87304687 17.8476563,6.6953125 L13.4179688,2.7109375 C13.1269531,2.4765625 12.6738281,2.68359375 12.671875,3.05664062 L12.671875,4.26367188 C12.671875,4.49023438 12.5175781,4.65429688 12.2949219,4.70507812 C6.38671875,6.05273437 4.89257812,12.9785156 4.94335938,13.4550781 Z"></path>
</svg>
