<?xml version="1.0" encoding="UTF-8"?>
<svg viewBox="0 0 20 20" version="1.1" xmlns="http://www.w3.org/2000/svg">
    <!-- Generator: Sketch 52.6 (67491) - http://www.bohemiancoding.com/sketch -->
    <title>file</title>
    <desc>Created with Sketch.</desc>
    <g id="file" stroke="none" stroke-width="1" fill="none" fill-rule="evenodd">
        <g>
            <rect id="Rectangle" fill="#000000" opacity="0" x="0" y="0" width="20" height="20"></rect>
            <path
                d="M17.569129,4.34266813 L9.37023154,4.34266813 C9.37023153,3.04884824 8.32138328,2 7.0275634,2 L2.34266814,2 C1.04884826,2 1.07868115e-08,3.04884824 0,4.34266813 L0,16.0555678 C0,16.2522602 0.0317530273,16.4410143 0.0776185352,16.6240353 C0.0890849023,16.6699008 0.105402441,16.7135612 0.118632871,16.7594267 C0.166703438,16.9080485 0.226240371,17.0500551 0.301653809,17.1836825 C0.315325254,17.2101433 0.328114668,17.2361632 0.34310916,17.261301 C0.546646579,17.5971387 0.831284143,17.8764687 1.17089307,18.0736494 C1.52571924,18.2840077 1.93017884,18.3960447 2.34266814,18.3982359 L17.569129,18.3982359 C18.8630203,18.398236 19.9119946,17.349459 19.9122382,16.0555678 L19.9122382,6.68577729 C19.9117514,5.39191551 18.8629908,4.3431549 17.569129,4.34266813 Z M2.34266814,4.34266813 C1.99955898,4.34266813 1.67585447,4.42072766 1.38169791,4.55303197 C1.75868939,3.7132341 2.5930278,3.17248477 3.51356119,3.17133406 L5.85622934,3.17133406 C6.72061742,3.17133406 7.4676957,3.64498346 7.8738699,4.34266813 L2.34266814,4.34266813 Z"
                id="Shape" fill="#FFD658" fill-rule="nonzero"></path>
        </g>
    </g>
</svg>
