<?xml version="1.0" encoding="UTF-8"?>
<svg viewBox="0 0 20 20">
    <path
        d="M17.3333333,4.22222223 L9.86666666,4.22222223 L7.82222223,2.04444445 L2.8,2.04444445 C1.82222223,2.04444445 0.977777773,2.84444445 0.977777773,3.86666666 L0.977777773,16.1333333 C0.977777773,17.1111111 1.77777777,17.9555556 2.8,17.9555555 L17.3333333,17.9555555 C18.3111111,17.9555555 19.1555556,17.1555555 19.1555555,16.1333333 L19.1555555,6.04444445 C19.1555555,5.02222223 18.3111111,4.22222223 17.3333333,4.22222223 Z M13.5555555,12.0888889 L10.7555555,12.0888889 L10.7555555,14.8888889 C10.7555555,15.2444444 10.4444444,15.5555555 10.0888889,15.5555555 C9.73333334,15.5555555 9.42222223,15.2444444 9.42222223,14.8888889 L9.42222223,12.0888889 L6.62222223,12.0888889 C6.26666668,12.0888889 5.95555557,11.7777778 5.95555555,11.4222222 C5.95555553,11.0666667 6.26666666,10.7555556 6.62222223,10.7555555 L9.42222223,10.7555555 L9.42222223,7.95555555 C9.42222223,7.6 9.73333334,7.28888889 10.0888889,7.28888889 C10.4444444,7.28888889 10.7555555,7.6 10.7555555,7.95555555 L10.7555555,10.7555555 L13.5555555,10.7555555 C13.9111111,10.7555555 14.2222222,11.0666667 14.2222222,11.4222222 C14.2222222,11.7777778 13.9111111,12.0888889 13.5555555,12.0888889 Z"></path>
</svg>
