<?xml version="1.0" encoding="UTF-8"?>
<svg width="15px" height="15px" viewBox="0 0 15 15" version="1.1" xmlns="http://www.w3.org/2000/svg"
>
    <!-- Generator: Sketch 52.6 (67491) - http://www.bohemiancoding.com/sketch -->
    <title>home</title>
    <desc>Created with Sketch.</desc>
    <g id="Page-1" stroke="none" stroke-width="1" fill="none" fill-rule="evenodd">
        <g id="项目信息" transform="translate(-123.000000, -81.000000)" fill-rule="nonzero">
            <g id="面包屑" transform="translate(0.000000, 58.000000)">
                <g transform="translate(106.000000, 20.000000)" id="home">
                    <g transform="translate(16.000000, 2.000000)">
                        <rect id="Rectangle" x="0" y="0" width="16" height="16"></rect>
                        <path
                            d="M10.5857864,9.58578644 L6.58578644,9.58578644 L6.58578644,13.5857864 C6.58578644,14.1380712 6.13807119,14.5857864 5.58578644,14.5857864 C5.03350169,14.5857864 4.58578644,14.1380712 4.58578644,13.5857864 L4.58578644,9.58578644 L4,9.58578644 C3.44771525,9.58578644 3,9.13807119 3,8.58578644 C3,8.32056995 3.10535684,8.06621603 3.29289322,7.87867966 L7.87867966,3.29289322 C8.26920395,2.90236893 8.90236893,2.90236893 9.29289322,3.29289322 L13.8786797,7.87867966 C14.2692039,8.26920395 14.2692039,8.90236893 13.8786797,9.29289322 C13.6911433,9.4804296 13.4367894,9.58578644 13.1715729,9.58578644 L12.5857864,9.58578644 L12.5857864,13.5857864 C12.5857864,14.1380712 12.1380712,14.5857864 11.5857864,14.5857864 C11.0335017,14.5857864 10.5857864,14.1380712 10.5857864,13.5857864 L10.5857864,9.58578644 Z"
                            id="Combined-Shape-Copy" fill="#DCDFE6"></path>
                        <path
                            d="M5.86980068,8.16204505 L10.8698007,8.16204505 L10.8698007,13.9790257 C10.8698007,14.8074528 11.5413736,15.4790257 12.3698007,15.4790257 C13.1982278,15.4790257 13.8698007,14.8074528 13.8698007,13.9790257 L13.8698007,8.16204505 L14.7396014,8.16204505 C14.8824203,8.16204505 15.0184223,8.10097115 15.113306,7.99422697 C15.296765,7.78783558 15.2781747,7.4717994 15.0717833,7.28834039 L8.7019826,1.62629534 C8.51253959,1.45790155 8.22706177,1.45790155 8.03761876,1.62629534 L1.66781808,7.28834039 C1.5610739,7.3832241 1.5,7.51922614 1.5,7.66204505 C1.5,7.93818742 1.72385763,8.16204505 2,8.16204505 L2.86980068,8.16204505 L2.86980068,13.9790257 C2.86980068,14.8074528 3.54137355,15.4790257 4.36980068,15.4790257 C5.1982278,15.4790257 5.86980068,14.8074528 5.86980068,13.9790257 L5.86980068,8.16204505 Z"
                            id="Combined-Shape" stroke="#606266"></path>
                    </g>
                </g>
            </g>
        </g>
    </g>
</svg>
