<svg t="1594365645226" class="icon" viewBox="0 0 1024 1024" version="1.1" xmlns="http://www.w3.org/2000/svg" p-id="6052"
     width="16" height="16">
    <path
        d="M548.010667 434.773333a22.485333 22.485333 0 0 0-22.528-22.528H270.506667a22.485333 22.485333 0 1 0 0 45.013334h254.976a22.485333 22.485333 0 0 0 22.528-22.485334zM270.506667 547.242667a22.485333 22.485333 0 1 0 0 45.013333h142.506666a22.485333 22.485333 0 0 0 0-45.013333H270.506667z m187.477333 303.786666H203.008a29.994667 29.994667 0 0 1-29.994667-30.037333V203.008c0-16.554667 13.44-29.994667 29.994667-29.994667h494.976c16.597333 0 29.994667 13.44 29.994667 29.994667v242.986667a22.485333 22.485333 0 1 0 45.013333 0V187.989333c0-33.109333-26.88-59.989333-59.989333-59.989333H187.989333C154.88 128 128 154.88 128 187.989333v648.021334C128 869.12 154.88 896 187.989333 896h269.994667a22.485333 22.485333 0 0 0 0-45.013333z m165.034667-551.253333a22.485333 22.485333 0 0 0-22.528-22.528H270.506667a22.485333 22.485333 0 1 0 0 45.013333h329.984a22.485333 22.485333 0 0 0 22.528-22.528z m62.976 176.213333a210.005333 210.005333 0 1 0 0 420.010667 210.005333 210.005333 0 0 0 0-420.010667z m-0.384 374.272a164.608 164.608 0 1 1 0-329.258666 164.608 164.608 0 0 1 0 329.258666z"
        fill="#ffffff" p-id="6053"></path>
    <path
        d="M820.992 685.653333a37.290667 37.290667 0 0 0-11.093333-26.88l-79.530667-79.573333a37.546667 37.546667 0 0 0-53.034667 53.034667l15.957334 15.914666h-104.789334a37.504 37.504 0 1 0 0 74.965334h103.978667l-15.146667 15.104a37.461333 37.461333 0 1 0 53.034667 53.034666l75.946667-75.946666a37.376 37.376 0 0 0 14.677333-29.696z"
        fill="#ffffff" p-id="6054"></path>
</svg>
