<?xml version="1.0" standalone="no"?><!DOCTYPE svg PUBLIC "-//W3C//DTD SVG 1.1//EN"
    "http://www.w3.org/Graphics/SVG/1.1/DTD/svg11.dtd">
<svg t="1597646155538" class="icon" viewBox="0 0 1024 1024" version="1.1" xmlns="http://www.w3.org/2000/svg" p-id="6441"
     width="200" height="200">
    <defs>
        <style type="text/css"></style>
    </defs>
    <path
        d="M1016.32 649.216c1.536 8.704 1.024 19.456-1.024 31.744-4.608 25.6-14.336 50.176-29.184 71.68-6.144 9.216-14.336 16.896-24.064 22.016-7.168 4.096-14.848 6.144-23.04 6.656-7.68 0-14.848-1.536-21.504-4.608-8.704-2.56-17.92-4.608-27.136-6.144-10.752-2.048-22.016-2.048-33.28-1.024s-22.528 3.584-33.792 7.168c-11.264 3.584-20.992 9.728-28.672 18.432-17.408 17.92-27.648 38.912-30.72 61.952-3.072 23.04 0.512 45.056 9.728 66.56 7.168 13.824 6.144 30.72-3.072 43.52-5.632 7.168-12.8 13.312-20.48 17.92-9.216 6.144-19.968 11.776-31.232 16.896s-23.04 9.216-35.328 11.776c-12.288 3.072-23.04 4.096-32.768 4.096-6.656 0-13.312-3.072-18.432-7.68s-9.216-10.24-11.776-16.384h-1.024c-8.192-22.528-22.016-43.008-40.96-58.368-18.432-15.872-42.496-25.088-67.072-24.576-24.576 0-47.104 8.192-66.56 24.576-18.944 14.848-33.28 34.816-41.984 57.344-3.072 8.192-8.704 14.848-16.384 18.944-7.168 4.096-15.36 6.144-24.064 6.144-11.776 0-23.04-2.048-34.304-5.632-12.8-3.584-25.6-8.192-37.888-13.824-12.288-5.12-23.552-11.264-34.304-18.944-8.704-6.144-16.384-13.312-23.04-21.504-3.584-5.12-5.632-11.776-6.144-17.92-0.512-6.656 2.56-16.384 8.192-28.672 8.192-16.896 10.752-35.84 9.216-57.344-2.048-22.528-12.288-43.52-27.648-59.392-9.728-10.752-22.528-17.92-36.864-20.992-13.312-3.072-27.648-4.608-41.472-3.584-15.36 0.512-30.72 3.584-46.592 8.704-10.24 3.072-20.992 2.048-30.208-2.048-8.192-3.072-15.36-9.728-22.528-19.968-7.168-11.264-13.312-22.528-18.432-34.816-5.12-12.8-9.728-25.6-12.288-39.424-2.56-10.752-3.584-22.016-2.048-33.28 2.048-15.872 9.216-26.112 22.016-30.208 22.528-9.216 43.008-24.064 58.88-43.008 17.408-19.968 26.112-42.496 26.112-67.072 0-25.6-8.704-47.616-26.112-66.56-16.384-17.92-36.352-32.256-58.88-41.472-7.68-2.048-12.8-7.168-17.408-15.36-4.096-7.68-6.656-16.384-6.656-25.6 0-9.216 1.536-19.968 4.096-31.744 3.072-11.776 6.656-23.04 11.264-33.792 4.608-10.752 10.24-20.992 16.384-30.208 5.12-8.192 12.288-14.848 19.968-19.968 5.12-3.584 10.752-5.12 16.896-4.096 5.632 0.512 11.264 2.048 17.92 4.096 21.504 8.704 44.544 11.264 68.096 8.192 23.552-3.072 44.544-13.824 62.464-31.232 8.704-9.216 15.36-19.968 18.944-32.256 4.096-12.8 6.656-25.6 7.68-37.888 1.024-11.264 1.024-22.528 0-33.792-0.512-7.168-1.536-14.336-2.56-22.016-1.536-5.12-3.072-10.24-3.584-15.36-1.024-5.12-0.512-10.752 1.536-15.36 5.12-10.752 13.312-20.48 23.552-26.624 11.264-7.68 23.552-13.824 36.352-18.944 13.312-5.12 25.6-8.704 37.888-11.264C353.28 5.12 363.008 4.096 370.176 4.096c9.216 0 16.896 3.072 22.528 9.216 5.12 5.632 8.704 12.288 11.264 18.944 8.192 19.456 20.992 36.864 38.912 51.712 17.92 14.848 39.424 22.528 64 22.528 25.6 0 47.616-7.168 67.584-21.504 19.456-14.336 33.28-32.256 41.472-53.76 3.584-6.656 8.192-12.8 13.312-17.92 6.144-6.144 12.8-9.216 18.944-9.216 10.24 0 20.992 1.536 33.28 4.608 11.776 3.072 24.064 7.168 35.328 11.776 11.776 5.12 22.528 11.776 32.256 19.456 9.728 8.192 17.408 16.896 23.552 26.112 3.584 5.632 4.608 12.288 3.072 18.944-1.024 5.12-2.56 10.24-4.608 14.848-9.216 20.992-12.288 43.008-8.704 66.56 3.584 23.04 14.336 43.52 31.744 60.928 17.408 17.408 38.912 27.136 64 28.672 25.6 1.536 49.152-2.56 70.656-12.288 6.144-3.584 13.824-5.12 20.992-4.608 8.192 1.024 15.36 4.096 20.992 9.728 10.752 10.24 20.48 25.6 28.672 46.08 8.192 20.48 13.824 41.472 16.896 62.464 1.536 12.288-0.512 22.016-6.144 28.672-4.096 6.144-10.24 10.752-16.896 13.312-22.528 8.192-41.472 22.016-57.856 41.984-15.872 18.944-24.064 43.008-24.064 68.096 0 24.576 6.656 46.08 19.968 65.024 13.312 18.432 31.232 31.744 52.736 39.936 5.12 3.072 9.216 6.144 13.312 8.704 10.24 7.68 15.872 16.384 18.944 26.112zM510.464 747.52c31.744 0 62.976-6.144 92.672-18.432 29.184-12.288 54.272-29.184 75.776-51.2 21.504-22.016 38.4-47.104 50.688-75.776 12.288-28.672 18.432-59.392 18.432-92.16s-6.144-63.488-18.432-92.16C705.536 360.96 660.48 315.904 603.136 291.84c-29.184-12.288-60.928-18.432-92.672-18.432-32.768 0-63.488 6.144-91.648 18.432C361.984 315.904 317.44 360.96 293.376 417.792c-12.288 29.184-18.944 60.416-18.432 92.16 0 32.768 6.144 63.488 18.432 92.16 12.288 28.672 29.184 53.76 50.688 75.776 21.504 22.016 46.592 38.912 75.264 51.2 27.648 12.288 58.368 18.432 91.136 18.432z"
        p-id="6442"></path>
</svg>
