<?xml version="1.0" standalone="no"?><!DOCTYPE svg PUBLIC "-//W3C//DTD SVG 1.1//EN"
    "http://www.w3.org/Graphics/SVG/1.1/DTD/svg11.dtd">
<svg t="1600161523912" class="icon" viewBox="0 0 1024 1024" version="1.1" xmlns="http://www.w3.org/2000/svg" p-id="6975"
     width="200" height="200">
    <defs>
        <style type="text/css"></style>
    </defs>
    <path
        d="M118.153846 0a78.769231 78.769231 0 0 1 78.769231 76.406154l683.874461 193.339077a78.769231 78.769231 0 1 1 77.666462 122.998154l-0.039385 152.694153 5.238154 5.868308-5.238154 4.686769v154.033231a78.769231 78.769231 0 1 1-66.087384 136.034462l-618.496 76.8a78.769231 78.769231 0 1 1-120.674462-82.550154L83.219692 149.385846A78.769231 78.769231 0 0 1 118.153846 0z m669.577846 300.701538L238.316308 838.813538c11.657846 7.207385 21.267692 17.368615 27.844923 29.459693l72.428307-8.979693L872.644923 345.796923a78.257231 78.257231 0 0 1-5.789538-22.646154l-79.123693-22.449231z m115.554462 92.16L429.961846 847.911385l143.123692-17.762462-0.787692-0.866461 330.988308-297.905231V392.861538z m0 212.755693l-236.583385 212.913231 199.995077-24.812308a78.729846 78.729846 0 0 1 36.627692-72.704l-0.039384-115.396923zM637.636923 258.284308L193.102769 687.261538l10.909539 107.953231L726.567385 283.411692l-88.930462-25.127384z m-154.939077-43.795693l-307.160615 299.283693 10.476307 103.620923 390.22277-376.477539-93.538462-26.427077zM312.674462 166.4l-157.026462 150.843077 12.8 126.464 253.006769-246.547692-108.780307-30.759385z m-173.449847-11.697231l9.373539 92.868923 102.557538-98.540307-72.073846-20.361847c-10.121846 12.406154-24.024615 21.661538-39.857231 25.993847z"
        p-id="6976"></path>
</svg>
