<?xml version="1.0" standalone="no"?><!DOCTYPE svg PUBLIC "-//W3C//DTD SVG 1.1//EN"
    "http://www.w3.org/Graphics/SVG/1.1/DTD/svg11.dtd">
<svg t="1600161343393" class="icon" viewBox="0 0 1024 1024" version="1.1" xmlns="http://www.w3.org/2000/svg" p-id="4895"
     width="200" height="200">
    <defs>
        <style type="text/css"></style>
    </defs>
    <path
        d="M729.6 708.608c-16.384-3.072-31.232 7.168-33.792 23.552-3.072 16.384 7.168 31.232 23.552 33.792 84.48 16.384 134.656 43.008 134.656 56.32 0 3.072-4.608 7.168-16.384 16.384-16.384 10.24-39.936 20.48-71.168 29.696-66.56 19.456-156.672 29.696-252.928 29.696-96.256 0-187.904-10.24-252.928-29.696-31.232-8.704-54.784-19.456-71.168-29.696-13.312-8.704-17.92-13.312-17.92-16.384 0-11.776 46.08-36.864 122.88-53.248 16.384-3.072 26.624-19.456 22.016-35.328-1.536-16.384-17.92-26.624-33.792-22.016-104.96 22.016-169.984 57.856-169.984 111.104 0 82.944 177.664 133.12 399.36 133.12s399.36-50.176 399.36-133.12c0-54.784-69.632-91.648-181.76-114.176zM288.256 480.768l200.192 319.488c4.096 8.704 13.312 14.848 24.064 14.848 10.24 0 19.456-6.144 24.064-14.848l200.192-319.488h-0.512c27.648-41.984 43.52-92.16 43.52-145.92 0-147.456-119.296-266.752-266.752-266.752S246.272 187.392 246.272 334.848C245.248 389.12 261.12 438.784 288.256 480.768zM512 213.504c67.072 0 121.856 54.272 121.856 121.856S579.072 456.704 512 456.704c-67.072 0-121.856-54.272-121.856-121.856S444.928 213.504 512 213.504z"
        p-id="4896"></path>
</svg>
