<?xml version="1.0" standalone="no"?><!DOCTYPE svg PUBLIC "-//W3C//DTD SVG 1.1//EN"
    "http://www.w3.org/Graphics/SVG/1.1/DTD/svg11.dtd">
<svg t="1600161079129" class="icon" viewBox="0 0 1320 1024" version="1.1" xmlns="http://www.w3.org/2000/svg" p-id="2742"
     width="257.8125" height="200">
    <defs>
        <style type="text/css"></style>
    </defs>
    <path
        d="M1129.718067 424.59136c3.1488-19.29216 4.70016-38.8096 4.63872-58.35264C1134.361907 164.56192 977.607987 0 783.990067 0a346.46016 346.46016 0 0 0-295.42912 169.4464 334.82752 334.82752 0 0 0-41.7536-2.68288c-178.44224 0.27136-322.91328 145.07008-322.77504 323.51232 0.03072 11.8272 0.68096 23.64416 1.95584 35.39968a269.24544 269.24544 0 0 0-44.928 36.3776A274.92864 274.92864 0 0 0 0.000307 757.38112a271.98464 271.98464 0 0 0 60.79488 170.91072A247.32672 247.32672 0 0 0 200.453427 1024h874.0864c133.30944 0 244.16256-134.528 244.16256-302.51008 0-145.02912-80.82432-266.624-188.98432-296.89856z m-97.65888 543.00672H212.418867s-154.79296-58.112-151.13216-223.40608c0-107.42784 108.89728-183.12192 127.2064-191.17568a273.40288 273.40288 0 0 1-7.08096-55.18336v-7.56736c-0.13312-146.88256 118.7584-266.10688 265.64608-266.37824h13.91616c18.72384 1.03936 37.29408 3.98336 55.424 8.79104a317.60384 317.60384 0 0 1 29.30176-51.03104 292.98176 292.98176 0 0 1 238.54592-124.5184c167.0656 3.73248 299.5712 142.0288 296.16128 309.10464a320.31744 320.31744 0 0 1-4.15232 51.03104 287.20128 287.20128 0 0 1-12.93824 52.2496c115.24096 10.74176 201.92256 131.60448 201.92256 252.70272 0 136.23808-93.02528 246.10816-232.19712 245.38112h-0.98304z"
        fill="#040000" p-id="2743"></path>
    <path
        d="M298.235187 787.21024l-63.9232-267.47392h51.61472l37.66272 175.29344 34.816-175.29344h50.82112l33.47456 175.29344 38.8096-175.29344h52.31104l-64.9728 267.47392h-50.61632l-34.7392-172.02176-34.16576 172.02176h-51.09248zM557.322547 519.73632h48.8448v36.52096c8.7552-14.26944 18.35008-24.97024 28.8-32.10752 10.4448-7.13728 21.72928-10.70592 33.8688-10.70592 12.9024 0 24.07424 3.52256 33.52064 10.57792 9.4464 7.05024 17.16736 17.7152 23.15264 31.98464 8.90368-14.26944 18.46272-24.9344 28.68736-31.98464 10.20928-7.05536 21.07904-10.57792 32.59904-10.57792 13.66528 0 25.45664 3.57376 35.36384 10.71616 9.9072 7.14752 17.42848 17.35168 22.57408 30.62784 5.1456 13.27616 7.72096 33.69472 7.72096 61.25568v171.17184H799.232307v-153.05728c0-26.7264-2.15552-44.49792-6.4512-53.3248-4.30592-8.82688-11.52-13.24032-21.6576-13.24032-11.83232 0-21.3504 6.17984-28.56448 18.5344-7.22432 12.35456-10.8288 36.52096-10.8288 72.48896v128.59392h-53.2224V640.4608c0-29.0816-1.4592-47.8208-4.3776-56.22784-3.84-11.08992-11.5968-16.64-23.2704-16.64-7.82848 0-15.0528 2.86208-21.65248 8.576-6.6048 5.71392-11.3664 14.07488-14.2848 25.08288-2.9184 11.01312-4.3776 29.62944-4.3776 55.84896v130.10944h-53.2224v-267.47392zM886.784307 711.14752l53.2224-10.8288c4.608 28.04224 18.8928 42.0608 42.8544 42.0608 12.74368 0 22.272-2.688 28.5696-8.064 6.29248-5.376 9.4464-12.34432 9.4464-20.9152 0-5.87776-1.38752-10.50112-4.15232-13.85984-2.9184-3.35872-8.69376-6.29248-17.33632-8.8064-43.58656-12.67712-71.29088-24.73472-83.11296-36.17792-14.7456-14.30528-22.11328-33.90976-22.11328-58.81856 0-24.90368 7.21408-44.8512 21.65248-59.83232 14.43328-14.976 35.39968-22.46656 62.89408-22.46656 26.2656 0 46.22848 5.58592 59.904 16.74752 13.6704 11.16672 23.2704 29.17376 28.8 54.02112l-49.9968 12.34432c-4.45952-21.48864-17.0496-32.24064-37.7856-32.24064-13.06112 0-22.3488 2.06336-27.8784 6.18496-5.5296 4.12672-8.2944 9.46688-8.2944 16.0256 0 5.888 2.5344 10.77248 7.59808 14.6432 5.06368 4.03456 20.80256 10.13248 47.2064 18.29376 29.62432 9.17504 49.74592 20.23424 60.3648 33.17248 10.46016 12.93824 15.6928 30.16192 15.6928 51.66592 0 25.87136-8.10496 47.2064-24.30464 64.00512-16.20992 16.80384-38.58944 25.20064-67.15904 25.20064-25.9584 0-47.1552-7.00416-63.5904-21.02784-16.43008-14.01344-27.25888-34.4576-32.48128-61.32736z"
        p-id="2744"></path>
</svg>
