<?xml version="1.0" standalone="no"?><!DOCTYPE svg PUBLIC "-//W3C//DTD SVG 1.1//EN"
    "http://www.w3.org/Graphics/SVG/1.1/DTD/svg11.dtd">
<svg t="1600161133149" class="icon" viewBox="0 0 1024 1024" version="1.1" xmlns="http://www.w3.org/2000/svg" p-id="3133"
     width="200" height="200">
    <defs>
        <style type="text/css"></style>
    </defs>
    <path
        d="M125.9 127.99v767.65h773.59V127.99H125.9z m119.35 458.29v-39.29h264.84v39.29H399.15v262.68h-42.96V586.28H245.25z m412.18 85.91l6.47 3.88c28.92 17.99 47.84 33.86 56.77 47.6 8.92 13.74 13.38 30.76 13.38 51.05 0 23.02-8.35 42.05-25.04 57.09-16.7 15.04-38.06 22.56-64.11 22.56-16.26 0-30.95-2.3-44.04-6.9-13.09-4.6-25.68-11.94-37.77-22.02v-56.98c13.67 15.69 26.73 26.98 39.17 33.89 12.45 6.91 25.72 10.36 39.83 10.36 14.96 0 26.76-3.49 35.4-10.47 8.63-6.98 12.95-16.44 12.95-28.38 0-9.79-2.91-18.38-8.74-25.79s-19.75-18.09-41.77-32.06c-34.1-22.02-55.5-39.07-64.21-51.15-8.71-12.09-13.06-26.48-13.06-43.17 0-23.45 8.31-42.7 24.93-57.73 16.62-15.03 38.02-22.56 64.21-22.56 11.65 0 23.13 1.69 34.42 5.08 11.3 3.38 22.7 8.59 34.21 15.65v48.99c-13.24-10.64-25.46-18.38-36.69-23.2-11.22-4.82-22.44-7.24-33.67-7.24-13.52 0-24.57 3.35-33.13 10.04-8.57 6.69-12.85 15.29-12.85 25.8 0.02 14.94 17.79 33.5 53.34 55.66zM159.96 510.83V162.05h705.47v348.78H159.96z"
        fill="#B7B7B7" p-id="3134"></path>
    <path
        d="M445.54 374.39l-65.97-169.24h-25.19l-66.67 168.88-60.08-167.75-0.4-1.13h-40.92l94.14 256.08 0.41 1.11h10.82l74.84-191 73.7 189.92 0.42 1.08h10.46l96.19-257.19h-40.21zM777.48 205.15L687.5 310.14l-89.31-104.4-0.51-0.59h-33.83v255.39h38.35V266.75l85.3 99.6 85.47-99.6v193.79h38.35V205.15z"
        fill="#B7B7B7" p-id="3135"></path>
</svg>
