<?xml version="1.0" standalone="no"?><!DOCTYPE svg PUBLIC "-//W3C//DTD SVG 1.1//EN"
    "http://www.w3.org/Graphics/SVG/1.1/DTD/svg11.dtd">
<svg t="1600161898410" class="icon" viewBox="0 0 1117 1024" version="1.1" xmlns="http://www.w3.org/2000/svg"
     p-id="13717" width="218.1640625" height="200">
    <defs>
        <style type="text/css"></style>
    </defs>
    <path
        d="M1070.545455 0H46.545455a46.545455 46.545455 0 0 0-46.545455 46.545455v930.90909a46.545455 46.545455 0 0 0 46.545455 46.545455h1024a46.545455 46.545455 0 0 0 46.545454-46.545455V46.545455a46.545455 46.545455 0 0 0-46.545454-46.545455z m0 977.454545H46.545455V279.272727h1024z m0-744.727272H46.545455V46.545455h1024z"
        p-id="13718"></path>
    <path
        d="M131.258182 148.014545m-37.236364 0a37.236364 37.236364 0 1 0 74.472727 0 37.236364 37.236364 0 1 0-74.472727 0Z"
        p-id="13719"></path>
    <path
        d="M270.894545 148.014545m-37.236363 0a37.236364 37.236364 0 1 0 74.472727 0 37.236364 37.236364 0 1 0-74.472727 0Z"
        p-id="13720"></path>
    <path
        d="M410.530909 148.014545m-37.236364 0a37.236364 37.236364 0 1 0 74.472728 0 37.236364 37.236364 0 1 0-74.472728 0Z"
        p-id="13721"></path>
    <path
        d="M165.701818 638.603636h36.770909a73.541818 73.541818 0 0 1 17.221818 0 43.287273 43.287273 0 0 1 14.429091 6.050909 66.56 66.56 0 0 1 16.290909 16.29091c6.050909 7.447273 13.498182 18.618182 22.807273 32.581818l31.650909 51.2h39.563637l-41.425455-64.698182a156.392727 156.392727 0 0 0-23.738182-32.116364 85.178182 85.178182 0 0 0-19.083636-11.636363 84.247273 84.247273 0 0 0 50.734545-22.341819 59.578182 59.578182 0 0 0 14.894546-42.821818 70.749091 70.749091 0 0 0-9.774546-36.305454A54.923636 54.923636 0 0 0 288.581818 512a147.083636 147.083636 0 0 0-46.545454-6.050909H134.050909V744.727273h31.650909z m0-106.589091h75.403637a57.716364 57.716364 0 0 1 39.098181 11.17091 36.770909 36.770909 0 0 1 12.101819 27.927272 36.770909 36.770909 0 0 1-24.669091 35.84 110.312727 110.312727 0 0 1-33.978182 4.189091H165.701818zM553.890909 716.8H406.807273v-81.454545h132.654545v-27.927273H406.807273v-73.541818h141.498182v-27.927273H375.156364V744.727273h178.734545v-27.927273zM719.127273 715.403636a96.814545 96.814545 0 0 1-32.116364 5.12 90.298182 90.298182 0 0 1-36.305454-6.981818 53.527273 53.527273 0 0 1-24.203637-18.618182 68.421818 68.421818 0 0 1-9.774545-29.323636h-29.789091a77.265455 77.265455 0 0 0 46.545454 71.68 139.636364 139.636364 0 0 0 54.458182 9.309091 114.967273 114.967273 0 0 0 46.545455-9.309091 72.145455 72.145455 0 0 0 31.185454-26.065455 65.163636 65.163636 0 0 0 11.170909-36.305454 60.974545 60.974545 0 0 0-10.24-33.978182 72.145455 72.145455 0 0 0-30.72-24.203636 372.363636 372.363636 0 0 0-52.596363-11.636364 119.621818 119.621818 0 0 1-46.545455-17.221818 25.6 25.6 0 0 1-9.309091-20.945455 31.650909 31.650909 0 0 1 13.032728-25.6 67.490909 67.490909 0 0 1 41.890909-10.24 62.836364 62.836364 0 0 1 41.425454 11.636364 46.545455 46.545455 0 0 1 16.756364 33.978182h30.254545a70.749091 70.749091 0 0 0-11.636363-37.701818 73.541818 73.541818 0 0 0-31.185455-25.134546 122.88 122.88 0 0 0-46.545454-8.378182 118.225455 118.225455 0 0 0-43.752728 7.912728 62.370909 62.370909 0 0 0-40.494545 57.716363 54.458182 54.458182 0 0 0 8.378182 29.789091 67.490909 67.490909 0 0 0 25.6 22.341818 211.781818 211.781818 0 0 0 46.545454 14.894546c21.876364 5.585455 36.305455 9.309091 42.821818 11.636363a52.130909 52.130909 0 0 1 21.410909 14.429091 31.650909 31.650909 0 0 1 6.516364 19.549091 33.047273 33.047273 0 0 1-6.981818 20.48 46.545455 46.545455 0 0 1-22.341818 11.170909zM881.105455 744.727273h31.650909v-210.850909h79.127272v-27.927273h-189.44v27.927273h78.661819V744.727273z"
        p-id="13722"></path>
</svg>
