<?xml version="1.0" standalone="no"?><!DOCTYPE svg PUBLIC "-//W3C//DTD SVG 1.1//EN"
    "http://www.w3.org/Graphics/SVG/1.1/DTD/svg11.dtd">
<svg t="1600161973650" class="icon" viewBox="0 0 1024 1024" version="1.1" xmlns="http://www.w3.org/2000/svg"
     p-id="14881" width="200" height="200">
    <defs>
        <style type="text/css"></style>
    </defs>
    <path
        d="M571.307 754.517L835.37 595.541s2.688 0 2.688-2.688l2.688-2.688V140.117s0-2.688-2.688-2.688h-8.064L428.5 35.03H409.6L169.77 202.112s-2.687 0-2.687 2.688v2.688s0 2.688-2.688 2.688v2.688c-2.731 2.73-2.731 2.73-2.731 5.419v433.834l2.73 2.688s2.689 0 2.689 2.731h5.376l382.677 96.981h5.376c2.688 0 5.376 0 5.376-2.688 2.688 2.688 2.688 2.688 5.376 2.688-2.688 0 0 0 0 0zM425.728 113.195c10.795 0 18.859-8.107 18.859-18.859V78.123l334.165 83.541-223.659 153.6L441.9 280.277c-2.688-8.106-8.107-16.213-18.859-16.213a20.565 20.565 0 0 0-13.483 5.419l-188.586-56.619L404.224 88.917v5.419c2.688 10.752 10.752 18.859 21.547 18.859z m172.459 371.84l-18.859-5.376V344.917L805.675 188.63v363.776l-13.483-5.376c-10.752-2.688-21.547 2.688-24.235 13.483-2.688 10.752 2.688 18.859 10.795 24.235L579.328 706.005V520.107l8.107 2.73h5.376c8.106 0 16.17-5.418 18.858-13.482 2.688-10.795-2.688-21.547-13.482-24.278zM226.304 603.648c-5.376-8.107-18.859-10.795-26.923-2.73h-2.688V245.204l207.488 64.683v37.717c0 10.795 8.107 18.859 18.859 18.859s18.859-8.064 18.859-18.859v-26.922l97.024 29.653v118.528l-8.107-2.688c-10.795-2.688-21.547 2.688-24.235 13.483-2.688 10.794 2.688 21.546 13.44 24.277l18.902 5.376v204.8L218.24 633.259h2.688a21.93 21.93 0 0 0 5.376-29.654z"
        p-id="14882"></path>
    <path
        d="M406.912 220.97c0 10.795 8.107 18.86 18.859 18.86 10.794 0 18.858-8.107 18.858-18.86v-64.682a18.432 18.432 0 0 0-18.858-18.859 18.432 18.432 0 0 0-18.859 18.859v64.725zM272.171 587.478c5.376 0 8.106 0 10.794-2.73l59.307-48.512c8.064-5.376 10.752-18.859 2.645-26.923-5.376-8.107-18.858-10.795-26.922-2.688l-59.307 48.512c-8.107 5.376-10.752 18.859-2.688 26.923 5.376 2.688 10.795 5.376 16.17 5.376z m121.258-94.336c5.376 0 8.107 0 10.795-2.688l24.235-18.858 29.653 8.106h5.376c8.107 0 16.213-5.418 18.859-13.525 2.688-10.752-2.688-21.547-13.483-24.235l-24.235-8.106v-26.923a18.432 18.432 0 0 0-18.858-18.859 18.432 18.432 0 0 0-18.859 18.859v32.341l-24.277 18.859c-8.107 5.376-10.752 18.859-2.688 26.923 2.688 5.418 8.106 8.106 13.482 8.106z m258.688 48.512L716.8 563.2h5.376c8.107 0 16.213-5.376 18.859-13.483 2.73-10.752-2.688-21.546-13.44-24.234l-64.683-21.547c-10.795-2.73-21.547 2.688-24.277 13.44-2.688 10.795 2.73 21.59 13.482 24.277z m258.688-99.712c-8.106-8.106-18.858-8.106-26.922 0-8.107 8.107-8.107 18.859 0 26.923C926.976 512 951.253 563.2 951.253 614.4c0 132.053-148.224 247.893-353.024 272.17-10.794 0-18.858 10.795-16.17 21.547 0 10.795 8.106 16.214 18.858 16.214h2.688C827.264 897.365 991.66 765.312 991.66 614.4c-2.688-61.995-29.654-121.259-80.854-172.459zM512 910.848v-8.107s0-2.688-2.688-2.688v-2.688l-45.824-59.306c-5.376-8.107-18.859-10.795-26.923-2.688-8.106 5.376-10.794 18.858-2.73 26.965l21.589 26.923c-8.107 0-16.213-2.688-24.277-2.688-210.176-24.235-358.4-140.118-358.4-272.171 0-48.512 18.858-94.293 56.618-134.741 5.376-8.107 5.376-21.547-2.73-26.923-8.107-8.107-18.859-5.419-26.923 2.688-43.093 48.47-64.725 102.4-64.725 158.976 0 150.912 161.706 282.965 388.053 309.888 10.752 0 21.547 2.688 32.341 2.688l-24.277 32.341a20.736 20.736 0 0 0 13.483 32.342c5.376 0 10.794-2.688 16.17-8.107l45.824-59.264v-8.064c2.688-2.688 5.376-2.688 5.376-5.419z"
        p-id="14883"></path>
</svg>
