<?xml version="1.0" standalone="no"?><!DOCTYPE svg PUBLIC "-//W3C//DTD SVG 1.1//EN"
    "http://www.w3.org/Graphics/SVG/1.1/DTD/svg11.dtd">
<svg t="1596445583739" class="icon" viewBox="0 0 1024 1024" version="1.1" xmlns="http://www.w3.org/2000/svg" p-id="3306"
     width="200" height="200">
    <defs>
        <style type="text/css"></style>
    </defs>
    <path
        d="M539.648 841.216c-221.696 9.216-327.68-45.568-371.2-79.36-16.384-12.8-25.6-26.112-25.6-57.856v-62.464C202.752 694.784 332.8 729.6 491.52 729.6c11.776 0 23.552 0 35.328-0.512 9.728-0.512 17.92-8.704 17.408-18.432-0.512-9.728-8.704-17.92-18.432-17.408-11.264 0.512-22.528 0.512-34.304 0.512-205.312 0-348.672-62.976-348.672-119.808V483.84C202.752 537.088 332.8 571.904 491.52 571.904s288.256-35.328 348.672-88.064v70.144c0 9.728 8.192 17.92 17.92 17.92s17.92-8.192 17.92-17.92V264.192c0-88.576-165.376-155.648-384.512-155.648S106.496 175.616 106.496 264.192v439.808c0 39.424 11.776 65.024 39.936 86.528C190.464 824.32 291.84 878.08 491.52 878.08c15.872 0 32.256-0.512 49.664-1.024 9.728-0.512 17.408-8.704 17.408-18.944-1.024-9.728-9.216-17.408-18.944-16.896zM490.496 144.384c205.312 0 348.672 62.976 348.672 119.808S696.32 384 490.496 384s-348.16-62.976-348.16-119.808c0-56.832 142.848-119.808 348.16-119.808z m-348.16 187.392C202.24 385.024 332.288 419.84 491.008 419.84s288.256-35.328 348.672-88.064v83.968c0 56.832-142.848 119.808-348.672 119.808S142.336 472.576 142.336 415.744V331.776z"
        p-id="3307"></path>
    <path
        d="M581.632 912.896V619.52h57.856c30.72 0 56.32 12.8 76.8 38.912s30.72 60.416 30.72 104.448c0 45.568-10.24 81.92-30.72 109.568-20.48 27.648-46.592 40.96-78.848 40.96h-55.808z m26.112-260.096v226.304h29.696c25.6 0 46.08-10.24 60.416-30.72 14.336-20.48 21.504-48.64 21.504-85.504s-7.68-64-22.528-82.432c-14.848-18.432-34.304-27.648-58.88-27.648h-30.208zM786.432 912.896V619.52h59.904c17.92 0 32.256 6.144 43.008 18.432s15.872 28.672 15.872 49.152c0 16.384-3.072 30.208-9.728 43.008-6.144 12.288-14.848 20.992-26.112 26.112v0.512c13.824 2.048 25.088 9.728 33.28 22.528s12.288 29.184 12.288 48.64c0 25.088-6.144 45.568-18.944 61.44-12.8 15.36-28.672 23.552-48.128 23.552h-61.44z m26.112-260.608v91.648h24.064c12.8 0 22.528-4.608 29.696-13.312 7.168-8.704 10.752-20.992 10.752-36.864 0-27.648-12.8-41.472-38.4-41.472h-26.112z m0 124.928v102.4h31.744c13.824 0 24.576-4.608 31.744-13.824 7.68-9.216 11.264-22.016 11.264-38.4 0-33.792-15.872-50.176-47.616-50.176h-27.136z"
        p-id="3308"></path>
</svg>
