<?xml version="1.0" standalone="no"?><!DOCTYPE svg PUBLIC "-//W3C//DTD SVG 1.1//EN"
    "http://www.w3.org/Graphics/SVG/1.1/DTD/svg11.dtd">
<svg t="1596446054171" class="icon" viewBox="0 0 1024 1024" version="1.1" xmlns="http://www.w3.org/2000/svg" p-id="4150"
     width="200" height="200">
    <defs>
        <style type="text/css"></style>
    </defs>
    <path
        d="M703.97 831.67h256.01V703.78H703.97v127.89zM64.01 703.78v127.89h256.01V703.78H64.01z m0-63.92h256.01V511.98H64.01v127.88z m0-191.8h256.01V320.17H64.01v127.89z m639.96 0h256.01V320.17H703.97v127.89z m0 191.8h256.01V511.98H703.97v127.88z m-319.98-191.8H640V320.17H383.99v127.89z m0 383.61H640V703.78H383.99v127.89z m0-191.81H640V511.98H383.99v127.88z m581.32-511.49c32.46 0 58.69 22.87 58.69 51.16v664.94c0 28.24-26.23 51.16-58.69 51.16H58.69C26.33 895.63 0 872.76 0 844.47V179.53c0-28.24 26.33-51.16 58.69-51.16h906.62z"
        p-id="4151"></path>
</svg>
