<svg t="1594365875093" class="icon" viewBox="0 0 1024 1024" version="1.1" xmlns="http://www.w3.org/2000/svg" p-id="8613"
     width="16" height="16">
    <path
        d="M512 102.4c225.28 0 409.6 184.32 409.6 409.6s-184.32 409.6-409.6 409.6-409.6-184.32-409.6-409.6 184.32-409.6 409.6-409.6m0-102.4C230.4 0 0 230.4 0 512s230.4 512 512 512 512-230.4 512-512S793.6 0 512 0z"
        p-id="8614" fill="#ffffff"></path>
    <path
        d="M512 358.4H450.56l20.48-20.48c20.48-20.48 20.48-51.2 0-71.68-20.48-20.48-51.2-20.48-71.68 0L291.84 373.76c-10.24 10.24-15.36 20.48-15.36 35.84 0 15.36 5.12 25.6 15.36 35.84l107.52 107.52c20.48 20.48 51.2 20.48 71.68 0 20.48-20.48 20.48-51.2 0-71.68L450.56 460.8H512c56.32 0 102.4 46.08 102.4 102.4s-46.08 102.4-102.4 102.4H435.2c-30.72 0-51.2 20.48-51.2 51.2s20.48 51.2 51.2 51.2H512c112.64 0 204.8-92.16 204.8-204.8s-92.16-204.8-204.8-204.8z"
        p-id="8615" fill="#ffffff"></path>
</svg>
