<svg t="1600160962899" class="icon" viewBox="0 0 1024 1024" version="1.1" xmlns="http://www.w3.org/2000/svg" p-id="3822"
     width="16" height="16">
    <path
        d="M843.294118 108.423529c-9.035294-6.023529-24.094118-12.047059-33.129412-18.070588-72.282353-36.141176-183.717647-60.235294-304.188235-60.235294s-231.905882 21.082353-304.188236 60.235294c-45.176471 24.094118-72.282353 48.188235-72.282353 105.411765v632.470588c0 33.129412 15.058824 63.247059 51.2 87.341177 9.035294 6.023529 15.058824 12.047059 24.094118 18.070588 72.282353 36.141176 177.694118 60.235294 301.176471 60.235294s228.894118-24.094118 301.17647-60.235294c9.035294-6.023529 27.105882-12.047059 36.141177-18.070588 39.152941-27.105882 69.270588-57.223529 69.270588-87.341177v-632.470588c0-33.129412-30.117647-63.247059-69.270588-87.341177zM502.964706 90.352941c216.847059 0 331.294118 75.294118 331.294118 105.411765 0 18.070588-39.152941 48.188235-111.435295 75.294118-54.211765 18.070588-126.494118 30.117647-219.858823 30.117647s-165.647059-15.058824-219.858824-30.117647C210.823529 246.964706 171.670588 213.835294 171.670588 195.764706c0-30.117647 117.458824-105.411765 331.294118-105.411765zM210.823529 301.176471c24.094118 12.047059 48.188235 24.094118 78.305883 30.117647 63.247059 18.070588 135.529412 30.117647 216.847059 30.117647s156.611765-12.047059 219.858823-30.117647c30.117647-9.035294 66.258824-21.082353 90.352941-30.117647 9.035294-6.023529 15.058824-6.023529 36.141177-18.070589v120.470589c0 18.070588-45.176471 48.188235-120.470588 75.294117-54.211765 18.070588-132.517647 30.117647-222.870589 30.117647s-159.623529-15.058824-213.835294-30.117647c-72.282353-24.094118-105.411765-57.223529-105.411765-75.294117v-120.470589c0 6.023529 9.035294 12.047059 21.082353 18.070589z m641.505883 228.894117v87.341177c0 18.070588-45.176471 48.188235-120.470588 75.294117-54.211765 18.070588-132.517647 30.117647-222.870589 30.117647s-159.623529-15.058824-213.835294-30.117647c-72.282353-24.094118-105.411765-57.223529-105.411765-75.294117v-120.470589c0 6.023529 9.035294 12.047059 21.082353 18.070589 24.094118 12.047059 48.188235 24.094118 78.305883 30.117647 63.247059 18.070588 135.529412 30.117647 216.847059 30.117647s156.611765-12.047059 219.858823-30.117647c30.117647-9.035294 66.258824-21.082353 90.352941-30.117647 9.035294-6.023529 21.082353-9.035294 36.141177-18.070589v33.129412z m0 298.164706c0 30.117647-114.447059 105.411765-331.294118 105.411765s-331.294118-75.294118-331.294118-105.411765v-120.470588c0 6.023529 9.035294 12.047059 21.082353 18.070588 24.094118 12.047059 48.188235 24.094118 78.305883 30.117647 63.247059 18.070588 135.529412 30.117647 216.847059 30.117647s156.611765-12.047059 219.858823-30.117647c30.117647-9.035294 66.258824-21.082353 90.352941-30.117647 9.035294-6.023529 18.070588-9.035294 36.141177-18.070588v120.470588z"
        fill="#787878" p-id="3823"></path>
</svg>
