<svg t="1594366074061" class="icon" viewBox="0 0 1024 1024" version="1.1" xmlns="http://www.w3.org/2000/svg"
     p-id="11630" width="16" height="16">
    <path
        d="M511.8976 786.0224L576.4096 716.8H785.066667V238.933333H238.933333v477.866667h211.456l61.508267 69.2224zM204.8 170.666667h614.4a34.133333 34.133333 0 0 1 34.133333 34.133333v546.133333a34.133333 34.133333 0 0 1-34.133333 34.133334h-213.128533l-95.368534 102.4-90.999466-102.4H204.8a34.133333 34.133333 0 0 1-34.133333-34.133334V204.8a34.133333 34.133333 0 0 1 34.133333-34.133333z"
        p-id="11631" fill="#ffffff"></path>
    <path
        d="M700.6208 506.333867C668.740267 579.584 594.875733 628.053333 512 628.053333c-82.807467 0-156.672-48.366933-188.586667-121.5488l62.600534-27.306666c21.060267 48.3328 70.314667 80.5888 125.986133 80.5888 55.7056 0 104.994133-32.324267 126.020267-80.657067l62.600533 27.2384z"
        p-id="11632" fill="#ffffff"></path>
</svg>
