<svg t="1562232119286" class="icon" viewBox="0 0 1024 1024" version="1.1" xmlns="http://www.w3.org/2000/svg" p-id="7141"
     width="16" height="16">
    <path
        d="M275.165216 984.411254l-220.453257-128.313793-0.682855-255.262877 220.453257 128.313794 0.682855 255.262876z"
        p-id="7142"></path>
    <path
        d="M275.165216 1023.99786a40.951317 40.951317 0 0 1-19.792803-5.460842L34.918156 887.492804a38.221896 38.221896 0 0 1-20.475658-30.713488v-255.945731a40.268462 40.268462 0 0 1 19.792803-34.124765 40.951317 40.951317 0 0 1 39.586606 0l220.454257 128.312794a40.268462 40.268462 0 0 1 19.792804 34.126764v255.262876a38.903751 38.903751 0 0 1-19.792804 34.125764 40.951317 40.951317 0 0 1-19.110948 5.460842zM93.614711 833.574236l141.964899 82.58449V750.988747L93.614711 669.768968z"
        p-id="7143"></path>
    <path
        d="M274.483361 768.734984a40.951317 40.951317 0 0 1-19.793803-5.460842l-220.453257-128.312794a38.903751 38.903751 0 0 1-19.793803-34.126764 40.268462 40.268462 0 0 1 19.792803-34.125764L256.055268 438.393027a40.951317 40.951317 0 0 1 39.585607 0L516.778987 566.70882a41.634172 41.634172 0 0 1 19.110948 34.125764 39.586606 39.586606 0 0 1-19.110948 34.125765L294.276164 763.274142a40.951317 40.951317 0 0 1-19.792803 5.460842zM132.518462 600.834584l141.964899 81.902634 144.011465-81.902634-142.646754-82.585489z"
        p-id="7144"></path>
    <path
        d="M275.165216 1023.99786a40.951317 40.951317 0 0 1-19.792803-5.460842 39.586606 39.586606 0 0 1-19.110948-34.125764V729.148378a40.268462 40.268462 0 0 1 19.793803-34.125765l221.136113-128.313793a39.586606 39.586606 0 0 1 38.903751 0 40.268462 40.268462 0 0 1 19.793803 34.125764v255.262877a36.856185 36.856185 0 0 1-19.110948 34.125764l-221.818968 128.313793a40.951317 40.951317 0 0 1-19.793803 5.460842z m38.903752-273.009113v165.169979l143.329609-83.267345v-163.805268z"
        p-id="7145"></path>
    <path
        d="M747.470073 984.411254L527.015816 856.097461l-0.682855-255.262877 220.454257 128.313794 0.682855 255.262876z"
        p-id="7146"></path>
    <path
        d="M748.152928 1023.99786a37.539041 37.539041 0 0 1-19.793803-5.460842L507.223013 887.492804a38.221896 38.221896 0 0 1-19.793803-33.442909v-253.21631a40.268462 40.268462 0 0 1 19.793803-34.124765 40.951317 40.951317 0 0 1 39.585606 0l218.406691 128.312794a40.268462 40.268462 0 0 1 19.793804 34.126764v255.262876a38.903751 38.903751 0 0 1-19.793804 34.125764 40.951317 40.951317 0 0 1-17.062382 5.460842z m-181.551505-190.423624l141.964899 82.58449V750.988747l-142.646755-81.219779z"
        p-id="7147"></path>
    <path
        d="M746.787218 768.734984a40.951317 40.951317 0 0 1-19.792804-5.460842L506.541157 634.961348a38.903751 38.903751 0 0 1-19.792803-34.126764 40.268462 40.268462 0 0 1 19.792803-34.125764l222.502823-128.314793a40.951317 40.951317 0 0 1 39.585607 0l220.453257 128.314793a40.268462 40.268462 0 0 1 19.793803 34.125764 38.903751 38.903751 0 0 1-19.792804 34.125765L765.21531 763.274142a40.951317 40.951317 0 0 1-18.428092 5.460842zM604.823319 600.834584l142.646754 81.902634 143.32961-83.267344-142.646755-81.220779z"
        p-id="7148"></path>
    <path
        d="M748.152928 1023.99786a40.951317 40.951317 0 0 1-19.793803-5.460842 38.903751 38.903751 0 0 1-19.792803-34.125764V729.148378a40.268462 40.268462 0 0 1 19.792803-34.125765L949.497237 566.70882a40.951317 40.951317 0 0 1 39.586606 0 40.268462 40.268462 0 0 1 19.792804 34.125764v255.262877a38.903751 38.903751 0 0 1-19.792804 34.125764l-223.867533 128.313793a40.951317 40.951317 0 0 1-17.062382 5.460842z m38.220896-273.009113v165.169979l143.32961-83.267345v-163.805268zM511.318145 551.693004L290.863888 423.37921l-0.682855-255.262876 220.454256 128.312794 0.682856 255.263876z"
        p-id="7149"></path>
    <path
        d="M511.318145 590.596755a40.268462 40.268462 0 0 1-19.110948-4.777987l-221.137112-128.312794a40.268462 40.268462 0 0 1-19.792804-34.126764V168.116334a38.903751 38.903751 0 0 1 19.110948-31.396343 37.539041 37.539041 0 0 1 39.585607 0l220.454257 125.583372a38.221896 38.221896 0 0 1 19.793803 33.443909v255.945732a38.221896 38.221896 0 0 1-39.586607 38.903751zM330.448495 400.173131l141.282043 82.585489v-163.805268L329.768639 236.367863z"
        p-id="7150"></path>
    <path
        d="M510.635289 335.333879a40.268462 40.268462 0 0 1-18.428092-4.777987L270.388229 204.972519a40.268462 40.268462 0 0 1-19.793803-34.126764 38.903751 38.903751 0 0 1 19.793803-34.125764L492.207197 5.675777a36.17333 36.17333 0 0 1 38.903751 0l221.818967 131.044214a38.903751 38.903751 0 0 1 19.793803 34.125764A40.268462 40.268462 0 0 1 752.928916 204.972519L530.428093 330.555892a40.268462 40.268462 0 0 1-19.792804 4.777987zM368.67139 168.116334l141.963899 82.58449 144.011465-82.58449L512 84.84799z"
        p-id="7151"></path>
    <path
        d="M511.318145 590.596755a36.17333 36.17333 0 0 1-19.110948-4.777987 40.268462 40.268462 0 0 1-19.792804-34.125764V296.430128a39.586606 39.586606 0 0 1 19.792804-34.125765l221.137112-125.583372a37.539041 37.539041 0 0 1 39.585606 0 41.634172 41.634172 0 0 1 19.793803 34.124764v252.533455a40.268462 40.268462 0 0 1-19.793803 34.125765L531.110948 585.818768a40.268462 40.268462 0 0 1-19.792803 4.777987zM550.221896 317.588641v165.851835l146.741886-83.267345V235.686007z"
        p-id="7152"></path>
</svg>
