<svg t="1597070604573" class="icon" viewBox="0 0 1025 1024" version="1.1" xmlns="http://www.w3.org/2000/svg" p-id="2794"
     width="16" height="16">
    <path
        d="M864.003508 959.788549l-704.004989 0c-88.249043 0-159.998529-71.78121-159.998529-160.06607l0-448.178448c0-17.69279 14.30753-32.014647 31.995203-32.014647s31.999296 14.321857 31.999296 32.014647l0 448.178448c0 52.959659 43.067907 96.042917 96.004029 96.042917l704.004989 0c52.938169 0 96.006076-43.083258 96.006076-96.042917l0-448.178448c0-17.69279 14.309577-32.014647 31.99725-32.014647 17.684603 0 31.99418 14.321857 31.99418 32.014647l0 448.178448C1023.99999 888.008363 952.256645 959.788549 864.003508 959.788549z"
        p-id="2795" fill="currentColor"></path>
    <path
        d="M512.00306 613.14639l-113.499311-113.544339c29.497193-16.442249 49.498672-47.897121 49.498672-84.033843L448.002421 255.503161l128.003326 0 0 160.065047c0 36.137745 19.997386 67.591593 49.498672 84.033843L512.00306 613.14639M512.00306 690.367756c8.183772 0 16.378801-3.066996 22.625362-9.318673l210.750811-210.831656c12.435813-12.442977 8.246197-22.633549-9.374958-22.633549l-64.00678 0c-17.618085 0-31.99725-14.380188-31.99725-32.01567L640.000246 223.491584c0-17.634458-14.368932-32.013623-31.999296-32.013623l-192.002942 0c-17.620131 0-31.999296 14.379165-31.999296 32.013623l0 192.0756c0 17.635482-14.377118 32.01567-31.999296 32.01567l-64.00371 0c-17.619108 0-21.811795 10.190572-9.369841 22.633549l210.748764 210.831656C495.629376 687.300761 503.813148 690.367756 512.00306 690.367756L512.00306 690.367756z"
        p-id="2796" fill="currentColor"></path>
    <path
        d="M384.000758 95.440161c0-17.635482 14.314694-32.013623 31.999296-32.013623 17.69279 0 32.002367 14.378142 32.002367 32.013623 0 17.758284-14.309577 32.010553-32.002367 32.010553C398.315452 127.451737 384.000758 113.198445 384.000758 95.440161z"
        p-id="2797" fill="currentColor"></path>
    <path
        d="M576.005747 95.440161c0-17.635482 14.315717-32.013623 31.99725-32.013623 17.689719 0 31.999296 14.378142 31.999296 32.013623 0 17.758284-14.308554 32.010553-31.999296 32.010553C590.321464 127.451737 576.005747 113.198445 576.005747 95.440161z"
        p-id="2798" fill="currentColor"></path>
    <path d="M415.999031 63.426537l192.002942 0 0 64.024177-192.002942 0 0-64.024177Z" p-id="2799"
          fill="currentColor"></path>
</svg>
