<svg t="1562233785927" class="icon" viewBox="0 0 1024 1024" version="1.1" xmlns="http://www.w3.org/2000/svg" p-id="9270"
     width="16" height="16">
    <path
        d="M511.997 62c-248.526 0-449.997 201.474-449.997 450.003s201.472 449.997 449.997 449.997c248.53 0 450.003-201.47 450.003-449.997s-201.472-450.003-450.003-450.003v0zM507.127 788.909c-18.601 10.393-33.815 15.591-45.616 15.591-10.343 0-18.538-3.182-24.588-9.527-6.052-6.349-9.077-15.158-9.077-26.417 0-36.081 22.144-124.277 66.437-264.578 2.071-6.642 3.105-12.563 3.105-17.754 0-5.769-2.66-8.66-7.974-8.66-5.911 0-12.621 2.315-20.147 6.927-7.533 4.621-24.3 19.345-50.274 44.172l-19.492-14.724c29.492-31.751 56.405-54.349 80.732-67.771 24.337-13.422 45.049-20.135 62.153-20.135 9.443 0 16.668 2.022 21.681 6.058 5.008 4.047 7.522 9.527 7.522 16.457 0 8.375-9.569 43.884-28.718 106.529-31.209 102.479-46.816 164.266-46.816 185.335 0 4.043 1.028 7.436 3.101 10.175 2.063 2.745 4.276 4.108 6.644 4.108 9.447 0 33.662-17.892 72.637-53.693l17.275 16.455c-40.463 37.239-69.983 61.059-88.586 71.453v0zM610.992 307.169c-9.008 9.678-19.119 14.503-30.34 14.503-8.857 0-16.24-3.031-22.147-9.094-5.906-6.057-8.857-13.995-8.857-23.817 0-12.987 4.274-24.032 12.844-33.127 8.558-9.090 18.75-13.634 30.566-13.634 9.143 0 16.677 2.961 22.582 8.873 5.906 5.924 8.857 13.5 8.857 22.734 0.004 12.705-4.499 23.887-13.506 33.563v0zM610.992 307.169z"
        p-id="9271"></path>
</svg>
