<?xml version="1.0" standalone="no"?><!DOCTYPE svg PUBLIC "-//W3C//DTD SVG 1.1//EN"
    "http://www.w3.org/Graphics/SVG/1.1/DTD/svg11.dtd">
<svg t="1597645922207" class="icon" viewBox="0 0 1024 1024" version="1.1" xmlns="http://www.w3.org/2000/svg" p-id="4456"
     width="200" height="200">
    <defs>
        <style type="text/css"></style>
    </defs>
    <path
        d="M266.798 1024c-67.571324 0-134.630743-25.595198-185.82114-76.785595l-4.095232-4.095232c-49.142781-49.142781-76.785595-115.178393-76.785595-185.82114 0-70.642747 27.13091-136.678359 76.785595-186.333044l93.166522-87.023674c16.380927-15.357119 41.464221-14.333311 56.82134 2.047616 15.357119 16.380927 14.333311 41.464221-2.047615 56.82134l-92.142714 86.511771c-33.273758 33.273758-52.214205 79.345115-52.214205 128.487895 0 49.142781 18.940447 94.702234 53.238013 128.9998l4.095231 4.095232c71.154651 71.154651 186.844948 71.154651 258.511503 0l200.666355-200.666355c73.202267-73.202267 76.273691-184.285428 7.166656-253.392464l-3.583328-3.583328c-5.11904-5.11904-21.499967-17.916639-36.857085-22.01187-21.499967-6.142848-33.785662-28.154718-27.642815-49.654685 6.142848-21.499967 28.154718-33.785662 49.654685-27.642814 32.24995 9.214271 60.404668 31.226142 71.666556 42.488029l3.583327 3.583328c100.845081 100.845081 97.261754 262.094831-7.166655 367.035144L453.131044 947.214405c-51.702301 51.190397-118.76172 76.785595-186.333044 76.785595m126.952184-378.808935c-10.238079 0-20.476159-4.095232-28.154719-11.773792-101.868889-101.868889-99.821274-251.344848 4.607136-355.773257L570.868956 76.977661c102.380793-102.380793 269.261487-102.892697 372.154184 0l3.583328 4.095232c49.654685 49.654685 76.785595 115.690297 76.785595 185.82114 0 70.642747-27.13091 136.678359-76.785595 185.82114l-94.19033 87.023674c-16.380927 14.845215-41.976125 14.333311-56.82134-2.047615-14.845215-16.380927-13.821407-41.976125 2.559519-56.821341l93.166522-85.999866c33.273758-33.273758 52.214205-79.345115 52.214205-127.975992 0-49.142781-18.940447-94.702234-53.238013-128.9998l-3.583327-3.583327c-71.154651-71.154651-186.844948-71.154651-258.511504 0L427.023942 334.977261c-72.690363 72.690363-74.737979 171.999733-4.607136 241.618672 15.869023 15.869023 15.869023 40.952317 0 56.82134-8.190463 8.190463-18.428543 11.773791-28.666622 11.773792"
        p-id="4457"></path>
</svg>
