<svg t="1594365927826" class="icon" viewBox="0 0 1024 1024" version="1.1" xmlns="http://www.w3.org/2000/svg" p-id="8884"
     width="16" height="16">
    <path d="M201 579l299.1 108.6c8.6 3.1 18.1 2.9 26.6-0.7l303.5-128.4-10.6 260.8-618.6-7.5V579z" fill="#ffffff"
          p-id="8885"></path>
    <path
        d="M409.4 325.8h205.8c10.1 0 18.2-8.1 18.2-18.2s-8.1-18.2-18.2-18.2H409.4c-10.1 0-18.2 8.1-18.2 18.2s8.2 18.2 18.2 18.2zM633.5 406.2c0-10.1-8.1-18.2-18.2-18.2H409.4c-10.1 0-18.2 8.1-18.2 18.2s8.1 18.2 18.2 18.2h205.8c10.1 0 18.3-8.2 18.3-18.2z"
        fill="#ffffff" p-id="8886"></path>
    <path
        d="M790.4 445.2h-47.8V236c0-30.1-24.5-54.6-54.6-54.6H331c-30.1 0-54.6 24.5-54.6 54.6v209.2h-45.5c-30.1 0-54.6 24.5-54.6 54.6v286.6c0 30.1 24.5 54.6 54.6 54.6h559.5c30.1 0 54.6-24.5 54.6-54.6V499.8c0-30.1-24.5-54.6-54.6-54.6z m-47.8 36.4h47.8c6 0 11 3.1 14.3 7.5l-62.1 25.4v-32.9z m-429.8 40.3V236c0-10 8.2-18.2 18.2-18.2h357.1c10 0 18.2 8.2 18.2 18.2V529.4l-187.7 76.7c-4.2 1.8-8.9 1.8-13.1 0.2l-192.6-71v-13.4z m-81.9-40.3h45.5v40.3l-63.1-23.3c-0.1 0-0.2 0-0.4-0.1 0.7-9.3 8.4-16.9 18-16.9z m577.7 304.8c0 10-8.2 18.2-18.2 18.2H230.9c-10 0-18.2-8.2-18.2-18.2V537.2l280.1 103.3c6.1 2.3 12.5 3.4 18.9 3.4 7 0 14-1.4 20.6-4.1l276.3-112.9v259.5z"
        fill="#ffffff" p-id="8887"></path>
</svg>
