<?xml version="1.0" standalone="no"?><!DOCTYPE svg PUBLIC "-//W3C//DTD SVG 1.1//EN"
    "http://www.w3.org/Graphics/SVG/1.1/DTD/svg11.dtd">
<svg t="1597288373755" class="icon" viewBox="0 0 1024 1024" version="1.1" xmlns="http://www.w3.org/2000/svg" p-id="2781"
     width="200" height="200">
    <defs>
        <style type="text/css"></style>
    </defs>
    <path
        d="M933.916444 1024H99.555556C40.931556 1024 0 987.192889 0 934.485333V109.027556C0 57.486222 40.903111 0 99.555556 0H568.888889v85.333333H99.555556c-3.925333 0.540444-14.222222 12.288-14.222223 23.694223v825.457777c0.369778 1.706667 4.892444 4.181333 14.222223 4.181334h834.360888c1.905778 0 3.413333-0.113778 4.551112-0.256a34.986667 34.986667 0 0 0 0.199111-3.925334V512h85.333333v422.485333C1024 988.871111 988.643556 1024 933.916444 1024z"
        p-id="2782"></path>
    <path
        d="M682.666667 682.666667H341.333333V341.333333a42.666667 42.666667 0 1 1 85.333334 0v256h256a42.666667 42.666667 0 1 1 0 85.333334z"
        p-id="2783"></path>
    <path
        d="M407.694222 663.694222a42.666667 42.666667 0 0 1-30.179555-72.817778L933.376 35.015111a42.666667 42.666667 0 1 1 60.330667 60.330667L437.873778 651.207111a42.524444 42.524444 0 0 1-30.179556 12.487111z"
        p-id="2784"></path>
</svg>
