<?xml version="1.0" standalone="no"?><!DOCTYPE svg PUBLIC "-//W3C//DTD SVG 1.1//EN"
    "http://www.w3.org/Graphics/SVG/1.1/DTD/svg11.dtd">
<svg t="1598855848044" class="icon" viewBox="0 0 1024 1024" version="1.1" xmlns="http://www.w3.org/2000/svg" p-id="7382"
     width="200" height="200">
    <defs>
        <style type="text/css"></style>
    </defs>
    <path
        d="M679.9 889.7c-103.7 0-195.9-94.4-195.9-195.9V330c0-75.5-59.3-148.5-137.1-148.5s-142.8 73-142.8 148.5v363.8h-56V330c0-101.5 95-195.7 198.8-195.7S540 228.5 540 330v363.8c0 75.5 62.1 139.9 139.9 139.9s139.9-64.4 139.9-139.9V330h56v363.8c0 101.5-92.1 195.9-195.9 195.9z m0 0"
        p-id="7383"></path>
    <path
        d="M176.2 889.5C113.4 889.5 64 840.3 64 777.7c0-62.7 49.4-111.9 112.2-111.9 62.8 0 112.2 49.2 112.2 111.9 0 62.6-49.4 111.8-112.2 111.8z m0-167.8c-31.9 0-56.2 24.2-56.2 55.9s24.4 55.9 56.2 55.9c31.9 0 56.2-24.2 56.2-55.9s-24.3-55.9-56.2-55.9z m671.6-363.6c-62.8 0-112.2-49.2-112.2-111.9S785 134.3 847.8 134.3c62.8 0 112.2 49.2 112.2 111.9 0 62.6-49.4 111.9-112.2 111.9z m0-167.9c-31.9 0-56.2 24.2-56.2 55.9S816 302 847.8 302c31.9 0 56.2-24.2 56.2-55.9s-24.3-55.9-56.2-55.9z"
        p-id="7384"></path>
</svg>
