<?xml version="1.0" encoding="utf-8"?>
<!-- Generator: Adobe Illustrator 21.0.0, SVG Export Plug-In . SVG Version: 6.00 Build 0)  -->
<svg version="1.1" id="图层_1" xmlns="http://www.w3.org/2000/svg" x="0px"
     y="0px"
     viewBox="0 0 16 16" style="enable-background:new 0 0 16 16;" xml:space="preserve">
<style type="text/css">
	.st0 {
        fill: #0064AA;
    }

    .st1 {
        fill: #0FCDF0;
    }
</style>
    <g>
	<path class="st0" d="M6.5,7h-3C1.6,7,0,5.4,0,3.5S1.6,0,3.5,0S7,1.6,7,3.5v3C7,6.8,6.8,7,6.5,7z M3.5,1C2.1,1,1,2.1,1,3.5
		S2.1,6,3.5,6H6V3.5C6,2.1,4.9,1,3.5,1z"/>
</g>
    <path class="st1" d="M12.5,0C10.6,0,9,1.6,9,3.5v3C9,6.8,9.2,7,9.5,7h3C14.4,7,16,5.4,16,3.5S14.4,0,12.5,0z"/>
    <g>
	<path class="st0" d="M3.5,16C1.6,16,0,14.4,0,12.5S1.6,9,3.5,9h3C6.8,9,7,9.2,7,9.5v3C7,14.4,5.4,16,3.5,16z M3.5,10
		C2.1,10,1,11.1,1,12.5S2.1,15,3.5,15S6,13.9,6,12.5V10H3.5z"/>
</g>
    <g>
	<path class="st0" d="M12.5,16C10.6,16,9,14.4,9,12.5v-3C9,9.2,9.2,9,9.5,9h3c1.9,0,3.5,1.6,3.5,3.5S14.4,16,12.5,16z M10,10v2.5
		c0,1.4,1.1,2.5,2.5,2.5s2.5-1.1,2.5-2.5S13.9,10,12.5,10H10z"/>
</g>
</svg>
