<svg t="1591165796001" class="icon" viewBox="0 0 1024 1024" version="1.1" xmlns="http://www.w3.org/2000/svg" p-id="1170"
     width="48" height="48">
    <path d="M512 577.37a40 40 0 0 0-40 40v126a40 40 0 0 0 80 0v-126a40 40 0 0 0-40-40z" fill="#999999"
          p-id="1171"></path>
    <path
        d="M831.85 417.37H386.17a0.16 0.16 0 0 1-0.15-0.16v-146-1.19a126 126 0 0 1 252 0v15.82a40 40 0 1 0 80 0V272c0-119.82-98-214.35-217.62-207.7C392 70.36 306 160.14 306 270v147.2a0.16 0.16 0 0 1-0.16 0.16H192.15A64.15 64.15 0 0 0 128 481.52v414.32A64.15 64.15 0 0 0 192.15 960h639.7A64.15 64.15 0 0 0 896 895.84V481.52a64.15 64.15 0 0 0-64.15-64.15zM816 879.84a0.16 0.16 0 0 1-0.15 0.16h-607.7a0.16 0.16 0 0 1-0.15-0.16V497.52a0.15 0.15 0 0 1 0.15-0.15h607.7a0.15 0.15 0 0 1 0.15 0.15z"
        fill="#999999" p-id="1172"></path>
</svg>
