<svg t="1594610190970" class="icon" viewBox="0 0 1024 1024" version="1.1" xmlns="http://www.w3.org/2000/svg" p-id="1725"
     width="16" height="16">
    <path
        d="M814.854912 699.376415c51.369172 20.244274 82.039177 45.714805 82.039177 73.406031 0 65.783199-173.040279 119.147018-386.494956 119.147018-213.403712 0-386.444591-53.363819-386.444591-119.147018 0-27.691225 30.632231-53.161756 82.014194-73.406031-12.293065 8.570189-19.058079 17.783942-19.058079 27.388431 0 44.70549 144.843996 80.903947 323.488275 80.903947 178.695444 0 323.513858-36.198457 323.513858-80.903947C833.912991 717.160157 827.185552 707.946604 814.854912 699.376415L814.854912 699.376415zM320.673168 157.838977c38.798095 0 70.25117 31.452675 70.25117 70.238179 0 38.798694-31.453075 70.264161-70.25117 70.264161-38.798694 0-70.25117-31.465666-70.25117-70.264161C250.421998 189.291452 281.874673 157.838977 320.673168 157.838977L320.673168 157.838977zM699.090601 157.838977c-38.773711 0-70.226187 31.452675-70.226187 70.238179 0 38.798694 31.452475 70.264161 70.226187 70.264161 38.823678 0 70.276153-31.465666 70.276153-70.264161C769.366753 189.291452 737.914278 157.838977 699.090601 157.838977L699.090601 157.838977zM629.684858 561.864848l0 185.170055 49.514229 0 19.777591-129.799596 19.828556 129.799596 53.906252 0L772.711486 541.960543c21.368512-11.157435 36.059352-33.522272 36.059352-59.219649l0-104.909671c0-36.690524-29.975477-66.704574-66.691583-66.704574l-82.06516 0c-5.288414 0-10.475897 0.618581-15.423543 1.804776 10.993546 16.79961 17.380216 36.830029 17.380216 58.311265l0 114.186781C661.970968 514.648061 649.967106 542.049482 629.684858 561.864848L629.684858 561.864848zM511.585329 131.850997c42.207184 0 76.435976 34.229193 76.435976 76.435577 0 42.219175-34.228793 76.448368-76.435976 76.448368-42.231167 0-76.447968-34.229193-76.447968-76.448368C435.137361 166.08019 469.353962 131.850997 511.585329 131.850997L511.585329 131.850997zM587.112921 550.012883c23.425118-12.040836 39.606147-36.526035 39.606147-64.583412l0-114.186781c0-39.908742-32.664853-72.573595-72.573595-72.573595l-89.334631 0c-39.934924 0-72.586586 32.664853-72.586586 72.573595l0 114.186781c0 27.931462 15.991558 52.302939 39.278369 64.432715l0 223.160097 58.652034 0 21.556785-141.246835 21.5334 141.246835 53.868277 0L587.113121 550.012883 587.112921 550.012883zM390.090902 561.864848c-20.269657-19.815565-32.260128-47.216787-32.260128-76.435577l0-114.186781c0-21.481436 6.361087-41.511655 17.366625-58.311265-4.947046-1.186196-10.122137-1.804776-15.422943-1.804776l-82.06516 0c-36.715907 0-66.692183 30.01405-66.692183 66.704574l0 104.909671c0 25.697577 14.691439 48.062214 36.072543 59.219649l0 205.07436 53.89386 0 19.828556-129.799596 19.777591 129.799596 49.501238 0L390.090902 561.864848z"
        p-id="1726" fill="#515151"></path>
</svg>
