<?xml version="1.0" standalone="no"?><!DOCTYPE svg PUBLIC "-//W3C//DTD SVG 1.1//EN"
    "http://www.w3.org/Graphics/SVG/1.1/DTD/svg11.dtd">
<svg t="1598855897785" class="icon" viewBox="0 0 1024 1024" version="1.1" xmlns="http://www.w3.org/2000/svg" p-id="9633"
     width="200" height="200">
    <defs>
        <style type="text/css"></style>
    </defs>
    <path
        d="M927.3 225.8v-123h-123v36.5H223.2v-36.5h-123v123h36.7v580.7h-36.7v123h123V893h581.1v36.5h123v-123h-36.7V225.8h36.7z m-704.1 0v-36.5h204.2L186.9 429.7v-204h36.3z m-36.3 274.7L498 189.3h306.3v0.9L188 806.5h-1.1v-306z m617.4 306V843H600.2l240.5-240.5v204h-36.4z m36.3-274.6L529.4 843H223.2v-0.9l616.3-616.3h1.1v306.1z"
        p-id="9634"></path>
</svg>
