<?xml version="1.0" standalone="no"?><!DOCTYPE svg PUBLIC "-//W3C//DTD SVG 1.1//EN"
    "http://www.w3.org/Graphics/SVG/1.1/DTD/svg11.dtd">
<svg t="1598855789113" class="icon" viewBox="0 0 1024 1024" version="1.1" xmlns="http://www.w3.org/2000/svg" p-id="5981"
     width="200" height="200">
    <defs>
        <style type="text/css"></style>
    </defs>
    <path
        d="M514 247.7c-91.9 0-166.7 74.8-166.7 166.7S422.1 581.1 514 581.1c91.9 0 166.7-74.8 166.7-166.7S606 247.7 514 247.7z m0 247.4c-44.5 0-80.7-36.2-80.7-80.7s36.2-80.7 80.7-80.7 80.7 36.2 80.7 80.7-36.2 80.7-80.7 80.7z"
        p-id="5982"></path>
    <path
        d="M840.3 275.9c-18-41.2-43.6-78.2-76.3-110-32.6-31.7-70.5-56.5-112.8-73.9-43.7-17.9-90-27-137.7-27-47.7 0-94.1 9.1-137.7 27-42.2 17.4-80.2 42.2-112.8 73.9-32.7 31.7-58.4 68.8-76.3 110-18.6 42.8-28.1 88.3-28.1 135.1 0 70 41.6 166.4 127.1 294.5 64.6 96.8 137.2 185.5 174.7 229.8 13.3 15.7 32.7 24.7 53.1 24.7s39.8-9 53.1-24.7c37.5-44.3 110.1-133 174.7-229.8C826.9 577.4 868.4 481.1 868.4 411c0-46.8-9.4-92.3-28.1-135.1zM669.8 657.8c-55.7 83.5-117.8 161-156.3 207.1-38.5-46.1-100.6-123.7-156.3-207.1C259.3 511 244.6 440.2 244.6 411c0-143.4 120.6-260 268.9-260 148.3 0 268.9 116.6 268.9 260 0 29.2-14.6 100-112.6 246.8z"
        p-id="5983"></path>
</svg>
