<svg t="1594365537845" class="icon" viewBox="0 0 1024 1024" version="1.1" xmlns="http://www.w3.org/2000/svg" p-id="4328"
     width="16" height="16">
    <path
        d="M994.88768 204.87168l-82.25792-82.37056c-9.6768-9.6768-26.89024-9.6768-36.5568 0L702.8224 295.51616l-603.55584 0.64512c-26.99264 0-51.65056 28.59008-51.65056 51.65056v490.58816c0 27.94496 27.63776 51.65056 51.65056 51.65056h722.91328c24.02304 0 51.6608-25.61024 51.6608-51.65056l0.31744-475.392 120.7296-121.47712c10.09664-10.30144 10.19904-26.78784 0-36.6592zM822.49728 838.18496H98.94912V347.06432h552.12032L507.58656 490.76224c-3.18464 3.18464-5.632 7.33184-6.69696 12.01152l-22.528 76.73856H253.05088a25.84576 25.84576 0 0 0-25.82528 25.82528 25.79456 25.79456 0 0 0 25.82528 25.82528h245.504c1.26976 0 50.91328 1.16736 84.80768-7.1168 31.77472-7.86432 36.87424-7.96672 43.15136-14.44864l195.97312-194.9184v423.50592zM595.05664 568.02304l-60.99968 15.09376 15.09376-60.89728 345.088-344.8832 45.70112 45.70112-344.8832 344.9856z m0 0"
        p-id="4329" fill="#ffffff"></path>
</svg>
