<svg class="icon" viewBox="0 0 1024 1024" version="1.1"
     xmlns="http://www.w3.org/2000/svg"
     width="32" height="32">
    <path
        d="M128 533.333333a362.709333 362.709333 0 1 0 725.418667 0A362.709333 362.709333 0 0 0 128 533.333333z m558.634667-214.741333c-4.053333 2.816-6.698667 6.485333-11.818667 7.893333-4.565333 1.28-9.472 0.128-13.909333 1.706667-16.384 5.546667-13.781333 40.448-35.328 35.157333-10.112-2.432-17.237333-14.378667-22.272-22.186666-4.522667-6.826667-12.672-12.544-7.168-21.034667-2.474667 0.554667-5.12-0.128-7.637334 0.341333 3.456-7.594667 14.976-6.954667 16.896-10.794666 4.821333-9.685333-13.141333-10.666667-18.218666-12.032 6.144-6.528 14.421333 4.053333 15.274666 0.725333 0.853333-3.328-21.632-6.357333-25.173333-7.253333-1.237333-0.298667-3.84-14.08-8.533333-15.658667-1.066667 4.266667-7.722667 10.453333-12.885334 8.618667-4.778667-1.706667-2.816-9.642667-10.069333-8.917334-5.205333 12.117333 10.922667 8.533333 12.458667 15.957334 1.706667 8.405333-6.101333 4.864-9.173334 4.693333-0.682667 0-6.229333-5.802667-6.528-1.408-0.426667 5.205333 8.874667 3.157333 9.557334 8.405333-10.837333 0.426667-16.341333-3.413333-25.173334-9.301333-10.24-6.826667-15.530667-6.229333-28.16-6.229333 3.797333-1.536 9.002667-2.645333 12.245334-5.12 1.706667-1.408 8.618667-8.106667 9.088-9.642667 1.92-6.442667-0.042667-5.930667-6.314667-10.197333-5.418667-3.712-12.16-10.496-18.773333-11.861334-24.149333-4.778667-7.509333 21.845333-25.770667 25.514667-4.266667-0.170667-12.202667-1.194667-14.933333 1.066667-1.92 1.536-2.090667 7.850667-4.266667 10.197333-3.797333 4.053333-9.514667 4.821333-14.122667 7.808-4.394667 2.901333-14.250667 10.24-16.853333 15.274667-9.728 18.517333 21.717333 24.192 33.621333 29.568 5.376 2.517333 21.162667 5.802667 24.064 9.898666 4.010667 5.461333-3.370667 10.581333 4.864 14.464 2.602667 1.152 7.978667 1.408 10.24-1.066666 3.712-4.138667-1.450667-5.12-2.346666-9.856-1.621333-9.216 1.152-5.546667 5.76-8.96 9.386667-6.954667 7.253333-7.381333 3.882666-18.474667-1.621333-5.205333-7.509333-19.626667-2.304-23.381333 6.826667-4.992 21.418667 2.688 26.624 3.328 5.973333 0.768 9.514667 9.173333 12.8 12.586666 2.218667 2.304 6.144 7.168 9.984 6.656 6.144-0.853333 3.584-6.144 7.125334-8.661333 9.472-6.570667 11.946667 2.389333 15.744 11.349333 3.584 8.405333 6.912 11.477333 13.312 16.896 2.944 2.56 15.829333 11.477333 14.634666 16.981334-0.853333 3.712-8.106667 11.605333-6.186666 9.813333 6.698667-6.144 7.722667-1.92 11.861333 2.816 1.066667 1.194667 11.306667 15.957333 7.68 15.232-11.946667-2.389333-23.338667-2.048-33.152 4.437333-5.717333 3.754667-11.093333 8.832-17.92 11.306667-1.578667 0.597333-13.653333 1.792-12.245333-0.298667 2.133333-2.986667 9.216-4.992 12.032-8.234666-7.808-3.2-14.293333 3.925333-20.48 8.064-6.528 3.072-8.021333 8.789333-13.568 13.952-2.432 2.133333-7.04 2.56-9.386667 5.418666-2.304 2.773333-2.602667 7.253333-4.821333 9.898667-1.536 1.834667-5.418667 0.682667-7.04 3.541333-2.133333 3.669333 1.92 7.125333 0.981333 9.728-1.578667 4.864-10.752 8.874667-14.250667 12.373334l1.408-1.408c-3.541333 3.754667-7.978667 6.442667-10.752 10.709333 1.28 6.058667 5.248 20.48 4.096 23.850667-3.669333 10.88-10.752-5.973333-13.653333-10.325334-9.941333-14.976-29.824-4.992-43.349333-3.754666-17.365333 1.621333-34.389333 24.149333-23.594667 42.368 5.12 8.789333 13.696 12.202667 23.594667 10.154666 8.832-1.792 11.52-14.08 19.797333-14.336 15.36-0.426667 0.426667 14.933333-0.938667 20.565334-1.194667 5.205333 1.92 5.717333 7.253334 7.04 3.968 0.853333 9.6-1.706667 13.013333 0.554666 2.176 1.408 2.090667 9.216 5.034667 6.784-5.845333 4.864-4.48 16.426667 1.536 20.565334 6.741333 4.650667 14.506667 0.341333 21.546666 2.133333 13.226667 3.328 6.826667-1.024 18.474667-8.021333 7.808-4.693333 9.130667 0.896 14.464 0.896 3.584 0 5.888-5.205333 12.032-3.669334 4.906667 1.28 6.869333 5.034667 12.8 5.973334 2.389333 0.298667 4.906667-0.938667 7.210667-0.682667 10.922667 1.152 19.370667 8.192 27.946666 14.506667 7.125333 5.205333 11.861333 4.138667 20.138667 6.528 6.058667 1.706667 17.237333 10.538667 16.64 18.261333-0.085333 1.322667 2.389333 4.138667 7.296 11.349333 2.133333-7.509333 10.154667 2.858667 17.706667 5.973334 6.485333 2.56 14.378667 2.730667 21.248 4.352 5.845333 1.408 18.688 5.333333 23.04 10.112 5.205333 5.76 1.621333 15.061333-2.261334 20.778666-5.034667 7.509333-12.629333 10.325333-15.744 19.2-2.474667 6.954667-0.64 14.037333-2.090666 21.76-1.877333 10.453333-3.413333 6.784-10.154667 13.226667-5.632 5.333333-0.085333 4.394667-7.808 7.850667-7.765333 3.413333-14.592 2.432-19.968 10.88-1.749333 1.536-2.858667 8.064-3.968 10.197333-2.688 5.461333-6.4 8.874667-10.666667 13.397333-1.706667 1.706667-16.810667 22.314667-17.621333 20.693334-1.152-2.133333-13.056 2.133333-13.653333-0.896 0.469333 2.56-0.128 1.706667 2.858666 3.157333-2.730667 16.981333-9.898667 19.498667-26.538666 19.669333 1.408 8.106667-6.058667 6.570667-9.472 10.922667-2.005333 2.56-3.072 9.728-4.394667 13.056-0.853333 2.090667-7.424 10.410667-7.424 12.074667 0 1.493333 2.218667 3.754667 4.266667 5.845333a305.664 305.664 0 0 1-35.84 4.949333c2.261333-2.858667 2.773333-5.333333-4.48-5.674666 2.005333-5.290667 6.570667-8.32 8.448-13.397334 0.938667-2.432 0.213333-3.413333 0.938666-5.76 2.688-8.234667 1.493333-5.12 0-11.52-3.456-15.018667 1.28-19.114667 5.333334-32.853333 4.224-14.08 3.84-32.384 6.485333-47.530667 1.28-7.253333 3.328-22.4 0.853333-29.312-2.816-7.68-15.36-13.824-21.077333-19.029333-8.106667-7.424-12.416-15.402667-18.474667-24.533333-3.029333-4.650667-6.485333-9.216-8.96-14.250667-5.077333-10.794667 0-4.352 0.896-10.666667 0.810667-6.186667-0.682667-11.733333 1.706667-18.176 2.688-7.125333 9.386667-11.605333 11.648-18.773333 1.962667-6.4 0.512-14.464-6.058667-16.64-3.712-1.194667-7.765333 1.578667-11.477333 0.981333-5.12-0.853333-10.922667-4.693333-14.933333-7.722666-5.674667-4.266667-7.808-11.264-13.738667-15.36-5.034667-3.413333-8.618667-1.365333-14.037333-2.901334-5.546667-1.664-9.002667-8.618667-13.568-10.752-6.741333-3.242667-10.581333 1.365333-17.706667 0.426667-6.101333-0.768-15.402667-7.552-21.077333-10.069333-11.562667-5.162667-18.645333-10.88-23.253334-22.613334-3.925333-10.112-9.728-14.805333-16.512-23.168-6.869333-8.533333-6.229333-12.672-16.810666-14.933333-1.28-0.298667-5.674667 7.424-12.501334-3.84-2.602667-4.266667-2.133333-7.04-6.4-11.093333-4.010667-3.84-9.472-5.845333-13.525333-9.472-14.848-13.397333-17.578667-31.274667-15.914667-50.261334 0.597333-6.229333 2.773333-11.221333 1.792-17.152a23.936 23.936 0 0 0-7.338666-12.757333l-4.352-6.741333c-3.328-5.632-5.973333-11.093333-11.306667-15.701334a279.466667 279.466667 0 0 0-18.517333-14.037333 320.042667 320.042667 0 0 1 128.170666-95.872c0.341333 2.56 1.493333 5.12 3.029334 7.509333 4.266667 6.186667 8.192 5.717333 16.298666 7.338667-0.853333 9.429333 19.413333 5.589333 26.453334 8.832-7.722667 4.736-3.2 16 4.352 6.826667 6.272-7.509333-1.493333-12.970667-9.386667-17.365334 8.021333-9.898667 12.885333-10.794667 20.352 0.426667 1.194667-6.912 6.826667-4.138667 12.672-3.669333-2.602667-1.664-5.333333-3.114667-7.893333-2.858667 5.930667-9.472 2.133333-11.648 10.666666-14.762667 6.784-2.389333 26.069333-0.170667 28.458667-6.485333-13.525333 2.602667-29.781333 3.242667-42.026667 9.344-5.290667 2.688-11.52 11.008-16.768 5.632-5.376-5.632 3.84-14.592 8.533334-17.28a297.557333 297.557333 0 0 1 65.152-6.997333c14.677333 0 29.013333 1.066667 43.221333 2.986666-4.949333 2.645333 16.896 6.954667-4.864 6.954667s8.277333 22.058667 13.013333 7.594667c-3.285333-0.554667-6.613333-1.024-9.941333-1.536 6.357333-4.181333 13.226667-7.509333 20.394667-9.898667a317.610667 317.610667 0 0 1 168.448 93.013333c-13.269333 0.384-21.930667 0.384-31.872 7.253334z"
    ></path>
</svg>
