<svg t="1596694147775" class="icon" viewBox="0 0 1024 1024" version="1.1" xmlns="http://www.w3.org/2000/svg" p-id="2222"
     width="32" height="32">
    <path
        d="M881.682 442.346v389.291c0 27.851-22.822 50.649-50.708 50.649h-639.028c-27.896-0.001-50.718-22.801-50.718-50.65v-401.386c0-0.645 0.176-1.24 0.196-1.884v-48.95h-0.196l285.209-207.484c41.334-40.959 108.351-40.959 149.674 0l306.191 207.485v62.931h-0.621zM183.563 820.155l163.349-171.953c9.902-9.894 25.953-9.894 35.856 0 9.902 9.884 9.902 25.925 0 35.809l-140.444 156.548h544.847l-140.445-156.548c-9.923-9.884-9.923-25.925 0-35.809 9.901-9.894 25.943-9.894 35.845 0l157.458 168.787v-359.207l-281.529 235.692c-14.306 14.309-23.401 24.922-43.742 24.922-20.372 0-32.61-10.611-46.946-24.922l-284.249-235.682v362.363zM818.561 400.393l-287.349-183.957c-16.538-16.388-43.339-16.388-59.865 0l-263.216 183.957-4.689-5.736 22.673 27.123h0.324l277.239 235.877c9.51 9.505 9.468 9.496 18.955 0l277.298-235.877 24.942-28.525-6.314 7.139z"
        fill="#2D2D2D" p-id="2223"></path>
</svg>
