<svg t="1595409429253" class="icon" viewBox="0 0 1024 1024" version="1.1" xmlns="http://www.w3.org/2000/svg" p-id="3057"
     width="16" height="16">
    <path
        d="M524.552258 823.824516c104.381935-123.540645 238.492903-313.145806 238.492903-404.314839 0-131.468387-107.024516-238.492903-238.492903-238.492903-131.468387 0-238.492903 107.024516-238.492903 238.492903 0 91.169032 134.110968 280.774194 238.492903 404.314839m0 72.670968S238.492903 578.064516 238.492903 419.509677c0-157.894194 128.165161-286.059355 286.059355-286.059354s286.059355 128.165161 286.059355 286.059354c0 158.554839-286.059355 476.985806-286.059355 476.985807z"
        p-id="3058" fill="#787878"></path>
    <path
        d="M422.812903 531.15871h204.139355c13.212903 0 23.783226-10.570323 23.783226-23.783226s-10.570323-23.783226-23.783226-23.783226H422.812903c-13.212903 0-23.783226 10.570323-23.783226 23.783226s10.570323 23.783226 23.783226 23.783226"
        p-id="3059" fill="#787878"></path>
    <path
        d="M470.379355 626.291613h108.345806c13.212903 0 23.783226-10.570323 23.783226-23.783226s-10.570323-23.783226-23.783226-23.783226H470.379355c-13.212903 0-23.783226 10.570323-23.783226 23.783226s10.570323 23.783226 23.783226 23.783226"
        p-id="3060" fill="#787878"></path>
    <path
        d="M597.883871 441.310968L528.516129 391.762581l-68.046452 50.209032 25.765162-81.259355-69.367742-49.548387H502.090323l25.765161-81.259355 26.425806 81.259355 85.223226-0.660645-68.707097 50.209032 27.086452 80.59871z"
        p-id="3061" fill="#787878"></path>
</svg>
