<?xml version="1.0" standalone="no"?><!DOCTYPE svg PUBLIC "-//W3C//DTD SVG 1.1//EN"
    "http://www.w3.org/Graphics/SVG/1.1/DTD/svg11.dtd">
<svg t="1596448755618" class="icon" viewBox="0 0 1024 1024" version="1.1" xmlns="http://www.w3.org/2000/svg" p-id="7735"
     width="200" height="200">
    <defs>
        <style type="text/css"></style>
    </defs>
    <path
        d="M476.675202 1016.233569L78.051019 839.70244A87.966938 87.966938 0 0 1 25.492693 759.4998V263.181976a88.478869 88.478869 0 0 1 52.558326-80.799894l398.624183-174.910012a86.985735 86.985735 0 0 1 70.561259 0l398.240234 176.488469a88.649513 88.649513 0 0 1 52.942275 81.055859V759.4998a87.796294 87.796294 0 0 1-52.942275 81.055859l-398.240234 176.189842a87.113718 87.113718 0 0 1-35.408612 7.252366h-0.682576a82.079723 82.079723 0 0 1-34.470071-7.764298z m14.078123-976.509799L92.513091 216.212238a53.283562 53.283562 0 0 0-31.739768 48.761499V759.4998a53.283562 53.283562 0 0 0 31.782429 48.761498l398.240234 175.848554a52.77163 52.77163 0 0 0 42.405013 0l398.154913-174.910012a53.070257 53.070257 0 0 0 31.867751-48.718837V263.181976a53.19824 53.19824 0 0 0-31.867751-48.761499L533.158338 39.72377a55.245967 55.245967 0 0 0-42.405013 0z m-158.570857 678.309559a182.375683 182.375683 0 0 1-47.311025-6.740435 119.45074 119.45074 0 0 1-40.911879-20.135982 104.604719 104.604719 0 0 1-40.314624-84.298093h74.870017a44.964671 44.964671 0 0 0 15.869884 35.280629 55.203306 55.203306 0 0 0 17.277696 10.153313 64.716704 64.716704 0 0 0 22.311692 3.583522 67.830956 67.830956 0 0 0 23.634182-3.583522 51.705106 51.705106 0 0 0 18.088255-10.537262 46.244501 46.244501 0 0 0 11.262498-16.637781 51.193174 51.193174 0 0 0 3.92481-21.33049 70.006666 70.006666 0 0 0-4.266097-26.065858 44.495401 44.495401 0 0 0-12.371684-17.661645 47.311025 47.311025 0 0 0-19.410745-9.854686 99.82669 99.82669 0 0 0-25.596587-3.242234h-40.058659v-58.189575h39.888015a55.203306 55.203306 0 0 0 42.021063-14.078123 53.368884 53.368884 0 0 0 13.779497-38.053593 59.72537 59.72537 0 0 0-2.815625-19.794694 39.418744 39.418744 0 0 0-9.556059-15.187308 46.927076 46.927076 0 0 0-15.869884-10.238635 63.692841 63.692841 0 0 0-22.610319-3.540861 73.206239 73.206239 0 0 0-19.794694 2.815625 49.27343 49.27343 0 0 0-15.869884 8.830822 40.485269 40.485269 0 0 0-10.963871 13.395547 36.304493 36.304493 0 0 0-3.92481 17.704306H208.593613a96.669777 96.669777 0 0 1 9.556059-42.660978 95.176643 95.176643 0 0 1 26.535129-32.465005 120.815891 120.815891 0 0 1 39.162778-19.368084A153.579523 153.579523 0 0 1 332.182468 328.623917a184.679376 184.679376 0 0 1 51.961072 6.740434 116.208506 116.208506 0 0 1 40.314625 20.775897 97.437675 97.437675 0 0 1 26.108518 35.280629 107.548327 107.548327 0 0 1 9.470738 46.927077 81.439808 81.439808 0 0 1-15.187309 46.628449 101.191841 101.191841 0 0 1-42.31969 35.280629 96.371151 96.371151 0 0 1 47.609652 35.28063 93.043594 93.043594 0 0 1 15.613918 54.350086 108.230903 108.230903 0 0 1-10.281296 43.727503 99.613385 99.613385 0 0 1-27.942941 35.28063 124.399413 124.399413 0 0 1-42.405013 21.330489 168.510865 168.510865 0 0 1-51.193174 7.84962z m309.420077-5.716571h-116.165844v-380.109319h116.165844A178.536195 178.536195 0 0 1 712.334448 345.688308a156.608452 156.608452 0 0 1 54.478069 37.072391A167.316358 167.316358 0 0 1 801.922503 439.542461a207.119051 207.119051 0 0 1 12.798293 74.144781v17.277696a216.120517 216.120517 0 0 1-12.371684 74.059459 169.620051 169.620051 0 0 1-35.365951 57.208372 161.002533 161.002533 0 0 1-54.776696 37.07239 188.945474 188.945474 0 0 1-68.257566 12.798294z m-0.682575-317.866951l-37.797627 0.298627v253.832822h37.797627a84.554059 84.554059 0 0 0 70.561258-30.758566 138.904146 138.904146 0 0 0 24.018131-87.455006v-17.87495a137.283029 137.283029 0 0 0-24.018131-87.924276 82.84762 82.84762 0 0 0-63.991468-30.203973 108.444207 108.444207 0 0 0-6.56979 0.255966z"
        p-id="7736"></path>
</svg>
