<?xml version="1.0" standalone="no"?><!DOCTYPE svg PUBLIC "-//W3C//DTD SVG 1.1//EN"
    "http://www.w3.org/Graphics/SVG/1.1/DTD/svg11.dtd">
<svg t="1596533116884" class="icon" viewBox="0 0 1024 1024" version="1.1" xmlns="http://www.w3.org/2000/svg" p-id="8393"
     width="200" height="200">
    <defs>
        <style type="text/css"></style>
    </defs>
    <path
        d="M866.176 180.992l-303.36-120.064c-33.024-11.904-69.12-11.904-102.144 0L157.44 180.992c-57.728 19.584-96.512 73.984-96 135.04v387.328c1.408 61.184 39.296 115.456 96.128 138.112L460.8 961.664c33.024 11.904 69.12 11.904 102.144 0l303.36-120.064c57.856-21.248 96.256-76.416 96.128-138.112V316.032c-0.896-60.672-39.168-114.432-96.256-135.04z m30.08 525.44c-0.256 33.024-20.352 62.72-51.072 75.136L538.88 901.632c-8.576 3.456-17.792 5.504-27.008 6.016-9.216-0.512-18.432-2.56-27.008-6.016l-303.36-120.064c-30.592-12.416-50.816-41.984-51.072-75.136v-390.4c0.256-33.024 20.352-62.72 51.072-75.136l300.288-120.064c8.576-3.456 17.792-5.504 27.008-6.016 9.216 0.512 18.432 2.56 27.008 6.016l303.232 120.064c30.592 12.416 50.816 41.984 51.072 75.136l6.144 390.4z m0 0"
        p-id="8394"></path>
    <path
        d="M318.208 605.824c12.416-15.744 27.648-29.056 45.056-39.04 18.176-13.696 35.2-28.672 51.072-45.056 10.88-12.16 19.072-26.496 24.064-41.984 6.144-15.232 9.216-31.616 8.96-48 1.28-28.544-8.448-56.448-27.008-78.08-20.608-20.352-49.28-30.208-78.08-27.008-34.432-0.64-68.224 9.856-96.128 30.08v66.048c21.248-22.144 50.432-35.072 81.024-36.096 13.312-2.176 26.88 2.176 36.352 11.648 9.472 9.472 13.824 23.04 11.648 36.352 0.64 14.976-3.584 29.696-12.032 41.984-12.672 17.28-27.776 32.384-45.056 45.056-19.2 14.208-36.352 30.848-51.072 49.536-10.752 13.952-19.84 29.056-27.008 45.056-6.144 16.256-9.216 33.664-8.96 51.072v27.008h216.192v-63.104H312.192c-6.016-7.424-3.072-16.384 6.016-25.472z m300.288-273.28h-111.104v363.392h111.104c47.232 1.024 92.928-17.408 126.08-51.072 33.92-36.608 51.2-85.376 48-135.168 0.128-120.064-56.96-177.152-174.08-177.152z m72.064 264.32c-19.84 22.144-48.384 34.176-78.08 33.024H573.44V392.704h39.04c28.288-1.664 55.808 9.344 75.136 30.08 20.096 23.296 30.72 53.248 30.08 84.096 5.376 32.384-3.968 65.408-25.472 90.112h-1.664z m0 0"
        p-id="8395"></path>
</svg>
