<?xml version="1.0" standalone="no"?><!DOCTYPE svg PUBLIC "-//W3C//DTD SVG 1.1//EN"
    "http://www.w3.org/Graphics/SVG/1.1/DTD/svg11.dtd">
<svg t="1596533667016" class="icon" viewBox="0 0 1024 1024" version="1.1" xmlns="http://www.w3.org/2000/svg" p-id="9890"
     width="200" height="200">
    <defs>
        <style type="text/css"></style>
    </defs>
    <path
        d="M899.915294 361.411765a389.12 389.12 0 0 0-207.209412-60.235294 390.927059 390.927059 0 0 0-134.866823 24.335058l154.74447-154.74447c12.227765 6.144 25.780706 9.938824 40.357647 9.938823 49.814588 0 90.352941-40.538353 90.352942-90.352941S802.755765 0 752.941176 0 662.588235 40.538353 662.588235 90.352941c0 13.251765 3.011765 25.780706 8.192 37.104941l-235.52 235.459765A87.943529 87.943529 0 0 0 420.201412 361.411765c-49.814588 0-90.352941 40.538353-90.352941 90.352941 0 5.12 0.662588 10.119529 1.505882 15.058823l-203.956706 203.956706A88.666353 88.666353 0 0 0 90.352941 662.588235c-49.814588 0-90.352941 40.538353-90.352941 90.352941S40.538353 843.294118 90.352941 843.294118 180.705882 802.755765 180.705882 752.941176c0-14.576941-3.794824-28.129882-9.938823-40.297411l154.804706-154.804706A392.493176 392.493176 0 0 0 301.176471 692.705882c0 88.485647 36.864 164.743529 60.235294 204.257883V1024h180.705882v-180.705882H401.408C376.229647 793.539765 361.411765 740.111059 361.411765 692.705882c0-53.428706 13.251765-106.255059 37.827764-153.298823 6.806588 1.626353 13.733647 2.710588 20.961883 2.710588 49.814588 0 90.352941-40.538353 90.352941-90.352941 0-10.842353-2.228706-21.082353-5.722353-30.72 99.026824-68.126118 231.725176-76.378353 338.462118-22.467765V542.117647h180.705882V361.411765h-124.084706zM752.941176 60.235294a30.117647 30.117647 0 1 1 0 60.235294 30.117647 30.117647 0 0 1 0-60.235294z m-662.588235 722.82353a30.117647 30.117647 0 1 1 0-60.235295 30.117647 30.117647 0 0 1 0 60.235295zM421.647059 903.529412h60.235294v60.235294H421.647059v-60.235294z m-1.445647-421.647059a30.117647 30.117647 0 1 1 0-60.235294 30.117647 30.117647 0 0 1 0 60.235294zM963.764706 481.882353h-60.235294V421.647059h60.235294v60.235294z"
        fill="" p-id="9891"></path>
</svg>
