<?xml version="1.0" standalone="no"?><!DOCTYPE svg PUBLIC "-//W3C//DTD SVG 1.1//EN"
    "http://www.w3.org/Graphics/SVG/1.1/DTD/svg11.dtd">
<svg t="1596683851594" class="icon" viewBox="0 0 1024 1024" version="1.1" xmlns="http://www.w3.org/2000/svg" p-id="3463"
     width="200" height="200">
    <defs>
        <style type="text/css"></style>
    </defs>
    <path
        d="M135.676368 124.709878V92.57591c0-21.773979 7.679993-32.584968 29.633971-32.584969h783.494234c0-28.609972-29.784971-59.929941-58.996942-59.929941H135.707367c-30.65797 0-60.412941 30.53697-60.412941 59.929941v904.499117c0 30.71797 33.609967 59.508942 60.381942 59.508942h58.725942l2.017998-872.456148h-31.109969c-8.431992 0-29.633971-14.304986-29.633971-26.832974z"
        p-id="3464"></path>
    <path
        d="M507.005005 150.639853H225.873279V1023.999h642.522373c44.359957 0 80.258922-35.536965 80.258922-79.354923V150.639853h-441.649569zM767.95975 632.493382H376.453132v-60.231941h391.445618v60.231941h0.06z m0-150.579853H376.453132v-60.231941h391.445618v60.231941h0.06z m0-150.579853H376.453132v-60.229941h391.445618v60.229941h0.06z"
        p-id="3465"></path>
</svg>
