<svg t="1595409503671" class="icon" viewBox="0 0 1024 1024" version="1.1" xmlns="http://www.w3.org/2000/svg" p-id="3309"
     width="16" height="16">
    <path
        d="M763.266532 341.376339l-39.865944-106.954265H425.631657l-38.05972 107.341313v242.29205h375.823611V341.376339z m-77.409601 165.269497h-56.509008v-87.085801h-111.727857v87.085801h-52.638528V355.052035l15.352904-43.220361h189.395489l16.256016 43.607409v151.206753zM927.503901 950.976943l-54.315736-28.512536a152.161472 152.161472 0 0 0-123.210281-8.128008l-57.283105 21.029608c-15.868968 5.80572-33.415144 6.063752-49.413128 0.64508l-33.415144-11.224392c-27.222376-9.160136-56.509008-10.32128-84.376465-3.483432l-44.897568 10.96636c-15.223888 3.741464-30.834824 2.58032-45.413633-3.096384l-23.738944-9.418168c-41.414136-16.385032-87.730881-13.804712-127.080761 6.837848l-7.353912 3.87048c-18.70732 9.805216-40.769056 11.353408-60.508504 4.128512-34.83432-12.643568-73.023057-12.25652-107.470329 1.29016l-20.126496 7.869976c-19.868464 7.74096-29.802696 30.189744-21.932721 50.187225 7.74096 19.868464 30.189744 29.802696 50.187225 21.93272l20.126496-7.869976c17.030112-6.579816 35.737432-6.837848 52.89656-0.64508 40.382008 14.707824 85.150561 11.61144 123.081265-8.38604l7.353912-3.87048c19.3524-10.192264 42.188232-11.482424 62.443745-3.354416l23.738944 9.418168c29.544664 11.740456 61.411616 13.933728 92.246441 6.321784l44.897568-10.96636a75.861409 75.861409 0 0 1 41.543153 1.677208l33.415144 11.224392c32.641048 10.96636 68.378481 10.450296 100.632481-1.419176l57.283104-21.029608c19.868464-7.224896 41.9302-5.80572 60.637521 3.999496l54.315736 28.512536c5.80572 2.967368 11.869472 4.386544 17.933224 4.386544 13.933728 0 27.351392-7.482928 34.318256-20.64256 9.805216-18.836336 2.451304-42.317248-16.514048-52.251481z"
        p-id="3310" fill="#787878"></path>
    <path
        d="M927.503901 814.219982l-54.315736-28.512536a152.161472 152.161472 0 0 0-123.210281-8.128008l-50.058209 18.320272v-97.149049l24.900089-0.129016a38.653194 38.653194 0 0 0 38.446768-38.962832 38.678997 38.678997 0 0 0-38.7048-38.446768h-0.258032l-281.254883 1.677208a38.653194 38.653194 0 0 0-38.446768 38.962832 38.678997 38.678997 0 0 0 38.7048 38.446768h3.483432v95.729873c-3.999496-0.903112-7.869976-2.064256-11.740456-3.483432l-23.738944-9.418168c-21.28764-8.38604-43.86544-11.740456-66.185208-10.32128V353.116795 234.293058c0-21.416656-17.288144-38.7048-38.704801-38.7048s-38.7048 17.288144-38.7048 38.7048v60.250472l-48.768048-20.771576 31.350888-59.089328c10.063248-18.836336 2.838352-42.317248-15.997984-52.380497a38.769308 38.769308 0 0 0-52.380497 15.997984L54.19459 419.043971a38.769308 38.769308 0 0 0 15.997985 52.380497c5.80572 3.096384 11.998488 4.51556 18.06224 4.51556 13.804712 0 27.222376-7.482928 34.18924-20.513544l59.99244-112.889001 85.279577 36.12448v419.172987c-16.514048 6.063752-34.705304 6.192768-51.477384 0.129016-34.83432-12.643568-73.023057-12.25652-107.470329 1.29016l-20.126496 7.869976c-19.868464 7.74096-29.802696 30.189744-21.932721 50.187225 7.74096 19.868464 30.189744 29.67368 50.187225 21.93272l20.126496-7.869976c17.030112-6.579816 35.737432-6.837848 52.89656-0.64508 40.252992 14.707824 85.150561 11.61144 123.081265-8.38604l7.353912-3.87048c19.3524-10.192264 42.188232-11.353408 62.443745-3.354416l23.86796 9.289152c29.544664 11.740456 61.411616 13.804712 92.246441 6.321784l44.897568-10.96636c13.804712-3.354416 28.125488-2.709336 41.543153 1.677208l33.415144 11.224392c32.641048 10.96636 68.378481 10.32128 100.632481-1.419176l57.283104-21.029608c19.868464-7.224896 41.9302-5.80572 60.637521 3.999496l54.315736 28.512536c5.80572 2.967368 11.869472 4.386544 17.933224 4.386544 13.933728 0 27.351392-7.482928 34.318256-20.771576 9.934232-18.70732 2.58032-42.188232-16.385032-52.122465z m-317.637394-26.190248c-27.222376-9.160136-56.509008-10.32128-84.376465-3.483432l-1.161144 0.258032v-85.021545l98.310193-0.64508v93.020537l-12.772584-4.128512zM732.947772 190.685649c27.867456 0 50.574272 22.706816 50.574272 50.574273 0 21.416656 17.288144 38.7048 38.7048 38.7048s38.7048-17.288144 38.704801-38.7048c0-70.571753-57.41212-127.983873-127.983873-127.983873-21.416656 0-38.7048 17.288144-38.704801 38.7048s17.288144 38.7048 38.704801 38.7048z"
        p-id="3311" fill="#787878"></path>
    <path
        d="M771.652572 0c-21.416656 0-38.7048 17.288144-38.7048 38.7048s17.288144 38.7048 38.7048 38.704801c69.023561 0 125.274537 56.12196 125.274537 125.274537 0 21.416656 17.288144 38.7048 38.7048 38.7048s38.7048-17.288144 38.704801-38.7048C974.33671 90.956281 883.380429 0 771.652572 0z"
        p-id="3312" fill="#787878"></path>
</svg>
