<svg t="1594365967260" class="icon" viewBox="0 0 1024 1024" version="1.1" xmlns="http://www.w3.org/2000/svg" p-id="9396"
     width="16" height="16">
    <path
        d="M531.2 0C480 0 428.8 6.4 384 25.6l19.2 57.6C441.6 64 486.4 57.6 531.2 57.6c236.8 0 435.2 192 435.2 435.2s-192 435.2-435.2 435.2-435.2-192-435.2-435.2c0-12.8 0-32 0-44.8C108.8 448 121.6 448 128 448c70.4 0 128-57.6 128-128s-57.6-128-128-128c-70.4 0-128 57.6-128 128 0 38.4 19.2 76.8 44.8 102.4C44.8 441.6 44.8 467.2 44.8 492.8c0 268.8 217.6 492.8 492.8 492.8S1024 761.6 1024 492.8C1024 217.6 806.4 0 531.2 0zM57.6 320c0-38.4 32-70.4 70.4-70.4 38.4 0 70.4 32 70.4 70.4S166.4 390.4 128 390.4c-6.4 0-12.8 0-19.2 0 0 0 0 0 0 0L96 384C76.8 371.2 57.6 345.6 57.6 320zM416 345.6C384 300.8 358.4 268.8 345.6 249.6L313.6 268.8c19.2 25.6 38.4 57.6 70.4 102.4L416 345.6zM467.2 595.2c0 12.8-6.4 25.6-12.8 32l32 38.4c6.4-6.4 19.2-12.8 25.6-19.2C544 640 576 620.8 608 608c0-12.8 0-25.6 0-38.4C569.6 588.8 537.6 601.6 505.6 614.4L505.6 480l179.2 0 0 12.8 38.4 0L723.2 262.4l-256 0L467.2 595.2zM505.6 294.4l179.2 0 0 57.6L505.6 352 505.6 294.4zM505.6 390.4l179.2 0L684.8 448 505.6 448 505.6 390.4zM281.6 691.2l19.2 44.8c25.6-32 44.8-57.6 64-70.4 25.6 38.4 64 57.6 121.6 57.6 96 0 192 0 288 0 6.4-12.8 12.8-32 12.8-38.4-102.4 0-198.4 6.4-294.4 0-51.2 0-83.2-19.2-102.4-51.2L390.4 422.4 288 422.4l0 38.4 57.6 0 0 172.8C332.8 640 307.2 659.2 281.6 691.2zM742.4 492.8C710.4 512 672 524.8 640 544 614.4 531.2 588.8 512 563.2 499.2L544 524.8c76.8 44.8 140.8 89.6 198.4 134.4L768 620.8c-25.6-12.8-57.6-32-89.6-57.6 32-12.8 64-25.6 96-38.4L742.4 492.8z"
        p-id="9397" fill="#ffffff"></path>
</svg>
