<svg t="1562232265619" class="icon" viewBox="0 0 1024 1024" version="1.1" xmlns="http://www.w3.org/2000/svg" p-id="8516"
     width="16" height="16">
    <path
        d="M589.792 372.192v-30.592a30.816 30.816 0 0 0-31.072-30.592h-93.344a30.848 30.848 0 0 0-31.104 30.592v30.592a30.144 30.144 0 0 0 9.056 21.6c5.824 5.76 13.792 8.992 22.048 9.024h93.344a30.816 30.816 0 0 0 31.072-30.624"
        p-id="8517"></path>
    <path
        d="M512 64C264.576 64 64 264.576 64 512s200.576 448 448 448 448-200.576 448-448S759.424 64 512 64m256 632.736C768 718.4 750.176 736 728.192 736h-119.392c-22.016 0-39.872-17.6-39.872-39.264v-39.104c0-21.632 17.888-39.232 39.872-39.232h59.584v-55.232c0-22.976-18.72-41.344-41.984-41.344h-228.448c-23.296 0-41.984 18.464-41.984 41.344v55.2h59.36c22.016 0 39.872 17.6 39.872 39.232v39.104c0 21.664-17.888 39.264-39.872 39.264H295.872c-21.984 0-39.872-17.6-39.872-39.264V657.6c0-21.632 17.92-39.232 39.872-39.232h31.712V563.2a67.904 67.904 0 0 1 20.48-48.832 71.392 71.392 0 0 1 49.888-20.352h90.432V427.84h-47.456a46.912 46.912 0 0 1-47.392-46.56v-46.72c0-25.76 21.12-46.592 47.392-46.592h142.176c26.24 0 47.424 20.832 47.424 46.592v46.752c0 25.76-21.184 46.56-47.424 46.56H535.68v66.208h90.784a71.232 71.232 0 0 1 49.92 20.224c13.216 12.992 20.64 30.56 20.544 48.864v55.232h31.296c22.08 0.128 39.872 17.632 39.808 39.232v39.104z"
        p-id="8518"></path>
    <path
        d="M293.408 666.272v24.032c0 13.152 10.88 23.84 24.352 23.936h73.152c13.44 0 24.288-10.752 24.288-23.936v-24.032a24.16 24.16 0 0 0-24.288-23.968H317.76a24.256 24.256 0 0 0-24.352 23.968M734.144 666.24a24.224 24.224 0 0 0-24.32-23.968h-73.056a24.192 24.192 0 0 0-24.384 23.968v24.032a23.488 23.488 0 0 0 7.104 16.896 24.64 24.64 0 0 0 17.28 7.04h73.088a24.192 24.192 0 0 0 24.32-23.936h-0.032v-24.032z"
        p-id="8519"></path>
</svg>
