<?xml version="1.0" standalone="no"?><!DOCTYPE svg PUBLIC "-//W3C//DTD SVG 1.1//EN"
    "http://www.w3.org/Graphics/SVG/1.1/DTD/svg11.dtd">
<svg t="1597735092655" class="icon" viewBox="0 0 1024 1024" version="1.1" xmlns="http://www.w3.org/2000/svg" p-id="5783"
     width="200" height="200">
    <defs>
        <style type="text/css"></style>
    </defs>
    <path
        d="M56.888889 512c0 251.363556 203.747556 455.111111 455.111111 455.111111s455.111111-203.747556 455.111111-455.111111S763.363556 56.888889 512 56.888889 56.888889 260.636444 56.888889 512z m56.888889 0c0-219.932444 178.289778-398.222222 398.222222-398.222222s398.222222 178.289778 398.222222 398.222222-178.289778 398.222222-398.222222 398.222222S113.777778 731.932444 113.777778 512z m267.776-28.444444l150.556444-150.556445a28.444444 28.444444 0 0 0-40.220444-40.220444l-199.111111 199.111111a28.444444 28.444444 0 0 0 0 40.220444l199.111111 199.111111a28.444444 28.444444 0 0 0 40.220444-40.220444L381.553778 540.444444H711.111111a28.444444 28.444444 0 0 0 0-56.888888H381.553778z"
        p-id="5784"></path>
</svg>
