<svg t="1596694108197" class="icon" viewBox="0 0 1024 1024" version="1.1" xmlns="http://www.w3.org/2000/svg" p-id="1882"
     width="32" height="32">
    <path
        d="M834.395 794.9l-641.007-0.482c-32.62-7.826-40.406-33.283-40.009-46.142v-450.978h34.777v451.776c0.122 2.525 1.589 8.101 11.55 11.049h634.378c5.313-0.359 8.542-3.891 9.605-10.505v-452.32h34.777v454.617l-0.133 1.074c-4.147 33.154-30.552 41.91-43.937 41.91z"
        fill="#f4ea2a" p-id="1883"></path>
    <path
        d="M878.837 743.877h-34.777v-451.801c-0.086-1.749-1.161-11.043-13.996-19.291h-628.449c-3.891 2.16-11.335 7.658-13.087 18.761v452.328h-34.773v-454.615l0.133-1.074c3.683-29.471 25.702-44.779 38.131-49.177l2.816-0.996h644.313l3.858 2.071c29.159 15.671 36.23 40.301 35.837 52.816l-0.005 450.978z"
        fill="#f4ea2a" p-id="1884"></path>
    <path
        d="M641.116 541.753l217.78 220.196-24.724 24.454-217.78-220.197 24.724-24.454zM388.924 540.545l25.045 24.127-213.471 221.593-25.046-24.127 213.471-221.593z"
        fill="#f4ea2a" p-id="1885"></path>
    <path
        d="M504.989 654.358l-338.808-265.775 21.463-27.362 317.919 249.388c63.788-47.376 326.787-242.648 338-250.16l19.346 28.896c-9.98 6.712-254.061 187.857-347.267 257.093l-10.654 7.919z"
        fill="#f4ea2a" p-id="1886"></path>
</svg>
