<svg t="1596616384104" class="icon" viewBox="0 0 1024 1024" version="1.1" xmlns="http://www.w3.org/2000/svg" p-id="4022"
     width="16" height="16">
    <path
        d="M992 704H896V448c0-185.6-140.8-332.8-320-352v-64c0-19.2-12.8-32-32-32S512 12.8 512 32v64c-179.2 19.2-320 172.8-320 358.4V704H96c-19.2 0-32 12.8-32 32s12.8 32 32 32h896c19.2 0 32-12.8 32-32s-12.8-32-32-32zM256 704V454.4c0-166.4 128-294.4 288-294.4S832 288 832 448v256H256z m480 160c0 89.6-83.2 160-192 160s-192-70.4-192-160c0-19.2 12.8-32 32-32s32 12.8 32 32c0 51.2 57.6 96 128 96s128-44.8 128-96c0-19.2 12.8-32 32-32s32 12.8 32 32z"
        fill="#ffffff" p-id="4023"></path>
</svg>
