<?xml version="1.0" encoding="UTF-8"?>
<svg viewBox="0 0 20 20">
    <path
        d="M8.42207672,12.9744069 C9.57522756,12.9744069 10.5850545,12.3703945 11.1595501,11.4632961 L8.42207672,9.73328986 L8.42207672,6.49219287 C6.63205721,6.49219287 5.18097973,7.94329035 5.18097973,9.73328986 C5.18097973,11.5232894 6.63205721,12.9744069 8.42207672,12.9744069 Z M12.9258923,8.29049146 L15.0959693,8.29049146 L15.0959693,8.92656023 L12.9258923,8.92656023 L12.9258923,8.29049146 Z M12.9258923,10.5400395 L15.0959693,10.5400395 L15.0959693,11.1761083 L12.9258923,11.1761083 L12.9258923,10.5400395 Z M4.73193002,14.4125258 L12.9258923,14.4125258 L12.9258923,15.0485946 L4.73193002,15.0485946 L4.73193002,14.4125258 Z M4.73193002,15.9091382 L14.4225047,15.9091382 L14.4225047,16.5452069 L4.73193002,16.5452069 L4.73193002,15.9091382 Z"></path>
    <path
        d="M15.4486697,3.46411201 L13.6111755,3.46411201 C13.6111755,2.72051529 13.0062833,2.11562305 12.2626866,2.11562305 L12.1856552,2.11562305 C12.000196,1.59238164 11.500212,1.21662373 10.9141976,1.21662373 L9.11619898,1.21662373 C8.53018461,1.21662373 8.03020063,1.59238164 7.84474139,2.11562305 L7.76771002,2.11562305 C7.0241133,2.11562305 6.41922105,2.72051529 6.41922105,3.46411201 L4.58172686,3.46411201 C3.85984771,3.46411201 3.27273346,4.05144623 3.27273346,4.77332539 L3.27273346,17.4380469 C3.27273346,18.1599261 3.8598477,18.7470403 4.58172686,18.7470403 L15.4486697,18.7470403 C16.1705489,18.7470403 16.7576631,18.1599261 16.7576631,17.4380469 L16.7576631,4.77330539 C16.7576431,4.05144623 16.1705289,3.46411201 15.4486697,3.46411201 Z M7.31820037,3.46411201 C7.31820037,3.21631977 7.51989777,3.01462236 7.76769002,3.01462236 L8.66668934,3.01462236 L8.66668934,2.56513271 C8.66668934,2.31734047 8.86838674,2.11564307 9.11617898,2.11564305 L10.9141776,2.11564305 C11.1619699,2.11564305 11.3636673,2.31734045 11.3636673,2.56513271 L11.3636673,3.01462236 L12.2626666,3.01462236 C12.5104588,3.01462236 12.7121562,3.21631977 12.7121562,3.46411201 L12.7121562,4.36311133 C12.7121562,4.61090357 12.5104588,4.81260098 12.2626666,4.812601 L7.76771002,4.812601 C7.51991777,4.812601 7.31822037,4.61090359 7.31822035,4.36311133 L7.31822035,3.46411201 L7.31820037,3.46411201 Z M15.8586438,17.4380269 C15.8586438,17.6641016 15.6747244,17.848021 15.4486497,17.848021 L4.58170686,17.848021 C4.35563217,17.848021 4.17171277,17.6641016 4.17171277,17.4380269 L4.17171277,4.77330539 C4.17171277,4.54701074 4.35563217,4.36309133 4.58170686,4.36309133 L6.41920105,4.36309133 C6.41920105,5.10668805 7.0240933,5.71158029 7.76769002,5.71158031 L12.2626666,5.71158031 C13.0062633,5.71158031 13.6111555,5.10668807 13.6111555,4.36309133 L15.4486497,4.36309133 C15.6747244,4.36309133 15.8586438,4.54701072 15.8586438,4.77330539 L15.8586438,17.4380269 Z"></path>
    <path
        d="M8.42789607,6.27345736 C6.51467035,6.27345736 4.95834467,7.82980305 4.95834467,9.74300879 C4.95834467,11.6562145 6.51469035,13.2125802 8.42789607,13.2125802 C9.62406211,13.2125802 10.7205993,12.6085679 11.3610476,11.5969811 C11.7119883,11.0427832 11.8974675,10.401695 11.8974675,9.74302879 C11.8974675,7.82980307 10.3411218,6.27345738 8.42789607,6.27345736 Z M10.9813501,11.3564281 C10.4236526,12.2372094 9.46911947,12.7630905 8.42791607,12.7630905 C6.76272258,12.7630905 5.40785432,11.4082423 5.40785432,9.74302879 C5.40785432,8.07781531 6.76270258,6.72296703 8.42791607,6.72296703 C10.0931296,6.72296703 11.4479778,8.07781529 11.4479778,9.74302879 C11.4479578,10.3165246 11.2866359,10.8744421 10.9813501,11.3564281 Z"></path>
</svg>
