<?xml version="1.0" encoding="UTF-8"?>
<svg viewBox="0 0 16 16">
    <path
        d="M15.8325385,13.0862439 L14.3180176,11.5717229 C14.747598,10.9902907 15.0103415,10.2789854 15.0103415,9.50174439 C15.0103415,8.10910439 14.1901424,6.91726829 13.0122927,6.35481756 L13.0122927,2.00906146 C13.0122927,0.906138537 12.1171668,0.0110126829 11.0142439,0.0110126829 L2.02302439,0.0110126829 C0.920101463,0.0110126829 0.0249756098,0.906138537 0.0249756098,2.00906146 L0.0249756098,11.000281 C0.0249756098,12.1032039 0.920101463,12.9983298 2.02302439,12.9983298 C2.02302439,12.9983298 11.428839,12.9983298 11.5137561,12.9983298 C12.2909971,12.9983298 13.0023024,12.7355863 13.5837346,12.3070049 L15.0982556,13.8215259 C15.3010576,14.0243278 15.6297366,14.0243278 15.8325385,13.8215259 C16.0353405,13.6187239 16.0353405,13.2890459 15.8325385,13.0862439 Z M3.52056195,3.00808585 L9.51470829,3.00808585 C9.79043902,3.00808585 10.0142205,3.23186732 10.0142205,3.50759805 C10.0142205,3.78332878 9.79043902,4.00711024 9.51470829,4.00711024 L3.52056195,4.00711024 C3.24483122,4.00711024 3.02104976,3.78332878 3.02104976,3.50759805 C3.02104976,3.23186732 3.24483122,3.00808585 3.52056195,3.00808585 Z M5.51861073,10.0012566 L3.52056195,10.0012566 C3.24483122,10.0012566 3.02104976,9.77747512 3.02104976,9.50174439 C3.02104976,9.22601366 3.24483122,9.0022322 3.52056195,9.0022322 L5.51861073,9.0022322 C5.79434146,9.0022322 6.01812293,9.22601366 6.01812293,9.50174439 C6.01812293,9.77747512 5.79534049,10.0012566 5.51861073,10.0012566 Z M6.51763512,7.00418341 L3.52056195,7.00418341 C3.24483122,7.00418341 3.02104976,6.78040195 3.02104976,6.50467122 C3.02104976,6.22894049 3.24483122,6.00515902 3.52056195,6.00515902 L6.51763512,6.00515902 C6.79336585,6.00515902 7.01714732,6.22894049 7.01714732,6.50467122 C7.01714732,6.78040195 6.79436488,7.00418341 6.51763512,7.00418341 Z M9.0151961,9.50174439 C9.0151961,8.12209171 10.1331044,7.00418341 11.5127571,7.00418341 C12.8924098,7.00418341 14.010318,8.12209171 14.010318,9.50174439 C14.010318,10.8813971 12.8924098,11.9993054 11.5127571,11.9993054 C10.1331044,11.9993054 9.0151961,10.8813971 9.0151961,9.50174439 Z"></path>
</svg>
