<?xml version="1.0" encoding="UTF-8"?>
<svg viewBox="0 0 16 16">
    <path
        d="M14.46875,8.24317187 C14.740375,8.24317187 14.9605625,8.02298438 14.9605625,7.75135937 C14.9605625,7.47973437 14.740375,7.2595625 14.46875,7.2595625 L8.5,7.2595625 L8.5,6.11045313 L10.34375,6.11045313 C10.6198906,6.11045313 10.84375,5.88659375 10.84375,5.61045313 L10.84375,2.03109375 C10.84375,1.75495312 10.6198906,1.53109375 10.34375,1.53109375 L5.65625,1.53109375 C5.38010937,1.53109375 5.15625,1.75495312 5.15625,2.03109375 L5.15625,5.6104375 C5.15625,5.88657812 5.38010937,6.1104375 5.65625,6.1104375 L7.5,6.1104375 L7.5,7.25954687 L1.53125,7.25954687 C1.259625,7.25954687 1.0394375,7.47973437 1.0394375,7.75135937 C1.0394375,8.02298438 1.259625,8.24317187 1.53125,8.24317187 L3.7750625,8.24317187 L3.7750625,9.38040625 L1.9313125,9.38040625 C1.65517188,9.38040625 1.4313125,9.60426563 1.4313125,9.88040625 L1.4313125,13.45975 C1.4313125,13.7358906 1.65517188,13.95975 1.9313125,13.95975 L6.6188125,13.95975 C6.89495313,13.95975 7.1188125,13.7358906 7.1188125,13.45975 L7.1188125,9.88042187 C7.1188125,9.60428125 6.89495313,9.38042187 6.6188125,9.38042187 L4.7750625,9.38042187 L4.7750625,8.2431875 L11.216125,8.2431875 L11.216125,9.38042187 L9.30034375,9.38042187 C9.02420313,9.38042187 8.80034375,9.60428125 8.80034375,9.88042187 L8.80034375,13.4597656 C8.80034375,13.7359062 9.02420313,13.9597656 9.30034375,13.9597656 L13.9878438,13.9597656 C14.2639844,13.9597656 14.4878438,13.7359062 14.4878438,13.4597656 L14.4878438,9.88042187 C14.4878438,9.60428125 14.2639844,9.38042187 13.9878438,9.38042187 L12.216125,9.38042187 L12.216125,8.2431875 L14.46875,8.2431875 L14.46875,8.24317187 Z M6.15625,2.53109375 L9.84375,2.53109375 L9.84375,5.1104375 L6.15625,5.1104375 L6.15625,2.53109375 Z M6.1188125,12.9597656 L2.4313125,12.9597656 L2.4313125,10.3804219 L6.1188125,10.3804219 L6.1188125,12.9597656 Z M13.4878437,12.9597656 L9.80034375,12.9597656 L9.80034375,10.3804219 L13.4878437,10.3804219 L13.4878437,12.9597656 Z"></path>
</svg>
