<?xml version="1.0" encoding="UTF-8"?>
<svg viewBox="0 0 32 44">
    <path
        d="M16,42 C18.948178,31.1040533 32,24.836556 32,16 C32,7.163444 24.836556,0 16,0 C7.163444,0 0,7.163444 0,16 C0,24.836556 13.0248256,31.1094335 16,42 Z"
        id="Oval-4"></path>
    <ellipse id="Oval-6" fill-opacity="0.5" fill="#000000" cx="16" cy="43" rx="8" ry="1"></ellipse>
    <circle id="Oval-5" fill="#FFFFFF" cx="16" cy="16" r="12"></circle>
    <path
        d="M20.0144887,11.4422878 C20.0144887,9.23274106 16.7063779,8.12808497 16.7063779,8.12808497 C16.2378943,7.93616204 15.7727624,7.97983862 15.2936436,8.12808497 C15.2936436,8.12808497 11.9853395,9.09799831 11.9853395,11.4422878 C11.9853395,11.7927557 11.2859765,11.7175577 11.054603,12.8262004 L20.9455689,12.8262004 C20.5244386,11.7098582 20.0144887,11.7927557 20.0144887,11.4422878 M23,21.7263943 L23,22.1958541 C23,23.1677021 20.1999699,24 20.1999699,24 L19.033305,23.8651204 C19.033305,23.8651204 17.167535,23.6528933 15.9999678,23.6528933 C14.8341408,23.6528933 12.966695,23.8651204 12.966695,23.8651204 L11.8085167,23.9969319 C11.8085167,23.9969319 9,23.1641259 9,22.1958541 L9,21.7263943 C9,20.8231977 10.29448,19.9116566 11.8116106,19.2125772 C11.8851327,19.178828 12.7968334,23.874657 12.7968334,23.874657 L13.2000021,23.8651204 C13.2000021,23.8651204 12.4209293,19.0167654 12.4999731,18.9837978 C12.9199433,18.8090524 13.1962422,18.6453092 13.6094016,18.5098238 C13.7625692,18.4590535 14.4951697,18.0971338 14.0853405,17.1226281 C13.1362342,16.2426279 12.4896603,15.3899476 12.4896603,13.4672007 L19.5323405,13.4672007 C19.5323405,15.3700342 18.8692445,16.2305705 17.9264118,17.1118604 L17.9318691,17.1118604 C17.5310207,18.2173568 18.1719656,18.4794945 18.2741059,18.5095893 C18.6828394,18.6324896 19.0898754,18.8246275 19.5000269,18.9837978 C19.6016516,19.0231752 18.7999979,23.8651204 18.7999979,23.8651204 L19.2260913,23.8547241 C19.2260913,23.8547241 20.0951439,19.1742551 20.1840279,19.2137888 C21.7241476,19.8996773 23,20.8047109 23,21.7263943"
        id="Fill-1"></path>
</svg>
