<?xml version="1.0" encoding="UTF-8"?>
<svg viewBox="0 0 14 16" version="1.1" xmlns="http://www.w3.org/2000/svg">
    <!-- Generator: Sketch 52.6 (67491) - http://www.bohemiancoding.com/sketch -->
    <title>news</title>
    <desc>Created with Sketch.</desc>
    <g id="Page-1" stroke="none" stroke-width="1" fill="none" fill-rule="evenodd">
        <g id="home_1920_功能展开" transform="translate(-195.000000, -102.000000)" fill="#F56C6C">
            <g id="左侧" transform="translate(0.000000, 60.000000)">
                <g id="massage" transform="translate(195.000000, 42.000000)">
                    <path
                        d="M12.7783236,10.4159678 C13.4003732,10.4159678 13.9447686,10.9433439 13.9965834,11.602564 C14.0483982,12.3143557 13.5040028,13 12.8301384,13 L1.16623194,13 C0.440416718,13 -0.129818102,12.23536 0.0257623019,11.47072 C0.129391907,10.890634 0.647811924,10.4159678 1.21804674,10.4159678 C1.39960255,10.4159678 1.55504696,10.2576997 1.55504696,10.0731457 L1.55504696,7.12000563 C1.55504696,4.61510756 3.18796121,2.50574155 5.44292509,1.8200973 L5.44292509,1.58283339 C5.44292509,0.686349383 6.16874032,-0.0255806679 7.04999995,0.000705128767 C7.90542018,0.000705128767 8.5533092,0.765483465 8.5533092,1.63554333 L8.5533092,1.79367315 C10.8084091,2.47931741 12.4413233,4.58868342 12.4413233,7.09358149 L12.4413233,10.0731457 C12.4413233,10.2576997 12.5969037,10.4159678 12.7783236,10.4159678 Z M7,16 C5.6511836,16 4.51163264,14.9411111 4,14 L10,14 C9.48848938,14.9411111 8.34893842,16 7,16 Z"
                        id="news"></path>
                </g>
            </g>
        </g>
    </g>
</svg>
