<?xml version="1.0" encoding="utf-8"?>
<!-- Generator: Adobe Illustrator 21.0.0, SVG Export Plug-In . SVG Version: 6.00 Build 0)  -->
<svg version="1.1" id="图层_1" xmlns="http://www.w3.org/2000/svg" x="0px"
     y="0px"
     viewBox="0 0 16 16" style="enable-background:new 0 0 16 16;" xml:space="preserve">
<style type="text/css">
	.st0 {
        fill: #2773C2;
    }
</style>
    <g>
	<g>
		<path class="st0" d="M13.4,13.3c-0.3,0-0.5-0.2-0.5-0.5v-4H3.1v4c0,0.3-0.2,0.5-0.5,0.5s-0.5-0.2-0.5-0.5V8.3
			c0-0.3,0.2-0.5,0.5-0.5h10.9c0.3,0,0.5,0.2,0.5,0.5v4.5C13.9,13.1,13.7,13.3,13.4,13.3z"/>
	</g>
        <g>
		<path class="st0"
              d="M8,8.8c-0.3,0-0.5-0.2-0.5-0.5V4.9c0-0.3,0.2-0.5,0.5-0.5s0.5,0.2,0.5,0.5v3.4C8.5,8.6,8.3,8.8,8,8.8z"/>
	</g>
        <path class="st0"
              d="M9.5,4.9h-3c-0.6,0-1-0.4-1-1v-2c0-0.6,0.4-1,1-1h3c0.6,0,1,0.4,1,1v2C10.5,4.4,10.1,4.9,9.5,4.9z"/>
        <path class="st0"
              d="M4,15.1H1c-0.6,0-1-0.4-1-1v-2c0-0.6,0.4-1,1-1h3c0.6,0,1,0.4,1,1v2C5,14.7,4.6,15.1,4,15.1z"/>
        <path class="st0"
              d="M15,15.1h-3c-0.6,0-1-0.4-1-1v-2c0-0.6,0.4-1,1-1h3c0.6,0,1,0.4,1,1v2C16,14.7,15.6,15.1,15,15.1z"/>
</g>
</svg>
