<?xml version="1.0" encoding="UTF-8"?>
<svg viewBox="0 0 16 16">
    <path
        d="M6,14 C6,12.8954305 6.88772964,12 8,12 C9.1045695,12 10,12.8877296 10,14 C10,15.1045695 9.11227036,16 8,16 C6.8954305,16 6,15.1122704 6,14 Z M6,8 C6,6.8954305 6.88772964,6 8,6 C9.1045695,6 10,6.88772964 10,8 C10,9.1045695 9.11227036,10 8,10 C6.8954305,10 6,9.11227036 6,8 Z M6,2 C6,0.8954305 6.88772964,0 8,0 C9.1045695,0 10,0.887729641 10,2 C10,3.1045695 9.11227036,4 8,4 C6.8954305,4 6,3.11227036 6,2 Z"></path>
</svg>
