<?xml version="1.0" encoding="utf-8"?>
<!-- Generator: Adobe Illustrator 21.0.0, SVG Export Plug-In . SVG Version: 6.00 Build 0)  -->
<svg version="1.1" id="图层_1" xmlns="http://www.w3.org/2000/svg" x="0px"
     y="0px"
     viewBox="0 0 16 16" style="enable-background:new 0 0 16 16;" xml:space="preserve">
<style type="text/css">
	.st0 {
        fill: #2773C2;
    }
</style>
    <g id="XMLID_1347_">
	<path class="st0" d="M3.4,8.5C3.1,8.5,2.9,8.3,2.9,8V5.1C2.9,2.3,5.2,0,8,0s5.1,2.3,5.1,5.1c0,0.3-0.2,0.5-0.5,0.5
		s-0.5-0.2-0.5-0.5C12.1,2.9,10.3,1,8,1S3.9,2.9,3.9,5.1V8C3.9,8.3,3.6,8.5,3.4,8.5z"/>
</g>
    <path class="st0" d="M13.4,7H2.6C2,7,1.5,7.5,1.5,8.1v6.8C1.5,15.5,2,16,2.6,16h10.8c0.6,0,1.1-0.5,1.1-1.1V8.1
	C14.5,7.5,14,7,13.4,7z M8.5,12.3v1.3c0,0.3-0.2,0.5-0.5,0.5s-0.5-0.2-0.5-0.5v-1.3c-0.6-0.2-1-0.8-1-1.4c0-0.8,0.7-1.5,1.5-1.5
	s1.5,0.7,1.5,1.5C9.5,11.5,9.1,12.1,8.5,12.3z"/>
</svg>
