<?xml version="1.0" encoding="UTF-8"?>
<svg viewBox="0 0 20 20" version="1.1" xmlns="http://www.w3.org/2000/svg">
    <!-- Generator: Sketch 52.6 (67491) - http://www.bohemiancoding.com/sketch -->
    <title>pdf</title>
    <desc>Created with Sketch.</desc>
    <g id="pdf" stroke="none" stroke-width="1" fill="none" fill-rule="evenodd">
        <g>
            <rect id="Rectangle" fill="#000000" opacity="0" x="0" y="0" width="20" height="20"></rect>
            <path
                d="M3.125,0.625 C2.890625,0.625 2.640625,0.71875 2.46875,0.90625 C2.296875,1.09375 2.1875,1.328125 2.1875,1.5625 L2.1875,18.4375 C2.1875,18.671875 2.28125,18.921875 2.46875,19.09375 C2.65625,19.28125 2.890625,19.375 3.125,19.375 L16.875,19.375 C17.109375,19.375 17.359375,19.28125 17.53125,19.09375 C17.71875,18.90625 17.8125,18.671875 17.8125,18.4375 L17.8125,5.9375 L12.5,0.625 L3.125,0.625 Z"
                id="Path" fill="#FF5562"></path>
            <path
                d="M17.8125,5.9375 L13.4375,5.9375 C13.203125,5.9375 12.953125,5.84375 12.78125,5.65625 C12.59375,5.484375 12.5,5.234375 12.5,5 L12.5,0.625 L17.8125,5.9375 Z"
                id="Path" fill="#FFBBC0"></path>
            <path
                d="M13.59375,16.46875 C12.609375,16.46875 11.734375,14.78125 11.265625,13.6875 C10.484375,13.359375 9.625,13.0625 8.796875,12.859375 C8.0625,13.34375 6.828125,14.0625 5.875,14.0625 C5.28125,14.0625 4.859375,13.765625 4.703125,13.25 C4.578125,12.828125 4.6875,12.53125 4.8125,12.375 C5.0625,12.03125 5.578125,11.859375 6.359375,11.859375 C6.984375,11.859375 7.78125,11.96875 8.671875,12.1875 C9.25,11.78125 9.828125,11.3125 10.34375,10.8125 C10.109375,9.71875 9.859375,7.953125 10.5,7.140625 C10.8125,6.75 11.296875,6.625 11.875,6.796875 C12.515625,6.984375 12.75,7.375 12.828125,7.671875 C13.09375,8.734375 11.875,10.171875 11.046875,11.015625 C11.234375,11.75 11.46875,12.515625 11.765625,13.21875 C12.953125,13.75 14.359375,14.53125 14.515625,15.390625 C14.578125,15.6875 14.484375,15.96875 14.25,16.203125 C14.046875,16.375 13.828125,16.46875 13.59375,16.46875 Z M12.140625,14.09375 C12.734375,15.296875 13.296875,15.859375 13.59375,15.859375 C13.640625,15.859375 13.703125,15.84375 13.796875,15.765625 C13.90625,15.65625 13.90625,15.578125 13.890625,15.515625 C13.828125,15.203125 13.328125,14.6875 12.140625,14.09375 Z M6.359375,12.484375 C5.59375,12.484375 5.375,12.671875 5.3125,12.75 C5.296875,12.78125 5.234375,12.859375 5.296875,13.078125 C5.34375,13.265625 5.46875,13.453125 5.875,13.453125 C6.375,13.453125 7.09375,13.171875 7.9375,12.671875 C7.328125,12.546875 6.796875,12.484375 6.359375,12.484375 Z M9.453125,12.390625 C9.953125,12.53125 10.46875,12.703125 10.953125,12.890625 C10.78125,12.4375 10.640625,11.96875 10.515625,11.515625 C10.171875,11.8125 9.8125,12.109375 9.453125,12.390625 Z M11.390625,7.34375 C11.21875,7.34375 11.09375,7.40625 10.984375,7.53125 C10.65625,7.9375 10.625,8.96875 10.875,10.28125 C11.828125,9.265625 12.34375,8.328125 12.21875,7.828125 C12.203125,7.75 12.140625,7.53125 11.703125,7.40625 C11.578125,7.359375 11.484375,7.34375 11.390625,7.34375 Z"
                id="Shape" fill="#FFFFFF" fill-rule="nonzero"></path>
        </g>
    </g>
</svg>
