<?xml version="1.0" encoding="UTF-8"?>
<svg width="20px" height="20px" viewBox="0 0 20 20" version="1.1" xmlns="http://www.w3.org/2000/svg"
>
    <!-- Generator: Sketch 52.6 (67491) - http://www.bohemiancoding.com/sketch -->
    <title>pic</title>
    <desc>Created with Sketch.</desc>
    <g id="pic" stroke="none" stroke-width="1" fill="none" fill-rule="evenodd">
        <g>
            <rect id="Rectangle" fill="#000000" opacity="0" x="0" y="0" width="20" height="20"></rect>
            <path
                d="M18.6974609,7.19238281 L17.6386719,14.2992187 C17.5214844,15.0841797 16.9759766,15.6921875 16.2841797,15.9101562 C16.0053026,15.9979602 15.7098367,16.0197574 15.4210938,15.9738281 L4.16425781,14.1992187 C3.39257813,14.0775391 2.79707031,13.5052734 2.59101563,12.7824219 L4.35957031,11.53125 L7.09550781,13.7109375 L10.8728516,9.12539062 L16.5585938,13.3138672 L16.5585938,7.6953125 C16.5585938,6.59042969 15.6876953,5.69472656 14.6132813,5.69472656 L3.46367188,5.69472656 L3.59511719,4.8125 C3.7578125,3.7203125 4.75058594,2.97070312 5.8125,3.13808594 L17.0693359,4.91210937 C18.13125,5.07929687 18.8601563,6.10019531 18.6974609,7.19238281 Z"
                id="Path" fill="#C5E3FF"></path>
            <path
                d="M15.7199219,16.2416016 C15.6071614,16.2415406 15.4945784,16.2326593 15.3832031,16.2150391 L4.12636719,14.4410156 C3.28867188,14.3089844 2.59394531,13.684375 2.35644531,12.8498047 C2.32813309,12.7502245 2.3657047,12.643615 2.45019531,12.5837891 L4.21875,11.3324219 C4.30741169,11.2697724 4.42679162,11.2731946 4.51171875,11.3408203 L7.05957031,13.3701172 L10.6835938,8.97011719 C10.7660355,8.87000791 10.9123604,8.85182451 11.0167969,8.92871094 L16.3144531,12.8306641 L16.3144531,7.6953125 C16.3144531,6.72675781 15.5513672,5.93886719 14.6132813,5.93886719 L3.46367188,5.93886719 C3.39265086,5.93874879 3.32520174,5.90770996 3.27891389,5.85384501 C3.23262604,5.79998005 3.21208821,5.72862888 3.22265625,5.65839844 L3.35410156,4.77617187 C3.43903313,4.18137111 3.75973472,3.64576567 4.24394531,3.29003906 C4.70506732,2.94828233 5.28433818,2.80650915 5.85117188,2.89667969 L17.1080078,4.67070312 C18.2994141,4.85859375 19.121875,6.00605469 18.9396484,7.22929687 L17.8800781,14.3359375 C17.8184558,14.7570489 17.6393362,15.1522494 17.3632813,15.4761719 C17.0973458,15.788125 16.7491756,16.0191558 16.3583984,16.1429687 C16.1518789,16.2083455 15.9365423,16.241611 15.7199219,16.2416016 Z M2.88027344,12.8773438 C3.10332031,13.4478516 3.60664063,13.8646484 4.20234375,13.9585938 L15.4591797,15.7326172 C15.7106658,15.7729278 15.9680914,15.7539336 16.2109375,15.6771484 C16.8328125,15.4818359 17.2984375,14.9263672 17.3972656,14.2630859 L18.4560547,7.15625 C18.5988281,6.19785156 17.9597656,5.29921875 17.03125,5.15273438 L5.77441406,3.37890625 C5.33623318,3.30946431 4.88854172,3.41927542 4.53222656,3.68359375 C4.15327992,3.96258207 3.90254468,4.38232778 3.83652344,4.84824219 L3.746875,5.45019531 L14.6134766,5.45019531 C15.8207031,5.45019531 16.8029297,6.45722656 16.8029297,7.69492188 L16.8029297,13.3138672 C16.8028791,13.4059224 16.7510531,13.4901228 16.6688905,13.5316374 C16.5867279,13.573152 16.4881991,13.5649219 16.4140625,13.5103516 L10.9142578,9.45898438 L7.28378906,13.8658203 C7.19904918,13.9687352 7.04742095,13.9846457 6.94316406,13.9015625 L4.35097656,11.8359375 L2.88027344,12.8773438 Z"
                id="Shape" fill="#3D9FF9" fill-rule="nonzero"></path>
            <path
                d="M14.6134766,17.1289062 L3.225,17.1289062 C2.01777344,17.1289062 1.03515625,16.1226562 1.03515625,14.8849609 L1.03515625,7.6953125 C1.03515625,6.45761719 2.01738281,5.45058594 3.22460938,5.45058594 L14.6134766,5.45058594 C15.8207031,5.45058594 16.8029297,6.45761719 16.8029297,7.6953125 L16.8029297,14.8849609 C16.8027344,16.1226562 15.8203125,17.1289062 14.6134766,17.1289062 Z M3.22519531,5.9375 C2.28769531,5.9375 1.52402344,6.72539063 1.52402344,7.69394531 L1.52402344,14.8849609 C1.5234375,15.8535156 2.28710938,16.640625 3.225,16.640625 L14.6134766,16.640625 C15.5509766,16.640625 16.3146484,15.8527344 16.3146484,14.8841797 L16.3146484,7.6953125 C16.3146484,6.72675781 15.5515625,5.93886719 14.6134766,5.93886719 L3.22519531,5.9375 Z"
                id="Shape" fill="#3D9FF9" fill-rule="nonzero"></path>
            <path
                d="M14.6134766,17.1289063 L3.225,17.1289063 C2.01777344,17.1289063 1.03515625,16.1226563 1.03515625,14.8849609 L1.03515625,13.7109375 C1.03518159,13.6317349 1.07362659,13.5574662 1.13828125,13.5117188 L4.21875,11.3324219 C4.30741169,11.2697724 4.42679162,11.2731946 4.51171875,11.3408203 L7.05957031,13.3701172 L10.6835938,8.97011719 C10.7660355,8.87000791 10.9123604,8.85182451 11.0167969,8.92871094 L16.7035156,13.1171875 C16.7659857,13.1631703 16.802887,13.236103 16.8029297,13.3136719 L16.8029297,14.8847656 C16.8034126,15.2878158 16.6972849,15.6838238 16.4953125,16.0326172 C16.305844,16.3591886 16.0365582,16.6323051 15.7126953,16.8263672 C15.3802443,17.0244201 15.0004503,17.1289512 14.6134766,17.1289063 Z M1.5234375,13.8371094 L1.5234375,14.8849609 C1.5234375,15.8535156 2.28710938,16.640625 3.225,16.640625 L14.6134766,16.640625 C15.2166016,16.640625 15.7623047,16.3212891 16.0732422,15.7865234 C16.2318824,15.512225 16.3151663,15.2008536 16.3146484,14.8839844 L16.3146484,13.4375 L10.9142578,9.45898438 L7.28378906,13.8658203 C7.19904918,13.9687352 7.04742095,13.9846457 6.94316406,13.9015625 L4.35097656,11.8359375 L1.5234375,13.8371094 Z"
                id="Shape" fill="#3D9FF9" fill-rule="nonzero"></path>
            <path
                d="M16.5585938,13.3138672 L16.5585938,14.8849609 C16.5594403,15.2449531 16.4647467,15.5987231 16.2841797,15.9101562 C15.9445313,16.4943359 15.3234375,16.8855469 14.6134766,16.8855469 L3.225,16.8855469 C2.15078125,16.8855469 1.2796875,15.9898437 1.2796875,14.8849609 L1.2796875,13.7109375 L2.59101563,12.7832031 L4.35957031,11.5320313 L7.09550781,13.7109375 L10.8728516,9.12539063 L16.5585938,13.3138672 Z"
                id="Path" fill="#C5E3FF"></path>
            <path
                d="M14.6134766,17.1289063 L3.225,17.1289063 C2.01777344,17.1289063 1.03515625,16.1226563 1.03515625,14.8849609 L1.03515625,13.7109375 C1.03518159,13.6317349 1.07362659,13.5574662 1.13828125,13.5117188 L4.21875,11.3324219 C4.30741169,11.2697724 4.42679162,11.2731946 4.51171875,11.3408203 L7.05957031,13.3701172 L10.6835938,8.97011719 C10.7660355,8.87000791 10.9123604,8.85182451 11.0167969,8.92871094 L16.7035156,13.1171875 C16.7659857,13.1631703 16.802887,13.236103 16.8029297,13.3136719 L16.8029297,14.8847656 C16.8034126,15.2878158 16.6972849,15.6838238 16.4953125,16.0326172 C16.305844,16.3591886 16.0365582,16.6323051 15.7126953,16.8263672 C15.3802443,17.0244201 15.0004503,17.1289512 14.6134766,17.1289063 Z M1.5234375,13.8371094 L1.5234375,14.8849609 C1.5234375,15.8535156 2.28710938,16.640625 3.225,16.640625 L14.6134766,16.640625 C15.2166016,16.640625 15.7623047,16.3212891 16.0732422,15.7865234 C16.2318824,15.512225 16.3151663,15.2008536 16.3146484,14.8839844 L16.3146484,13.4375 L10.9142578,9.45898438 L7.28378906,13.8658203 C7.19904918,13.9687352 7.04742095,13.9846457 6.94316406,13.9015625 L4.35097656,11.8359375 L1.5234375,13.8371094 Z"
                id="Shape" fill="#3D9FF9" fill-rule="nonzero"></path>
            <path
                d="M3.07578125,8.16601562 C3.07578125,8.91494395 3.68290761,9.52207031 4.43183594,9.52207031 C5.18076426,9.52207031 5.78789063,8.91494395 5.78789063,8.16601562 C5.78789064,7.68154394 5.52942807,7.23387364 5.10986329,6.99163779 C4.6902985,6.74940195 4.17337337,6.74940195 3.75380859,6.99163779 C3.3342438,7.23387364 3.07578124,7.68154394 3.07578125,8.16601562 Z"
                id="Path" fill="#C5E3FF"></path>
            <path
                d="M4.43183594,9.765625 C3.54807247,9.765625 2.83164062,9.04919316 2.83164062,8.16542969 C2.83164063,7.28166622 3.54807247,6.56523437 4.43183594,6.56523437 C5.31559941,6.56523437 6.03203125,7.28166622 6.03203125,8.16542969 C6.03127741,9.04888071 5.31528696,9.76487116 4.43183594,9.765625 Z M4.43183594,7.05351562 C3.81774276,7.05351563 3.31992188,7.55133651 3.31992188,8.16542969 C3.31992188,8.77952287 3.81774276,9.27734375 4.43183594,9.27734375 C5.04592912,9.27734375 5.54375,8.77952287 5.54375,8.16542969 C5.54267405,7.55187764 5.04538846,7.05485411 4.43183594,7.05410156 L4.43183594,7.05351562 Z"
                id="Shape" fill="#3D9FF9" fill-rule="nonzero"></path>
        </g>
    </g>
</svg>
