<?xml version="1.0" encoding="UTF-8"?>
<svg viewBox="0 0 16 16">
    <path
        d="M14.6085983,14.9412938 L12.7067218,14.9412938 C12.5315374,14.9412938 12.3897557,14.7989103 12.3897557,14.6243247 C12.3897557,14.4491315 12.5315374,14.3073556 12.7067218,14.3073556 L14.2916162,14.3073556 L14.2916162,12.7225261 C14.2916162,12.5473489 14.4333979,12.405573 14.6085983,12.405573 C14.7831911,12.405573 14.9255804,12.5473489 14.9255804,12.7225261 L14.9255804,14.6243247 C14.9255804,14.7989103 14.7831911,14.9412938 14.6085983,14.9412938 Z M14.6085983,11.1376966 C14.4333979,11.1376966 14.2916163,10.9952972 14.2916163,10.8207275 L14.2916162,8.91891298 C14.2916162,8.74373575 14.4333979,8.60195988 14.6085983,8.60195988 C14.7831911,8.60195988 14.9255804,8.74373575 14.9255804,8.91891298 L14.9255804,10.8207275 C14.9255804,10.9952972 14.7831911,11.1376966 14.6085983,11.1376966 Z M14.6085983,7.33409948 C14.4333979,7.33409948 14.2916163,7.19170003 14.2916163,7.01713039 L14.2916162,5.11531581 C14.2916162,4.94012259 14.4333979,4.7983627 14.6085983,4.7983627 C14.7831911,4.7983627 14.9255804,4.94012259 14.9255804,5.11531581 L14.9255804,7.01711439 C14.9255804,7.19170003 14.7831911,7.33409948 14.6085983,7.33409948 Z M14.6085983,3.53050231 C14.4333979,3.53050231 14.2916163,3.38811884 14.2916163,3.21353322 L14.2916163,1.62870373 L12.7067218,1.62870373 C12.5315374,1.62870373 12.3897557,1.48632027 12.3897557,1.31173464 C12.3897557,1.13654142 12.5315374,0.994765547 12.7067218,0.994765547 L14.6085983,0.994765547 C14.7831911,0.994765547 14.9255804,1.13654142 14.9255804,1.31173464 L14.9255804,3.21351723 C14.9255804,3.38810286 14.7831911,3.53050231 14.6085983,3.53050231 Z M10.8048453,14.9412938 L8.90295281,14.9412938 C8.72776841,14.9412938 8.5860027,14.7989103 8.5860027,14.6243247 C8.5860027,14.4491315 8.72776839,14.3073556 8.90295281,14.3073556 L10.8048453,14.3073556 C10.9794221,14.3073556 11.1218274,14.4491315 11.1218274,14.6243247 C11.1218434,14.7989103 10.9794221,14.9412938 10.8048453,14.9412938 Z M10.8048453,1.62870373 L8.90295281,1.62870373 C8.72776841,1.62870373 8.5860027,1.48632027 8.5860027,1.31173464 C8.5860027,1.13654142 8.72776839,0.994765547 8.90295281,0.994765547 L10.8048453,0.994765547 C10.9794221,0.994765547 11.1218274,1.13654142 11.1218274,1.31173464 C11.1218434,1.48632028 10.9794221,1.62870373 10.8048453,1.62870373 Z M10.4482405,7.33409948 C10.7980337,7.33409948 11.0822046,7.61763525 11.0822046,7.96802169 C11.0822046,8.31780053 10.7980337,8.60194389 10.4482405,8.60194389 L8.54636397,8.60194387 L8.54636397,10.5037584 C8.54636397,10.8535373 8.26219298,11.1376806 7.9123998,11.1376806 C7.561999,11.1376806 7.27845163,10.8535373 7.27845163,10.5037584 L7.27845163,8.60194387 L5.37657513,8.60194387 C5.02615834,8.60194387 4.74262695,8.31780053 4.74262695,7.96802167 C4.74262695,7.61763523 5.02617433,7.33409947 5.37657513,7.33409947 L7.27845163,7.33409947 L7.27845163,5.43230091 C7.27845163,5.08191447 7.561999,4.7983787 7.9123998,4.7983787 C8.26219298,4.7983787 8.54636397,5.08191447 8.54636397,5.43230091 L8.54636397,7.33409948 L10.4482405,7.33409948 Z M7.0010923,1.62870373 L5.0992158,1.62870373 C4.92401541,1.62870373 4.7822497,1.48632027 4.7822497,1.31173464 C4.7822497,1.13654142 4.92401539,0.994765547 5.0992158,0.994765547 L7.0010923,0.994765547 C7.17566909,0.994765547 7.31807437,1.13654142 7.31807437,1.31173464 C7.31807439,1.48632028 7.17568509,1.62870373 7.0010923,1.62870373 Z M3.19735528,14.9412938 L1.29547878,14.9412938 C1.12026239,14.9412938 0.978496703,14.7989103 0.978496703,14.6243247 L0.978496703,12.7225101 C0.978496703,12.5473329 1.12026239,12.405557 1.29547878,12.405557 C1.47035937,12.405557 1.61244487,12.5473329 1.61244487,12.7225101 L1.61244487,14.3073396 L3.19735528,14.3073396 C3.37225187,14.3073396 3.51432137,14.4491155 3.51432137,14.6243087 C3.51432137,14.7989103 3.37225187,14.9412938 3.19735528,14.9412938 Z M3.19735528,1.62870373 L1.61244488,1.62870373 L1.61244488,3.21353322 C1.61244488,3.38811884 1.47035939,3.53050231 1.29547878,3.53050231 C1.12026239,3.53050231 0.978496703,3.38811884 0.978496703,3.21353322 L0.978496703,1.31173464 C0.978496703,1.13654142 1.12026239,0.994765547 1.29547878,0.994765547 L3.19735528,0.994765547 C3.37225188,0.994765547 3.51432138,1.13654142 3.51432138,1.31173464 C3.51432138,1.48632028 3.37225188,1.62870373 3.19735528,1.62870373 Z M1.29547878,4.7983627 C1.47035937,4.7983627 1.61244487,4.94012259 1.61244487,5.11531581 L1.61244487,7.01711439 C1.61244487,7.19168403 1.47035939,7.33408348 1.29547878,7.33408348 C1.12026239,7.33408348 0.978496703,7.19168403 0.978496703,7.01711439 L0.978496703,5.11531581 C0.978496703,4.94012259 1.12026239,4.7983627 1.29547878,4.7983627 Z M1.29547878,8.60194387 C1.47035937,8.60194387 1.61244487,8.74371975 1.61244487,8.91889698 L1.61244487,10.8207115 C1.61244487,10.9952812 1.47035939,11.1376806 1.29547878,11.1376806 C1.12026239,11.1376806 0.978496703,10.9952812 0.978496703,10.8207115 L0.978496703,8.91891298 C0.978496703,8.74373575 1.12026239,8.60194387 1.29547878,8.60194387 Z M5.0992158,14.3073396 L7.0010923,14.3073396 C7.17566909,14.3073396 7.31807437,14.4491155 7.31807437,14.6243087 C7.31807437,14.7988943 7.17568508,14.9412778 7.0010923,14.9412778 L5.0992158,14.9412778 C4.92401541,14.9412778 4.7822497,14.7988943 4.7822497,14.6243087 C4.7822497,14.4491315 4.92401541,14.3073396 5.0992158,14.3073396 Z"></path>
</svg>
