<?xml version="1.0" encoding="UTF-8"?>
<svg viewBox="0 0 14 16">
    <path
        d="M8.103125,0 C4.409375,0 1.415625,2.975 1.415625,6.640625 C1.415625,8.328125 2.053125,9.859375 3.09375,11.03125 C3.121875,11.084375 3.159375,11.1375 3.203125,11.184375 L7.546875,15.703125 C7.56875,15.73125 7.590625,15.7625 7.615625,15.7875 C7.68125,15.853125 7.75625,15.9 7.8375,15.934375 C8.0875,16.05 8.390625,16.0125 8.59375,15.809375 C8.65,15.753125 8.69375,15.6875 8.725,15.61875 L12.9875,11.184375 C13.028125,11.146875 13.059375,11.1 13.0875,11.053125 C14.140625,9.88125 14.784375,8.3375 14.784375,6.64375 C14.790625,2.975 11.796875,0 8.103125,0 Z M8.1,9.340625 C6.4375,9.340625 5.0875,8 5.0875,6.35 C5.0875,4.7 6.4375,3.359375 8.1,3.359375 C9.7625,3.359375 11.1125,4.7 11.1125,6.35 C11.1125,8 9.7625,9.340625 8.1,9.340625 Z"></path>
</svg>
