<?xml version="1.0" encoding="UTF-8"?>
<svg viewBox="0 0 20 20">
    <path
        d="M6.63659439,3.91793764 L13.8744071,3.91793764 L13.8744071,5.71845688 L14.7571287,5.71845688 L14.7571287,3.91246135 C14.7571287,3.41371949 14.3595782,3 13.8599969,3 L6.62919939,3 C6.13045754,3 5.71865674,3.41381943 5.71865674,3.91246135 L5.71865674,5.71845688 L6.63659439,5.71845688 L6.63659439,3.91793764 Z M16.5715585,6.63641451 L3.91777775,6.63641451 C3.41905588,6.63641451 3,7.02892838 3,7.52767023 L3,12.0466464 C3,12.5463076 3.41905588,12.9560098 3.91777775,12.9560098 L5.71863678,12.9560098 L5.71863676,16.5657224 C5.71863676,17.0653837 6.13045754,17.4750859 6.62917941,17.4750859 L13.8599769,17.4750859 C14.3596382,17.4750859 14.7571087,17.0652238 14.7571087,16.5657224 L14.7571087,12.9560098 L16.5715385,12.9560098 C17.0711997,12.9560098 17.4756655,12.5461277 17.4756655,12.0466464 L17.4756655,7.52767023 C17.4756655,7.02892838 17.0728786,6.63641451 16.5732374,6.63641451 L16.5715585,6.63641451 Z M13.8744071,16.5571283 L6.63659439,16.5571283 L6.63659439,10.2375329 L13.8744071,10.2375329 L13.8744071,16.5571283 Z M15.6676713,9.33526469 C15.16809,9.33526469 14.7638841,8.93103875 14.7638841,8.4315574 C14.7638841,7.93281555 15.16811,7.52767023 15.6676713,7.52767023 C16.1673326,7.52767023 16.5715585,7.93281555 16.5715585,8.4315574 C16.5715585,8.93103875 16.1673326,9.33526469 15.6676713,9.33526469 Z M7.51925594,11.1554906 L11.1558303,11.1554906 L11.1558303,12.0380722 L7.51925594,12.0380722 L7.51925594,11.1554906 Z M7.51925594,12.9560098 L12.9564295,12.9560098 L12.9564295,13.8739475 L7.51925594,13.8739475 L7.51925594,12.9560098 Z M7.51925594,14.756609 L12.9564295,14.756609 L12.9564295,15.6744667 L7.51925594,15.6744667 L7.51925594,14.756609 Z"></path>
</svg>
