<?xml version="1.0" encoding="UTF-8"?>
<svg viewBox="0 0 16 16">
    <path
        d="M1,4 L1,15.0014977 L14.9991283,15 L15,3.99850233 L1,4 Z M0,3 L14.9991283,3 C15.5518945,3 16,3.44748943 16,3.99850233 L16,15.0014977 C16,15.5529553 15.5553691,16 14.9991283,16 L1.00087166,16 C0.448105505,16 0,15.5525106 0,15.0014977 L0,3 Z"></path>
    <path
        d="M0,0.998956561 C0,0.447248087 0.450166066,0 0.99883016,0 L8.33450317,0 C8.88614184,0 9.62890212,0.332514882 9.99250952,0.741573215 L12,3 L0,3 L0,0.998956561 Z"></path>
    <path
        d="M6,8 L13,8 L13,9 L6,9 L6,8 Z M6,11 L13,11 L13,12 L6,12 L6,11 Z M4.5,9 C4.22385763,9 4,8.77614237 4,8.5 C4,8.22385763 4.22385763,8 4.5,8 C4.77614237,8 5,8.22385763 5,8.5 C5,8.77614237 4.77614237,9 4.5,9 Z M4.5,12 C4.22385763,12 4,11.7761424 4,11.5 C4,11.2238576 4.22385763,11 4.5,11 C4.77614237,11 5,11.2238576 5,11.5 C5,11.7761424 4.77614237,12 4.5,12 Z"></path>
</svg>
