<?xml version="1.0" encoding="UTF-8"?>
<svg viewBox="0 0 20 20">
    <path
        d="M0.481428574,7.8 L18.8571429,0.142857148 C19.0565256,0.0597557595 19.2857269,0.0961852025 19.4495187,0.237009865 C19.6133104,0.377834528 19.6836948,0.598982361 19.6314286,0.808571426 L15.0542857,19.1185714 C15.0064637,19.3091974 14.8640364,19.4618716 14.6771866,19.5228009 C14.4903369,19.5837302 14.2852876,19.5443635 14.1342857,19.4185714 L10.16,16.1071429 C9.93273633,15.9180777 9.59878707,15.933567 9.39,16.1428571 L7.35142857,18.18 C7.18804574,18.3424176 6.94311121,18.3908397 6.73021643,18.3028099 C6.51732166,18.2147801 6.3781101,18.0075175 6.37714285,17.7771429 L6.37714285,13.4714286 C6.37702364,13.3198307 6.43714939,13.1743983 6.54428572,13.0671429 L14.8342857,4.77714285 L5.04714285,12.1185714 C4.83518187,12.2773135 4.54192595,12.2696274 4.33857143,12.1 L0.335714277,8.76571428 C0.18254275,8.6377847 0.107210046,8.43921272 0.136985379,8.24187818 C0.166760713,8.04454363 0.297329732,7.87703967 0.481428574,7.8 Z"></path>
</svg>
