<?xml version="1.0" encoding="UTF-8"?>
<svg viewBox="0 0 16 16">
    <path
        d="M8.95011712,9.97368602 C8.12073468,10.5915788 7.0923992,10.9572931 5.97864657,10.9572931 C3.22901599,10.9572931 1,8.72827714 1,5.97864657 C1,3.22901599 3.22901599,1 5.97864657,1 C8.72827714,1 10.9572931,3.22901599 10.9572931,5.97864657 C10.9572931,7.09238144 10.5915905,8.12070187 9.97371559,8.95007743 C10.0333034,8.98868965 10.0898035,9.03417641 10.1421149,9.08648778 L13.9965848,12.9409577 C14.3940528,13.3384257 14.3905509,13.9706573 13.9984423,14.3627658 L14.3627658,13.9984423 C13.963804,14.3974042 13.3340921,14.3897192 12.9409577,13.9965848 L9.08648778,10.1421149 C9.0340654,10.0896925 8.98861797,10.0331864 8.95011712,9.97368602 Z M5.97864657,9.95729314 C8.17599239,9.95729314 9.95729314,8.17599239 9.95729314,5.97864657 C9.95729314,3.78130074 8.17599239,2 5.97864657,2 C3.78130074,2 2,3.78130074 2,5.97864657 C2,8.17599239 3.78130074,9.95729314 5.97864657,9.95729314 Z"></path>
</svg>
