<?xml version="1.0" encoding="UTF-8"?>
<svg t="1576170756436" class="icon" viewBox="0 0 1024 1024" version="1.1" xmlns="http://www.w3.org/2000/svg" p-id="2332"
     width="16" height="16">
    <path
        d="M636.20363072 838.31900103c-5.1715101 0-10.4277891-0.98908887-15.51451907-3.09442559l-259.02754852-106.53870981a21.19469985 21.19469985 0 0 1 16.13623391-39.21020519l257.28958585 105.84635188 316.45106039-609.06514988-894.58607911 371.23231298 162.88837564 67.03178498a21.18057367 21.18057367 0 1 1-16.13623394 39.18194104l-167.45229707-68.9110446a40.41123359 40.41123359 0 0 1-21.97184948-52.6617777 40.01560716 40.01560716 0 0 1 21.83055278-21.91532123l904.32151083-375.27343754a40.0579858 40.0579858 0 0 1 30.90187893-0.0141261 40.15690391 40.15690391 0 0 1 21.84467873 21.83054105 40.22754659 40.22754659 0 0 1-1.46950701 34.06695894l-319.89873418 615.67789181a39.94495307 39.94495307 0 0 1-35.60710868 21.81641496z"
        fill="#1296db" p-id="2333"></path>
    <path
        d="M300.49364615 840.73520699a35.36689388 35.36689388 0 0 1-35.3245038-35.32451543v-120.88046436l686.4964717-528.15790237a21.20883773 21.20883773 0 0 1 25.87166555 33.60067829l-669.96459953 515.42695202v84.0864534l37.91025876-34.33542635a21.18057367 21.18057367 0 1 1 28.45742068 31.39642351l-49.72277482 45.04580912a35.31037749 35.31037749 0 0 1-23.72393854 9.14199217z"
        fill="#1296db" p-id="2334"></path>
</svg>
