<?xml version="1.0" encoding="UTF-8"?>
<svg viewBox="0 0 16 16">
    <path
        d="M5.22901147,3.38119785 L5.22901147,1 C5.22901147,0.44771525 5.67672672,-3.42636147e-16 6.22901147,-4.4408921e-16 L9.5623448,-2.22044605e-16 C10.1146296,-3.23497668e-16 10.5623448,0.44771525 10.5623448,1 L10.5623448,3.38119785 L12.6245226,2.19059892 C13.1028153,1.91445655 13.7144057,2.0783317 13.990548,2.55662433 L15.6572147,5.44337567 C15.9333571,5.9216683 15.7694819,6.5332587 15.2911893,6.80940108 L13.2290115,8 L15.2911893,9.19059892 C15.7694819,9.4667413 15.9333571,10.0783317 15.6572147,10.5566243 L13.990548,13.4433757 C13.7144057,13.9216683 13.1028153,14.0855435 12.6245226,13.8094011 L10.5623448,12.6188022 L10.5623448,15 C10.5623448,15.5522847 10.1146296,16 9.5623448,16 L6.22901147,16 C5.67672672,16 5.22901147,15.5522847 5.22901147,15 L5.22901147,12.6188022 L3.16683364,13.8094011 C2.68854102,14.0855435 2.07695061,13.9216683 1.80080824,13.4433757 L0.134141571,10.5566243 C-0.142000803,10.0783317 0.0218743518,9.4667413 0.500166975,9.19059892 L2.5623448,8 L0.500166975,6.80940108 C0.0218743518,6.5332587 -0.142000803,5.9216683 0.134141571,5.44337567 L1.80080824,2.55662433 C2.07695061,2.0783317 2.68854102,1.91445655 3.16683364,2.19059892 L5.22901147,3.38119785 Z M7.88037363,10.4835755 C9.32785334,10.4835755 10.5012675,9.31016133 10.5012675,7.86268161 C10.5012675,6.4152019 9.32785334,5.24178774 7.88037363,5.24178774 C6.43289391,5.24178774 5.25947976,6.4152019 5.25947976,7.86268161 C5.25947976,9.31016133 6.43289391,10.4835755 7.88037363,10.4835755 Z"></path>
</svg>
