<?xml version="1.0" encoding="UTF-8"?>
<svg viewBox="0 0 20 20">
    <path
        d="M10,15.0467355 L5.89349582,17.1730012 C5.4030546,17.4269419 4.79961387,17.2352203 4.54567322,16.744779 C4.44651959,16.5532814 4.41192535,16.334862 4.44705004,16.1220968 L5.20026933,11.559527 L1.90909088,8.31106172 C1.5160243,7.92309638 1.51188893,7.2899449 1.89985427,6.89687832 C2.05133916,6.7434016 2.24837815,6.64300522 2.46158401,6.61066272 L7.03360331,5.91710522 L9.10604734,1.78317753 C9.35356005,1.28946111 9.95444499,1.08987357 10.4481614,1.33738628 C10.6409378,1.43403006 10.7973089,1.59040109 10.8939527,1.78317753 L12.9663967,5.91710522 L17.538416,6.61066272 C18.0844538,6.69349453 18.4599565,7.20329412 18.3771247,7.74933197 C18.3447822,7.96253783 18.2443858,8.15957683 18.0909091,8.31106172 L14.7997307,11.559527 L15.55295,16.1220968 C15.6429072,16.6670061 15.2740957,17.1816671 14.7291864,17.2716244 C14.5164212,17.3067491 14.2980018,17.2721548 14.1065042,17.1730012 L10,15.0467355 Z"></path>
</svg>
