<?xml version="1.0" encoding="UTF-8"?>
<svg viewBox="0 0 22 20">
    <g id="可视化展示" transform="translate(-15.000000, -133.000000)">
        <g id="tree" transform="translate(10.000000, 126.000000)">
            <path
                d="M15.409396,22.3846154 L25.7695749,22.3846154 C26.4491199,22.3846154 27,22.9586093 27,23.6666667 L27,25.7179487 C27,26.4260061 26.4491199,27 25.7695749,27 L15.409396,27 C14.729851,27 14.1789709,26.4260061 14.1789709,25.7179487 L14.1789709,25.4615385 L7.2639821,25.4615385 C6.85625511,25.4615385 6.52572707,25.1171421 6.52572707,24.6923077 L6.52572707,11.6153846 L6.23042506,11.6153846 C5.55088006,11.6153846 5,11.0413907 5,10.3333333 L5,8.28205128 C5,7.57399391 5.55088006,7 6.23042506,7 L8.27293065,7 C8.95247564,7 9.5033557,7.57399391 9.5033557,8.28205128 L9.5033557,10.3333333 C9.5033557,11.0413907 8.95247564,11.6153846 8.27293065,11.6153846 L8.00223714,11.6153846 L8.00223714,16.2307692 L14.1789709,16.2307692 L14.1789709,15.974359 C14.1789709,15.2663016 14.729851,14.6923077 15.409396,14.6923077 L25.7695749,14.6923077 C26.4491199,14.6923077 27,15.2663016 27,15.974359 L27,18.025641 C27,18.7336984 26.4491199,19.3076923 25.7695749,19.3076923 L15.409396,19.3076923 C14.729851,19.3076923 14.1789709,18.7336984 14.1789709,18.025641 L14.1789709,17.7692308 L8.00223714,17.7692308 L8.00223714,23.9230769 L14.1789709,23.9230769 L14.1789709,23.6666667 C14.1789709,22.9586093 14.729851,22.3846154 15.409396,22.3846154 Z M25.7695749,11.6153846 L12.2102908,11.6153846 C11.5307458,11.6153846 10.9798658,11.0413907 10.9798658,10.3333333 L10.9798658,8.28205128 C10.9798658,7.57399391 11.5307458,7 12.2102908,7 L25.7695749,7 C26.4491199,7 27,7.57399391 27,8.28205128 L27,10.3333333 C27,11.0413907 26.4491199,11.6153846 25.7695749,11.6153846 Z"></path>
        </g>
    </g>
</svg>
