<?xml version="1.0" encoding="utf-8"?>
<!-- Generator: Adobe Illustrator 21.0.0, SVG Export Plug-In . SVG Version: 6.00 Build 0)  -->
<svg version="1.1" id="图层_1" xmlns="http://www.w3.org/2000/svg" x="0px"
     y="0px"
     viewBox="0 0 16 16" style="enable-background:new 0 0 16 16;" xml:space="preserve">
<style type="text/css">
	.st0 {
        fill: #2773C2;
    }
</style>
    <path class="st0" d="M15.4,13.7l-4.8-2.3c-0.1-0.1-0.2-0.1-0.3-0.2c0,0,0,0,0,0c-0.1-0.1-0.1-0.2-0.2-0.4c0-0.3,0.1-0.5,0.3-0.7
	c1.2-1,1.8-3.1,1.8-4.2V3c0-1.3-2.1-3-4.2-3h0C5.9,0,3.8,1.8,3.8,3v2.7C3.8,7,4.4,9.1,5.6,10c0.2,0.2,0.3,0.4,0.3,0.7
	c0,0.1-0.1,0.3-0.2,0.4c0,0,0,0,0,0c-0.1,0.1-0.2,0.2-0.3,0.2l-4.8,2.3C0.4,13.8,0.1,14,0,14.1v1.6C0,15.9,0.1,16,0.3,16H8h0h7.7
	c0.2,0,0.3-0.1,0.3-0.3v-1.6C15.9,14,15.6,13.8,15.4,13.7z"/>
</svg>
