<?xml version="1.0" encoding="UTF-8"?>
<svg viewBox="0 0 20 20">
    <path
        d="M17.8125,13.6054688 L17.8125,16.6113281 C17.8125,16.8613281 17.7265625,17.0761719 17.5507812,17.25 C17.375,17.4257813 17.1621094,17.5117188 16.9121094,17.5117188 L3.08789062,17.5117188 C2.83789062,17.5117188 2.62304688,17.4257813 2.44921875,17.25 C2.2734375,17.0742188 2.1875,16.8613281 2.1875,16.6113281 L2.1875,13.6054688 C2.1875,13.3554688 2.2734375,13.140625 2.44921875,12.9667969 C2.625,12.7910156 2.83789062,12.7050781 3.08789062,12.7050781 L7.09765625,12.7050781 C7.23046875,13.0566406 7.44921875,13.34375 7.75976562,13.5683594 C8.0703125,13.7929688 8.41601562,13.90625 8.796875,13.90625 L11.2011719,13.90625 C11.5820312,13.90625 11.9277344,13.7929688 12.2382812,13.5683594 C12.5488281,13.34375 12.7695313,13.0546875 12.9003906,12.7050781 L16.9101562,12.7050781 C17.1601562,12.7050781 17.375,12.7910156 17.5488281,12.9667969 C17.7226562,13.1425781 17.8125,13.3554688 17.8125,13.6054688 Z M14.7617188,7.51953125 C14.6542969,7.76953125 14.4707031,7.89453125 14.2070312,7.89453125 L11.8027344,7.89453125 L11.8027344,12.1015625 C11.8027344,12.2636719 11.7441406,12.40625 11.625,12.5234375 C11.5058594,12.640625 11.3652344,12.7011719 11.203125,12.7011719 L8.796875,12.7011719 C8.63476562,12.7011719 8.4921875,12.6425781 8.375,12.5234375 C8.2578125,12.4042969 8.19726562,12.265625 8.19726562,12.1015625 L8.19726562,7.89648437 L5.79296875,7.89648437 C5.53125,7.89648437 5.34375,7.77148437 5.23828125,7.52148438 C5.13085938,7.27734375 5.17578125,7.06054687 5.37109375,6.87304688 L9.578125,2.66601563 C9.69140625,2.546875 9.83007813,2.48828125 10,2.48828125 C10.1699219,2.48828125 10.3105469,2.546875 10.421875,2.66601563 L14.6289062,6.87304687 C14.8222656,7.06054687 14.8652344,7.27539062 14.7617188,7.51953125 Z M14.0273438,16.1308594 C14.1464844,16.0117188 14.2050781,15.8730469 14.2050781,15.7089844 C14.2050781,15.546875 14.1464844,15.4042969 14.0273438,15.2871094 C13.9082031,15.1699219 13.7675781,15.109375 13.6054688,15.109375 C13.4433594,15.109375 13.3007813,15.1679688 13.1835938,15.2871094 C13.0664062,15.40625 13.0058594,15.546875 13.0058594,15.7089844 C13.0058594,15.8710938 13.0644531,16.0136719 13.1835938,16.1308594 C13.3027344,16.2480469 13.4414063,16.3085938 13.6054688,16.3085938 C13.7675781,16.3085938 13.9101563,16.25 14.0273438,16.1308594 Z M16.4316406,16.1308594 C16.5507812,16.0117188 16.609375,15.8730469 16.609375,15.7089844 C16.609375,15.546875 16.5507812,15.4042969 16.4316406,15.2871094 C16.3125,15.1699219 16.171875,15.109375 16.0097656,15.109375 C15.8476562,15.109375 15.7050781,15.1679688 15.5878906,15.2871094 C15.4707031,15.40625 15.4101562,15.546875 15.4101562,15.7089844 C15.4101562,15.8710938 15.46875,16.0136719 15.5878906,16.1308594 C15.7070313,16.2480469 15.8457031,16.3085938 16.0097656,16.3085938 C16.171875,16.3085938 16.3125,16.25 16.4316406,16.1308594 Z"></path>
</svg>
