<?xml version="1.0" encoding="UTF-8"?>
<svg viewBox="0 0 38 38">
    <path
        d="M2,20 C2,29.9411255 10.0588745,38 20,38 C29.9411255,38 38,29.9411255 38,20 C38,10.0588745 29.9411255,2 20,2 C10.0588745,2 2,10.0588745 2,20 Z"></path>
    <path
        d="M26.6431229,30.335737 C24.5109334,29.4363403 23.7319035,28.0378328 23.4944184,26.8318723 C25.0301663,25.6323392 26.2527853,23.7141145 26.9251917,21.646698 C27.6164187,20.7912019 28.0191563,19.8994791 28.0191563,19.1440544 C28.0191563,18.6267913 27.8254121,18.2527211 27.4863998,17.9751387 C27.3729944,13.5846152 24.1708377,10.0596378 20.2106788,10.0051419 C20.1797391,10.0047134 20.1497224,10 20.1186623,10 C20.1065031,10 20.0947453,10.0019477 20.0825861,10.0020256 C16.147508,10.0232552 12.949645,13.4741431 12.7585494,17.8067039 C12.2651196,18.0928171 11.980924,18.5133977 11.980924,19.1440934 C11.980924,20.0328947 12.5346681,21.1102308 13.4669116,22.0948966 C14.1293659,23.89704 15.2068373,25.5509264 16.5360397,26.66558 C16.338403,27.9071439 15.5878649,29.3947769 13.3569573,30.3357759 C12.1524767,30.8438071 9.95026157,31.3004586 9,31.7707438 C11.4341624,34.3540211 16.0446566,35.9791209 19.9308572,35.998325 L19.9860751,35.9996884 C19.9907301,35.9996884 19.995345,36 20,36 C23.9140504,36 28.5513509,34.3694467 31,31.7707438 C30.0498187,31.3004196 27.8476036,30.8437681 26.6431229,30.335737 Z"
        fill="#FFFFFF"></path>
</svg>
