<svg t="1599181406732" class="icon" viewBox="0 0 1024 1024" version="1.1" xmlns="http://www.w3.org/2000/svg" p-id="3414"
     width="16" height="16">
    <path
        d="M32.198406 0v1024h959.603188V0H32.198406z m735.574845 64.396811v415.404783H256.226749V64.396811h511.546502zM96.595217 64.396811h95.234721v127.886626H96.595217V64.396811z m0 191.37644h95.234721v127.886625H96.595217V255.773251z m0 192.283436h95.234721v127.886626H96.595217V448.056687z m0 192.283437h95.234721v127.886625H96.595217V640.340124z m0 319.263065V831.716563h95.234721v127.886626H96.595217z m159.631532 0V544.198406h511.546502v415.404783H256.226749z m672.085031 0H832.170062V831.716563h96.141718v127.886626z m0-191.37644H832.170062V640.340124h96.141718v127.886625z m0-192.283436H832.170062V448.056687h96.141718v127.886626z m0-192.283437H832.170062V255.773251h96.141718v127.886625z m0-191.376439H832.170062V64.396811h96.141718v127.886626z"
        fill="#2c2c2c" p-id="3415"></path>
</svg>
