<?xml version="1.0" encoding="UTF-8"?>
<svg viewBox="0 0 16 16">
    <path
        d="M3.8304,0.804266672 C2.0936,0.9552 0.8,2.4864 0.8,4.22986667 L0.8,4.292 C0.8,6.03866667 2.2088,7.44826667 3.9464,7.44826667 L6.92346667,7.44826667 C7.06491547,7.44826667 7.20057089,7.39207636 7.30059029,7.29205695 C7.40060969,7.19203755 7.4568,7.05638212 7.4568,6.91493333 L7.4568,4.11973333 C7.4568,2.1832 5.80293333,0.6328 3.8304,0.804266672 Z M11.8714667,0.791466672 C10.0333333,0.791466672 8.54293334,2.2816 8.54293333,4.11973333 L8.54293333,6.91493333 C8.54293332,7.05638213 8.59912364,7.19203755 8.69914304,7.29205696 C8.79916245,7.39207636 8.93481787,7.44826668 9.07626667,7.44826667 L11.8714667,7.44826667 C13.7098667,7.44826667 15.2,5.95786667 15.2,4.11973333 C15.2,2.2816 13.7098667,0.791466656 11.8714667,0.791466672 Z M0.8,11.8816 C0.8008,13.7186667 2.28986667,15.2077333 4.12693333,15.2085333 C5.98186666,15.2093333 7.4568,13.6362667 7.4568,11.7813333 L7.4568,9.36293333 C7.4568,8.7896 7.21866667,8.55173333 6.92426667,8.55173333 L4.2272,8.55173333 C2.37226667,8.55173333 0.7992,10.0266667 0.8,11.8816 Z M11.7613333,8.55173333 L9.07653333,8.55173333 C8.93508453,8.55173333 8.79942911,8.60792364 8.69940971,8.70794305 C8.59939031,8.80796245 8.5432,8.94361788 8.5432,9.08506667 L8.5432,11.8802667 C8.5432,13.7184 10.0333333,15.2085333 11.8714667,15.2085333 C13.7304,15.2085333 15.2333333,13.6845333 15.1992,11.8178667 C15.1658667,9.9856 13.5938667,8.55173334 11.7613333,8.55173333 Z"></path>
</svg>
