<?xml version="1.0" encoding="UTF-8"?>
<svg viewBox="0 0 20 20" version="1.1" xmlns="http://www.w3.org/2000/svg">
    <!-- Generator: Sketch 52.6 (67491) - http://www.bohemiancoding.com/sketch -->
    <title>word</title>
    <desc>Created with Sketch.</desc>
    <g id="word" stroke="none" stroke-width="1" fill="none" fill-rule="evenodd">
        <g>
            <rect id="Rectangle" fill="#000000" opacity="0" x="0" y="0" width="20" height="20"></rect>
            <path
                d="M10.4515522,0 L11.8109125,0 L11.8109125,1.86030104 C14.2427093,1.88146754 16.6721543,1.83443086 19.0992474,1.88146754 C19.3417753,1.85242953 19.5841003,1.93718112 19.7556646,2.11104515 C19.9272288,2.28490919 20.0087464,2.52834119 19.9764817,2.77046096 C20.0164629,7.35183443 19.9764817,11.9426152 20,16.5169332 C19.9764817,16.9873001 20.0446849,17.5070555 19.7789276,17.9280339 C19.4473189,18.1632173 19.019285,18.139699 18.6312324,18.1632173 L11.8109125,18.1632173 L11.8109125,19.9905927 L10.3998119,19.9905927 C6.93320791,19.3532455 3.46660395,18.7605833 0,18.139699 L0,1.86500471 C3.4830668,1.24176857 6.96848541,0.634995293 10.4515522,0 Z"
                id="Path" fill="#2A5699"></path>
            <path
                d="M11.8109125,2.55879586 L19.3085607,2.55879586 L19.3085607,17.4412041 L11.8109125,17.4412041 L11.8109125,15.5809031 L17.7187206,15.5809031 L17.7187206,14.6401693 L11.8109125,14.6401693 L11.8109125,13.4877705 L17.7187206,13.4877705 L17.7187206,12.5470367 L11.8109125,12.5470367 L11.8109125,11.3946378 L17.7187206,11.3946378 L17.7187206,10.453904 L11.8109125,10.453904 L11.8109125,9.27798684 L17.7187206,9.27798684 L17.7187206,8.37253057 L11.8109125,8.37253057 L11.8109125,7.19661336 L17.7187206,7.19661336 L17.7187206,6.27939793 L11.8109125,6.27939793 L11.8109125,5.11523988 L17.7187206,5.11523988 L17.7187206,4.18626529 L11.8109125,4.18626529 L11.8109125,2.55879586 Z M4.70366887,6.66745061 C5.13640641,6.64158043 5.56679211,6.62276574 5.99952963,6.59924742 C6.30291627,8.17027281 6.61100658,9.73659455 6.9402634,11.3029163 C7.19661336,9.68720602 7.48118531,8.07855127 7.75634996,6.46754469 C8.210254,6.45108186 8.66415805,6.42521166 9.11806209,6.39698965 C8.60301035,8.65004703 8.15380998,10.9242709 7.59172154,13.1632173 C7.21307619,13.3654751 6.65098777,13.1632173 6.19473189,13.1867356 C5.87958607,11.6439323 5.52916275,10.112888 5.2587018,8.56773283 C4.99294451,10.070555 4.64722484,11.5592662 4.3438382,13.0503293 C3.90639699,13.0268109 3.4689558,13.0009407 3.02916275,12.9703669 C2.65286924,10.9242709 2.20837254,8.88993416 1.85324553,6.83913453 C2.2412982,6.82031986 2.63170271,6.80385701 3.02916275,6.789746 C3.26434619,8.27140168 3.5301035,9.74600188 3.73471309,11.2300094 C4.04985891,9.70837254 4.37676389,8.1890875 4.70366887,6.66745061 Z"
                id="Shape" fill="#FFFFFF" fill-rule="nonzero"></path>
        </g>
    </g>
</svg>
