<?xml version="1.0" encoding="UTF-8"?>
<svg viewBox="0 0 16 16">
    <path
        d="M12.0586559,3.56625032 C12.0586559,1.27713414 8.7140778,0.132697521 8.7140778,0.132697521 C8.24042983,-0.0661368769 7.7701705,-0.0208874237 7.28577014,0.132697521 C7.28577014,0.132697521 3.94099656,1.13753907 3.94099656,3.56625032 C3.94099656,3.92933922 3.2339241,3.85143323 3,5 L13,5 C12.5742273,3.84345637 12.0586559,3.92933922 12.0586559,3.56625032 M15,13.8414041 L15,14.2871164 C15,15.2098037 12.1999699,16 12.1999699,16 L11.033305,15.8719433 C11.033305,15.8719433 9.16753502,15.6704516 7.99996777,15.6704516 C6.83414082,15.6704516 4.96669496,15.8719433 4.96669496,15.8719433 L3.80851671,15.9970871 C3.80851671,15.9970871 1,15.2064084 1,14.2871164 L1,13.8414041 C1,12.9838955 2.29448001,12.1184645 3.81161057,11.4547479 C3.88513274,11.4227059 4.7968334,15.8809974 4.7968334,15.8809974 L5.20000215,15.8719433 C5.20000215,15.8719433 4.42092929,11.2688411 4.49997314,11.2375413 C4.91994328,11.0716353 5.19624225,10.916175 5.60940159,10.7875431 C5.76256919,10.739341 6.49516968,10.395729 6.08534053,9.47051839 C5.13623424,8.63503284 4.48966027,7.82548518 4.48966027,6 L11.5323405,6 C11.5323405,7.80657909 10.8692445,8.62358529 9.92641184,9.46029537 L9.93186907,9.46029537 C9.53102071,10.5098705 10.1719656,10.758748 10.2741059,10.7873205 C10.6828394,10.9040039 11.0898754,11.0864225 11.5000269,11.2375413 C11.6016516,11.2749267 10.7999979,15.8719433 10.7999979,15.8719433 L11.2260913,15.8620728 C11.2260913,15.8620728 12.0951439,11.4183643 12.1840279,11.4558982 C13.7241476,12.1070912 15,12.9663438 15,13.8414041"></path>
</svg>
